<svg width="27" height="17" viewBox="0 0 27 17" fill="none" xmlns="http://www.w3.org/2000/svg">
<path fill-rule="evenodd" clip-rule="evenodd" d="M0.8125 8.50004C0.8125 8.25969 0.90798 8.02918 1.07793 7.85923C1.24789 7.68928 1.4784 7.59379 1.71875 7.59379H23.0936L17.3896 1.89167C17.2195 1.7215 17.1239 1.4907 17.1239 1.25005C17.1239 1.00939 17.2195 0.77859 17.3896 0.608421C17.5598 0.438251 17.7906 0.342651 18.0312 0.342651C18.2719 0.342651 18.5027 0.438251 18.6729 0.608421L25.9229 7.85842C26.0073 7.9426 26.0742 8.04261 26.1199 8.15271C26.1656 8.26281 26.1891 8.38084 26.1891 8.50004C26.1891 8.61925 26.1656 8.73728 26.1199 8.84738C26.0742 8.95748 26.0073 9.05749 25.9229 9.14167L18.6729 16.3917C18.5027 16.5618 18.2719 16.6574 18.0312 16.6574C17.7906 16.6574 17.5598 16.5618 17.3896 16.3917C17.2195 16.2215 17.1239 15.9907 17.1239 15.75C17.1239 15.5094 17.2195 15.2786 17.3896 15.1084L23.0936 9.40629H1.71875C1.4784 9.40629 1.24789 9.31082 1.07793 9.14086C0.90798 8.97091 0.8125 8.7404 0.8125 8.50004Z" fill="#FF8A00"/>
</svg>
