<svg width="29" height="29" viewBox="0 0 29 29" fill="none" xmlns="http://www.w3.org/2000/svg">
<path fill-rule="evenodd" clip-rule="evenodd" d="M1.8125 14.5C1.8125 14.2597 1.90798 14.0292 2.07793 13.8592C2.24789 13.6893 2.4784 13.5938 2.71875 13.5938H24.0936L18.3896 7.89167C18.2195 7.7215 18.1239 7.4907 18.1239 7.25005C18.1239 7.00939 18.2195 6.77859 18.3896 6.60842C18.5598 6.43825 18.7906 6.34265 19.0312 6.34265C19.2719 6.34265 19.5027 6.43825 19.6729 6.60842L26.9229 13.8584C27.0073 13.9426 27.0742 14.0426 27.1199 14.1527C27.1656 14.2628 27.1891 14.3808 27.1891 14.5C27.1891 14.6192 27.1656 14.7373 27.1199 14.8474C27.0742 14.9575 27.0073 15.0575 26.9229 15.1417L19.6729 22.3917C19.5027 22.5618 19.2719 22.6574 19.0312 22.6574C18.7906 22.6574 18.5598 22.5618 18.3896 22.3917C18.2195 22.2215 18.1239 21.9907 18.1239 21.75C18.1239 21.5094 18.2195 21.2786 18.3896 21.1084L24.0936 15.4063H2.71875C2.4784 15.4063 2.24789 15.3108 2.07793 15.1409C1.90798 14.9709 1.8125 14.7404 1.8125 14.5V14.5Z" fill="#FF8A00"/>
</svg>
