<svg width="40" height="40" fill="none" xmlns="http://www.w3.org/2000/svg"><path d="M20 0C8.946 0 0 8.945 0 20c0 11.054 8.945 20 20 20 11.054 0 20-8.945 20-20C40 8.946 31.055 0 20 0Zm0 37.333c-9.558 0-17.333-7.775-17.333-17.333 0-9.558 7.775-17.333 17.333-17.333 9.558 0 17.333 7.775 17.333 17.333 0 9.558-7.775 17.333-17.333 17.333Z" fill="#303030"/><path d="m26.614 11.607-9.713 4.67a1.333 1.333 0 0 0-.623.624l-4.671 9.713c-.545 1.133.646 2.325 1.78 1.78l9.712-4.671c.273-.132.492-.351.624-.624l4.67-9.713c.545-1.132-.646-2.325-1.78-1.78Zm-5.092 9.915-5.863 2.82 2.82-5.864 5.863-2.82-2.82 5.864Z" fill="#303030"/></svg>