<svg width="40" height="40" fill="none" xmlns="http://www.w3.org/2000/svg"><path d="M36.909 3.09A10.478 10.478 0 0 0 29.449 0a10.48 10.48 0 0 0-7.46 3.09l-9.45 9.45-9.449 9.45A10.485 10.485 0 0 0 0 29.45a10.48 10.48 0 0 0 3.09 7.46A10.478 10.478 0 0 0 10.55 40a10.48 10.48 0 0 0 7.46-3.09l9.45-9.45 9.449-9.45a10.484 10.484 0 0 0 3.09-7.46 10.48 10.48 0 0 0-3.09-7.46ZM16.02 34.92a7.688 7.688 0 0 1-5.47 2.267 7.685 7.685 0 0 1-5.472-2.267 7.685 7.685 0 0 1-2.266-5.47A7.69 7.69 0 0 1 5.08 23.98l8.455-8.456 10.942 10.943-8.455 8.454ZM34.92 16.022l-8.454 8.455-10.942-10.943 8.455-8.454a7.687 7.687 0 0 1 5.47-2.267c2.067 0 4.01.805 5.471 2.267a7.685 7.685 0 0 1 2.266 5.47c0 2.066-.805 4.01-2.266 5.472Z" fill="#303030"/><path d="M33.21 9.485c-.448 0-.89-.214-1.162-.61a3.52 3.52 0 0 0-5.392-.505 1.407 1.407 0 0 1-1.99-1.99 6.286 6.286 0 0 1 4.477-1.854c2.09 0 4.044 1.03 5.227 2.758a1.407 1.407 0 0 1-1.16 2.201Z" fill="#303030"/></svg>