<svg width="40" height="40" fill="none" xmlns="http://www.w3.org/2000/svg"><g clip-path="url(#a)"><path d="M37.2 16.315a9.496 9.496 0 0 0 2.8-6.83 9.498 9.498 0 0 0-2.897-6.79A9.481 9.481 0 0 0 30.267.002a9.496 9.496 0 0 0-6.743 2.944 9.573 9.573 0 0 0-2.624 5.93c-.02.279-.05.556-.09.83-2.114-1.427-4.238-2.491-6.108-3.046-3.445-1.023-5.25-.155-6.159.753-1.542 1.543-1.61 4.28-.197 7.721a12.696 12.696 0 0 0-4.592 2.953c-5.004 5.005-5.004 13.149 0 18.154A12.75 12.75 0 0 0 12.83 40a12.75 12.75 0 0 0 9.075-3.76 12.887 12.887 0 0 0 2.953-4.593c1.643.675 3.125 1.012 4.394 1.012 1.388 0 2.52-.403 3.326-1.21.91-.91 1.778-2.72.748-6.174-.557-1.87-1.622-3.993-3.049-6.106.253-.032.508-.057.765-.073a9.551 9.551 0 0 0 6.158-2.782ZM20.248 34.584a10.42 10.42 0 0 1-7.418 3.073 10.42 10.42 0 0 1-7.418-3.073c-4.09-4.092-4.09-10.748 0-14.84a10.376 10.376 0 0 1 3.95-2.485c.412.763.88 1.535 1.396 2.305a7.792 7.792 0 0 0-3.497 2.03c-3.07 3.072-3.07 8.068 0 11.139a7.823 7.823 0 0 0 5.569 2.307c2.103 0 4.08-.82 5.568-2.307a7.894 7.894 0 0 0 2.03-3.498c.77.516 1.542.985 2.304 1.398a10.524 10.524 0 0 1-2.484 3.95Zm-7.97-12.93a36.228 36.228 0 0 0 2.85 3.212 36.23 36.23 0 0 0 3.205 2.845 5.54 5.54 0 0 1-1.592 3.365 5.494 5.494 0 0 1-3.911 1.62 5.494 5.494 0 0 1-3.911-1.62 5.54 5.54 0 0 1 0-7.824 5.473 5.473 0 0 1 3.259-1.582 1.16 1.16 0 0 0 .1-.017Zm18.802 4.292c.538 1.805.48 3.208-.16 3.848-.83.83-2.837.682-5.37-.395-2.848-1.212-6.043-3.468-8.765-6.19-2.722-2.723-4.978-5.918-6.189-8.768-1.077-2.533-1.225-4.54-.395-5.37.638-.639 2.035-.699 3.833-.165 1.847.549 4.008 1.683 6.153 3.22a10.677 10.677 0 0 1-2.42 3.76l-.254.256a1.172 1.172 0 0 0 0 1.657l4.568 4.569a1.171 1.171 0 0 0 1.658 0l.057-.057a10.955 10.955 0 0 1 4.036-2.551c1.55 2.155 2.694 4.328 3.248 6.186Zm-8.138-6.032-2.962-2.962c1.899-2.159 3.048-4.937 3.258-7.912a7.225 7.225 0 0 1 1.98-4.475 7.169 7.169 0 0 1 5.092-2.22 7.151 7.151 0 0 1 5.159 2.03 7.171 7.171 0 0 1 2.188 5.127 7.169 7.169 0 0 1-2.115 5.156 7.207 7.207 0 0 1-4.647 2.1c-2.97.186-5.755 1.298-7.953 3.156Z" fill="#303030"/></g><defs><clipPath id="a"><path fill="#fff" d="M0 0h40v40H0z"/></clipPath></defs></svg>