<svg width="40" height="40" fill="none" xmlns="http://www.w3.org/2000/svg"><path d="M32.852 5.093c-3.79-.679-7.28-2.748-9.022-3.921A6.835 6.835 0 0 0 20 0a6.835 6.835 0 0 0-3.83 1.172c-1.743 1.173-5.232 3.242-9.021 3.921A4.691 4.691 0 0 0 3.276 9.71v9.43c0 3.116.871 6.153 2.59 9.027 1.345 2.248 3.208 4.398 5.538 6.387 3.918 3.346 7.797 5.09 7.96 5.163L20 40l.636-.283c.163-.072 4.042-1.817 7.96-5.163 2.33-1.99 4.193-4.139 5.538-6.387 1.719-2.874 2.59-5.911 2.59-9.027V9.71a4.691 4.691 0 0 0-3.872-4.617Zm.746 14.047c0 4.645-2.346 9.014-6.974 12.987-2.69 2.309-5.42 3.814-6.624 4.425C17.234 35.147 6.402 29.01 6.402 19.14V9.71c0-.757.546-1.405 1.298-1.54 4.353-.78 8.269-3.095 10.216-4.405a3.721 3.721 0 0 1 4.168 0C24.031 5.075 27.947 7.39 32.3 8.17a1.568 1.568 0 0 1 1.298 1.54v9.43Z" fill="#303030"/><path d="M17.58 23.003 12.236 18l-2.136 2.282 7.68 7.19 12.217-13.7-2.334-2.08-10.085 11.31Z" fill="#303030"/></svg>