<svg width="40" height="40" fill="none" xmlns="http://www.w3.org/2000/svg"><path d="M35.703 9.453h-8.281V6.72a3.52 3.52 0 0 0-3.516-3.516h-7.812a3.52 3.52 0 0 0-3.516 3.516v2.734H4.297A4.302 4.302 0 0 0 0 13.75V32.5a4.302 4.302 0 0 0 4.297 4.297h31.406A4.302 4.302 0 0 0 40 32.5V13.75a4.302 4.302 0 0 0-4.297-4.297ZM14.922 6.72c0-.646.526-1.172 1.172-1.172h7.812c.646 0 1.172.526 1.172 1.172v2.734H14.922V6.72ZM6.25 34.453H4.297A1.955 1.955 0 0 1 2.344 32.5V13.75c0-1.077.876-1.953 1.953-1.953H6.25v22.656Zm25.156 0H8.594V11.797h2.952a4.775 4.775 0 0 0-.364 1.855c.008 1.45.68 2.636 1.182 3.322L11.11 19.91c-.145.339-.122.727.063 1.046l4.296 7.442a1.171 1.171 0 0 0 1.601.43l5.413-3.126a1.172 1.172 0 0 0 .429-1.6l-4.297-7.443a1.173 1.173 0 0 0-.875-.577l-3.427-.413c-.298-.389-.782-1.154-.787-2.03-.004-.636.24-1.242.74-1.842h17.14v22.656Zm-17.91-14.161.958-2.245 2.424.291 3.418 5.92-3.383 1.954-3.418-5.92ZM37.655 32.5a1.955 1.955 0 0 1-1.953 1.953H33.75V11.797h1.953c1.077 0 1.953.876 1.953 1.953V32.5Z" fill="#303030"/><path d="M25.469 21.172a3.52 3.52 0 0 0 3.515-3.516 3.52 3.52 0 0 0-3.515-3.515 3.52 3.52 0 0 0-3.516 3.515 3.52 3.52 0 0 0 3.516 3.516Zm0-4.688a1.173 1.173 0 0 1 0 2.344 1.173 1.173 0 0 1-1.172-1.172c0-.646.526-1.172 1.172-1.172Z" fill="#303030"/></svg>