<svg width="80" height="90" viewBox="0 0 80 90" fill="none" xmlns="http://www.w3.org/2000/svg">
<g clip-path="url(#clip0_501_28)">
<g filter="url(#filter0_d_501_28)">
<path d="M56.404 38.0791C51.9356 32.6364 46.2876 29.6389 40.5 29.6389C34.7124 29.6389 29.0643 32.6364 24.5962 38.0791C20.5798 42.9713 18.1821 49.1368 18.1821 54.5719C18.1821 57.2122 18.9821 59.2232 20.56 60.5495C22.1173 61.8586 24.1734 62.3014 26.4673 62.3013C28.9081 62.3013 31.6184 61.7998 34.2813 61.307C36.6082 60.8764 38.8061 60.4696 40.5001 60.4696C41.9623 60.4696 44.0238 60.8557 46.206 61.2644C51.306 62.2196 57.0865 63.3021 60.4258 60.5012C62.0132 59.1697 62.8181 57.1747 62.8181 54.5719C62.8182 49.1368 60.4204 42.9713 56.404 38.0791Z" fill="#FF8A00"/>
<path d="M56.8608 8.52506C55.2259 6.0933 52.8848 4.69873 50.4378 4.69873C47.9906 4.69873 45.6496 6.09343 44.0147 8.52506C42.5129 10.759 41.6857 13.6926 41.6857 16.7856C41.6857 19.8785 42.5128 22.8122 44.0147 25.0461C45.6496 27.4777 47.9907 28.8724 50.4378 28.8724C52.885 28.8724 55.2259 27.4777 56.8608 25.0461C58.3627 22.8122 59.1898 19.8785 59.1898 16.7856C59.1898 13.6926 58.3628 10.7588 56.8608 8.52506Z" fill="#FF8A00"/>
<path d="M36.9854 8.52481C35.3505 6.09305 33.0096 4.69849 30.5624 4.69849C28.1152 4.69849 25.7741 6.09319 24.1393 8.52481C22.6375 10.7587 21.8103 13.6923 21.8103 16.7853C21.8103 19.8783 22.6374 22.8119 24.1393 25.0458C25.7742 27.4776 28.1152 28.8723 30.5624 28.8723C33.0096 28.8723 35.3505 27.4776 36.9854 25.0458C38.4872 22.8119 39.3144 19.8784 39.3144 16.7853C39.3143 13.6923 38.4872 10.7586 36.9854 8.52481Z" fill="#FF8A00"/>
<path d="M73.3201 27.4979C72.661 25.2361 71.2483 23.5926 69.3424 22.8704C67.8087 22.2893 66.0774 22.3878 64.4674 23.148C62.2486 24.1954 60.4351 26.3582 59.4921 29.0818C58.7214 31.3075 58.6253 33.6599 59.2216 35.7062C59.8807 37.968 61.2934 39.6114 63.1994 40.3336C63.859 40.5836 64.5549 40.7078 65.2621 40.7078C66.1996 40.7078 67.1569 40.4894 68.0746 40.0561C70.2933 39.0087 72.1069 36.8458 73.0499 34.1224V34.1223C73.8204 31.8967 73.9165 29.5441 73.3201 27.4979Z" fill="#FF8A00"/>
<path d="M21.5082 29.0814C20.5651 26.3578 18.7515 24.1951 16.5329 23.1477C14.9228 22.3875 13.1913 22.2891 11.6577 22.8701C9.75171 23.5925 8.33899 25.2359 7.67992 27.4976C7.08362 29.5438 7.17974 31.8964 7.95037 34.1219V34.1221C8.89365 36.8456 10.7071 39.0084 12.9257 40.0558C13.8435 40.489 14.8007 40.7074 15.7381 40.7074C16.4453 40.7074 17.1414 40.5831 17.8008 40.3333C19.7071 39.611 21.1197 37.9675 21.7788 35.7059C22.3748 33.6597 22.2787 31.3072 21.5082 29.0814Z" fill="#FF8A00"/>
</g>
</g>
<path d="M8.57228 76.252C9.78028 76.252 10.7603 76.668 11.5123 77.5C12.2723 78.324 12.6523 79.4 12.6523 80.728C12.6523 82.056 12.2723 83.136 11.5123 83.968C10.7523 84.792 9.76428 85.204 8.54828 85.204C7.32428 85.204 6.33228 84.792 5.57228 83.968C4.82028 83.144 4.44428 82.064 4.44428 80.728C4.44428 79.432 4.81228 78.364 5.54828 77.524C6.29228 76.676 7.30028 76.252 8.57228 76.252ZM8.54828 77.512C7.76428 77.512 7.13628 77.804 6.66428 78.388C6.19228 78.964 5.95628 79.736 5.95628 80.704C5.95628 81.696 6.18828 82.484 6.65228 83.068C7.12428 83.652 7.76428 83.944 8.57228 83.944C9.34828 83.944 9.96828 83.652 10.4323 83.068C10.9043 82.476 11.1403 81.692 11.1403 80.716C11.1403 79.74 10.9043 78.964 10.4323 78.388C9.96828 77.804 9.34028 77.512 8.54828 77.512ZM19.9265 76.456V77.752H17.2025V85H15.7025V77.752H12.9785V76.456H19.9265ZM27.7958 76.456V85H26.2958V77.752H22.3838V85H20.8838V76.456H27.7958ZM29.592 76.456H33.3C34.22 76.456 34.944 76.676 35.472 77.116C36.008 77.548 36.276 78.196 36.276 79.06C36.276 79.876 36.028 80.524 35.532 81.004C35.036 81.476 34.36 81.712 33.504 81.712H31.092V85H29.592V76.456ZM31.092 77.704V80.5H33.18C34.268 80.5 34.812 80.032 34.812 79.096C34.812 78.168 34.224 77.704 33.048 77.704H31.092ZM40.5813 76.444L43.8813 85H42.2733L41.4573 82.732H38.0733L37.2333 85H35.6852L38.9853 76.444H40.5813ZM41.0613 81.604L39.7893 78.004L38.4573 81.604H41.0613ZM44.6732 76.456H48.5732C49.4692 76.456 50.1532 76.652 50.6252 77.044C51.1052 77.428 51.3452 77.948 51.3452 78.604C51.3452 79.012 51.2332 79.38 51.0092 79.708C50.7852 80.028 50.4892 80.26 50.1212 80.404C50.6172 80.524 51.0092 80.764 51.2972 81.124C51.5852 81.484 51.7292 81.936 51.7292 82.48C51.7292 83.232 51.4772 83.84 50.9732 84.304C50.4772 84.768 49.8292 85 49.0292 85H44.6732V76.456ZM46.1372 77.668V80.02H48.1772C48.7532 80.02 49.1772 79.932 49.4492 79.756C49.7212 79.572 49.8572 79.268 49.8572 78.844C49.8572 78.364 49.7132 78.048 49.4252 77.896C49.1452 77.744 48.7452 77.668 48.2252 77.668H46.1372ZM46.1372 81.1V83.776H48.3812C48.9572 83.776 49.4092 83.68 49.7372 83.488C50.0652 83.296 50.2292 82.948 50.2292 82.444C50.2292 82.164 50.1772 81.932 50.0732 81.748C49.9772 81.556 49.8332 81.416 49.6412 81.328C49.4572 81.24 49.2652 81.18 49.0652 81.148C48.8652 81.116 48.6292 81.1 48.3572 81.1H46.1372ZM53.1104 85V76.456H54.6104V83.008L58.2824 76.456H60.0224V85H58.5224V78.448L54.8504 85H53.1104ZM67.9265 76.456V77.752H65.2025V85H63.7025V77.752H60.9785V76.456H67.9265ZM75.6158 82.348C75.6158 83.196 75.3598 83.852 74.8478 84.316C74.3438 84.772 73.6278 85 72.6998 85H68.9198V76.456H70.4198V79.72H72.6998C73.6358 79.72 74.3558 79.948 74.8598 80.404C75.3638 80.86 75.6158 81.508 75.6158 82.348ZM74.1158 82.384C74.1158 81.936 73.9838 81.584 73.7198 81.328C73.4558 81.072 73.0878 80.944 72.6158 80.944H70.4198V83.776H72.6398C73.6238 83.776 74.1158 83.312 74.1158 82.384Z" fill="#FF8A00"/>
<defs>
<filter id="filter0_d_501_28" x="1.29333" y="2.69849" width="78.4135" height="69.6028" filterUnits="userSpaceOnUse" color-interpolation-filters="sRGB">
<feFlood flood-opacity="0" result="BackgroundImageFix"/>
<feColorMatrix in="SourceAlpha" type="matrix" values="0 0 0 0 0 0 0 0 0 0 0 0 0 0 0 0 0 0 127 0" result="hardAlpha"/>
<feOffset dy="4"/>
<feGaussianBlur stdDeviation="3"/>
<feComposite in2="hardAlpha" operator="out"/>
<feColorMatrix type="matrix" values="0 0 0 0 0 0 0 0 0 0 0 0 0 0 0 0 0 0 0.25 0"/>
<feBlend mode="normal" in2="BackgroundImageFix" result="effect1_dropShadow_501_28"/>
<feBlend mode="normal" in="SourceGraphic" in2="effect1_dropShadow_501_28" result="shape"/>
</filter>
<clipPath id="clip0_501_28">
<rect width="73" height="71" fill="white" transform="translate(4)"/>
</clipPath>
</defs>
</svg>
