<svg width="480" height="410" fill="none" xmlns="http://www.w3.org/2000/svg"><g clip-path="url(#a)"><path d="M368.262 7.32v.005c-.303 5.017-1.026 7.738-2.86 10.461l-.002.004c-1.683 2.46-3.919 4.157-11.475 8.822l-.262-.426.262.426c-6.794 4.194-9.972 6.971-11.326 9.744v.001c-.446.91-.662 1.443-.762 2.054-.102.624-.088 1.356-.013 2.671.074 1.166.175 1.999.384 2.815.209.816.531 1.634 1.068 2.76 2.65 5.507 5.913 9.115 16.293 17.713l.002.001c3.601 3.012 6.09 5.193 7.784 6.87 1.686 1.668 2.628 2.875 3.08 3.942l.003.006.014.034c.219.534.442 1.077.378 1.69-.067.636-.427 1.258-1.107 2.035-1.354 1.548-4.265 4.013-9.963 8.821-2.537 2.14-5.292 4.711-7.641 7.078-2.356 2.374-4.278 4.516-5.17 5.804a26.346 26.346 0 0 0-2.408 4.369 14.555 14.555 0 0 0-.674 1.889c-.149.559-.197.971-.17 1.223v.001c.028.257.055.433.089.561a.473.473 0 0 0 .08.186c.028.032.111.098.592.156.438.05 1.127-.091 2.108-.513.965-.415 2.152-1.075 3.557-1.986 2.811-1.821 6.448-4.612 10.867-8.347 5.12-4.325 14.402-13.36 18.659-18.203l.003-.003c2.459-2.755 4.395-4.457 7.287-5.625 2.862-1.156 6.63-1.779 12.717-2.47h.001c2.521-.28 4.378-.612 5.735-1.028 1.36-.418 2.167-.905 2.641-1.457l.008-.009c.136-.15.46-.617.889-1.283.418-.649.912-1.448 1.378-2.23l.001-.001c.423-.703.737-1.23.961-1.629.19-.34.298-.562.353-.708a4.05 4.05 0 0 0-.096-.023l-.01-.002c-.284-.07-1.484-.328-3.048-.662l-2.824-.606h-.003c-6.118-1.349-11.572-2.737-15.569-4.015-2.231-.705-3.792-1.055-5.492-1.104-1.709-.05-3.585.203-6.449.744-2.966.577-4.716.886-5.86.93-.581.022-1.041-.022-1.443-.15-.407-.13-.72-.337-1.02-.584-.428-.347-.696-.861-.854-1.444-.159-.585-.219-1.28-.202-2.04.033-1.52.376-3.383.943-5.338 1.134-3.907 3.194-8.296 5.632-11.225 1.995-2.411 3.095-3.306 9.427-7.94 2.955-2.165 4.645-3.814 5.473-5.55.816-1.709.83-3.578.222-6.282-1.764-7.883-7.497-14.434-14.823-16.92h-.001c-2.59-.885-4.359-.988-5.614-.495-.438.18-.826.602-1.133 1.625-.31 1.032-.505 2.58-.617 4.856ZM413.21 98.77l-.002.006c-.771 2.895-.711 4.632.082 6.317l.002.004c.691 1.503 1.589 2.48 2.916 3.099 1.354.631 3.197.912 5.817.912 5.631 0 9.528-1.294 12.097-3.857.883-.881 1.465-1.713 1.827-2.651.364-.94.519-2.022.501-3.423-.071-5.3-4.556-10.452-10.762-12.054l-.006-.002c-1.58-.426-2.678-.595-3.541-.54-.835.054-1.473.32-2.133.826-1.205.955-2.657 2.81-3.943 4.95-1.284 2.136-2.365 4.494-2.855 6.414ZM386.952 103.433l-.063-.01c-.036.009-.077.017-.119.026-.115.023-.272.051-.457.082-.371.062-.873.137-1.42.213a9.888 9.888 0 0 0-1.573.36c-.505.159-.902.329-1.109.461-.402.268-.926.825-1.516 1.627-.583.792-1.203 1.783-1.802 2.875-1.201 2.188-2.297 4.739-2.847 6.839-.642 2.491-.692 4.603-.241 6.206.446 1.586 1.379 2.673 2.746 3.188l.002.001c.331.126 1.041.265 2.096.403 1.035.136 2.353.265 3.861.383 3.016.236 6.777.43 10.532.556 3.754.126 7.496.185 10.475.151a74.75 74.75 0 0 0 3.79-.122c1.029-.067 1.696-.158 1.98-.254.644-.226 1.035-.508 1.219-.756a.576.576 0 0 0 .128-.299.452.452 0 0 0-.075-.272l-.004-.008c-.539-.931-2.432-3.414-4.56-6.047-2.117-2.622-4.421-5.339-5.755-6.725l-.002-.002c-5.03-5.278-8.915-7.736-13.228-8.532a82.703 82.703 0 0 0-1.578-.269l-.48-.075ZM47.244 124.602c-.775.562-1.85 1.708-2.337 2.54-1.69 2.926-2.3 7.41-1.921 11.656.188 2.115.62 4.145 1.271 5.865.652 1.725 1.51 3.101 2.525 3.951.284.234.97.672 1.88 1.208a87.568 87.568 0 0 0 3.02 1.69c3.557 1.84 6.244 3.942 8.435 6.822 2.186 2.874 3.857 6.497 5.421 11.348v.001c6.59 20.58 11.115 31.025 22.2 51.16 3.123 5.61 7.227 9.365 22.839 20.485l1.106.786c5.795 4.121 8.743 6.216 10.449 7.314.905.583 1.432.865 1.832 1.021.381.149.659.189 1.108.253l.024.003.005.001c2.261.349 4.61-.41 6.404-1.813 1.795-1.403 2.977-3.403 2.995-5.476 0-.452-.029-.816-.141-1.224-.114-.413-.321-.895-.703-1.566-.771-1.355-2.205-3.397-4.874-7.091l-.001-.001c-7.956-11.081-9.772-14.482-11.145-20.911v-.002c-1.821-8.634-6.212-18.341-13.735-30.363v-.001c-4.588-7.367-7.675-11.116-15.758-19.367-5.478-5.577-8.651-9.154-10.888-12.292-3.905-5.455-10.923-12.795-19.987-20.866-1.971-1.751-3.45-3.06-4.604-4.014-1.16-.96-1.96-1.531-2.576-1.83-.592-.287-.972-.302-1.33-.195-.409.123-.84.417-1.514.908ZM423.02 134.118l-.002.002c-2.129 2.706-4.419 5.32-6.429 7.377a43.456 43.456 0 0 1-2.762 2.621c-.807.689-1.526 1.215-2.087 1.479-1.277.617-2.473.864-3.974.652-1.47-.207-3.213-.852-5.6-1.958-3.277-1.494-5.462-2.309-7.431-2.607-1.952-.294-3.725-.085-6.186.542h-.001c-3.529.899-7.222 2.738-10.33 4.985-3.116 2.252-5.591 4.877-6.741 7.313l-.002.005c-.507 1.049-.743 1.673-.802 2.17-.055.459.037.847.317 1.439l.002.005c.207.453.494.815.968 1.124.489.317 1.195.592 2.261.826 2.141.471 5.575.751 11.227 1.013h.001c9.291.449 13.058 1.01 16.307 2.476l.005.002c1.395.648 2.434 1.275 3.361 2.17.923.89 1.71 2.023 2.637 3.646 2.049 3.563 3.353 5.626 4.491 6.869.561.613 1.07 1.013 1.595 1.292.526.279 1.091.449 1.781.574.309.055.837.071 1.538.043.692-.029 1.52-.1 2.411-.207 1.783-.213 3.795-.565 5.438-.988l.002-.001c4.178-1.055 8.534-3.91 12.114-7.624 3.578-3.713 6.334-8.237 7.359-12.579.477-2.086.546-3.63.091-5.225-.462-1.615-1.474-3.332-3.267-5.735l-.002-.002c-1.339-1.811-5.048-5.627-8.582-9.007-1.761-1.685-3.466-3.249-4.794-4.388a29.793 29.793 0 0 0-1.653-1.34 5.807 5.807 0 0 0-.478-.323l-.066.069c-.167.179-.397.439-.674.764a73.346 73.346 0 0 0-2.043 2.526Zm2.615-3.444.005.001-.005-.001ZM283.863 195.025h.002c3.732-.206 6.3-.432 8.106-.76 1.801-.328 2.917-.771 3.678-1.465.358-.326.651-.676.835-1.1.186-.429.242-.894.188-1.424-.103-1.023-.63-2.369-1.543-4.34m-11.266 9.089 10.812-8.879m-10.812 8.879c-7.321.373-10.569 1.115-14.183 3.118-4.457 2.478-7.025 5.415-10.941 12.558-1.295 2.396-2.259 3.946-3.417 5.144-1.165 1.207-2.5 2.032-4.485 3.031l-.001.001c-1.056.527-3.949 1.521-6.998 2.471-3.063.955-6.354 1.887-8.234 2.284l-.003.001c-1.104.227-2.455.823-3.772 1.634-1.313.807-2.557 1.806-3.456 2.811-2.042 2.291-3.778 5.444-5.568 10.167l61.058-43.22Zm11.266-9.089-.454.21m.454-.21.001.002-.455.208m.454-.21c-1.371-2.994-1.867-5.247-1.508-7.283.358-2.035 1.585-3.946 3.881-6.217m-2.827 13.71c-2.775-6.06-2.175-9.464 2.475-14.066m.352.356-.001.001-.351-.357m.352.356-.352-.356m.352.356c2.777-2.734 5.462-4.6 8.276-5.766 1.826-.74 3.614-.942 4.914-.718.65.112 1.144.325 1.466.595.308.26.467.578.467.969 0 .203.071.924.172 1.868.103.965.244 2.211.394 3.502v.001c.939 7.944 2.676 13.32 5.413 16.325 1.555 1.726 3.181 2.756 5.249 3.077 2.04.317 4.453-.066 7.568-1.026a36.732 36.732 0 0 1 2.674-.705c.371-.08.68-.137.909-.166.115-.015.201-.022.26-.023l.025-.001c.093.051.186.167.201.477.017.355-.085.856-.32 1.442-.467 1.165-1.393 2.506-2.522 3.421l-.005.004c-.871.724-3.768 2.69-6.47 4.375l-.002.001c-4.641 2.931-7.463 4.909-9.118 6.685-.837.898-1.388 1.758-1.727 2.677-.337.917-.451 1.864-.451 2.92v.006c.04 2.958.979 5.165 5.279 12.662 4.293 7.481 6.813 12.668 7.905 16.775 1.083 4.07.761 7.065-.652 10.191-1.859 4.108-4.167 6.622-14.567 15.424l-.004.003c-2.505 2.163-5.39 4.847-6.325 6.012-2.188 2.681-4.542 7.46-5.532 11.299-.54 2.058-.869 5.368-.977 9.01-.109 3.651.004 7.676.363 11.18v.001c.282 2.721.378 4.341.249 5.456-.122 1.061-.445 1.647-1.053 2.305-2.061 2.158-5.88 3.284-13.304 3.546h-.001c-6.742.26-12.175-.259-19.15-1.747h-.002l-.104.489c-7.725-1.684-9.225-1.833-19.312-2.282l49.462-140.62M239.3 311.694c1.58.189 3.937.3 8.41.506l-25.372-74.131c-1.5 4.003-2.175 4.564-4.538 3.966l-.121.485-.002-.001c-.503-.126-1.435-.511-2.501-1.003a67.43 67.43 0 0 1-3.536-1.771c-3.733-1.965-6.061-3.153-7.693-3.879-1.624-.723-2.529-.974-3.416-1.078-1.549-.176-2.518.146-3.198 1.006-.728.92-1.199 2.538-1.46 5.167-.739 7.708 1.706 20.679 6.535 34.01v.001c3.389 9.4 7.589 16.107 14.133 22.635 5.627 5.614 13.37 10.954 19.099 13.129l.003.001c1.326.515 2.109.772 3.657.957ZM2.64 186.903h-.002c-.896.393-1.446.812-1.75 1.263-.294.433-.397.951-.282 1.638v.002c.162.987.677 2.172 1.625 3.601.946 1.425 2.306 3.066 4.125 4.962 3.638 3.792 9.074 8.564 16.607 14.621 9.772 7.873 24.946 22.522 31.87 30.781 6.58 7.838 9.47 13.13 10.163 18.626v.003c.704 5.833 1.653 8.656 5.614 16.634v.001c2.987 6.033 7.24 13.045 11.406 19.072 4.179 6.044 8.229 11.036 10.807 13.079l.003.002c.955.769 5.546 3.972 10.204 7.12l.001.001c13.418 9.123 22.803 16.298 26.635 20.424l.002.001c.889.964 2.556 3.197 3.688 4.928l.003.005c3.349 5.234 5.919 7.066 9.219 7.101.649 0 1.092-.055 1.472-.184.376-.127.725-.34 1.166-.709.478-.405.828-.76 1.105-1.192.278-.43.5-.962.685-1.735.377-1.571.581-4.036.845-8.466.977-16.302 3.234-24.982 8.452-32.429l.003-.004c2.128-2.964 2.944-5.333 2.944-8.163 0-2.209-.712-4.1-2.037-5.491l-.003-.003c-.766-.819-1.259-1.215-2.03-1.466-.819-.266-1.968-.377-4.086-.509-3.096-.188-4.931-.409-7.374-2.022-2.382-1.574-5.359-4.481-10.834-9.943-4.995-4.945-10.225-9.937-11.588-11.04l-.006-.005c-1.366-1.141-6.707-4.98-11.888-8.538-17.233-11.873-20.556-14.547-33.63-27.477-10.703-10.565-14.695-13.84-28.627-23.815-5.36-3.815-11.223-8.125-13.037-9.596-4.516-3.648-6.171-4.747-10.29-6.747l-.005-.002c-3.953-1.962-8.402-3.435-12.307-4.217-1.952-.391-3.758-.607-5.291-.628-1.544-.021-2.765.156-3.577.516ZM469.066 235.281l-.003.003c-3.408 3.345-6.639 8.502-9.042 14.011-2.403 5.51-3.953 11.315-4.046 15.941-.037 3.764.633 5.821 2.266 7.247l.007.005c1.373 1.24 2.868 1.704 4.415 1.521 1.565-.184 3.239-1.038 4.924-2.546 3.373-3.019 6.664-8.547 9.05-15.928 1.9-5.872 2.638-10.047 2.638-15.184v-.003c.019-2.455-.131-4.295-.463-5.638-.332-1.342-.83-2.123-1.456-2.549l-.009-.006c-.396-.283-1.14-.459-2.046-.445-.884.013-1.829.205-2.577.559-.31.165-.881.573-1.563 1.129a28.625 28.625 0 0 0-2.095 1.883ZM417.479 244.282l-.016.003-.018.003c-.517.074-5.572.895-11.239 1.831-5.658.935-13.676 2.392-17.791 3.251h-.001c-3.5.728-5.483 1.126-7.229 1.33-1.756.206-3.266.214-5.816.177-3.704-.038-7.927-.415-12.929-1.165l-7.157-1.01-.983 1.107-.001.001c-3.386 3.847-3.111 8.678.322 11.041h.001c3.252 2.247 7.026 2.756 15.447 1.86 2.501-.293 8.795-.977 15.367-1.69l5.447-.592c8.247-.897 16.695-1.759 18.768-1.909l.005-.001c1.186-.074 2.225-.193 3.068-.348.853-.156 1.469-.342 1.833-.532l.007-.003c.805-.402 1.745-1.177 2.709-2.197.958-1.013 1.915-2.242 2.76-3.519.844-1.278 1.569-2.593 2.066-3.778.504-1.201.749-2.207.702-2.891v-.002l-.078-1.038-1.981-.03-.006-.001a35.845 35.845 0 0 0-1.968 0c-.613.019-1.076.056-1.289.102ZM340.994 286.818l-.001.001c-.619 3.784-1.102 6.21-1.978 8.862-.872 2.645-2.131 5.504-4.286 10.159-1.533 3.299-2.164 5.615-1.977 7.421.181 1.754 1.147 3.117 3.082 4.489.684.46 1.116.702 1.589.838.477.137 1.032.177 1.98.158h.004c1.465-.017 3.11-.485 5.388-1.686 2.282-1.203 5.163-3.12 9.097-5.998h.001c3.428-2.505 5.65-4.062 7.292-5.031 1.654-.975 2.749-1.371 3.922-1.533.862-.118 1.656.049 2.358.514.69.458 1.256 1.182 1.721 2.121.925 1.87 1.511 4.727 1.812 8.52l.001.003c.205 2.813.483 4.72 1.027 6.411.542 1.686 1.358 3.185 2.677 5.169 2.3 3.414 5.059 5.934 8.576 7.72 3.525 1.79 7.835 2.855 13.251 3.32h.002c.319.028.595.057.837.083.433.045.754.079 1.017.076.194-.002.286-.026.328-.046.021-.01.036-.018.057-.066.03-.069.061-.202.068-.449a8.47 8.47 0 0 0-.049-.968c-.053-.555-.142-1.251-.254-2.132-.056-.433-.117-.91-.182-1.438-1.346-10.816-4.369-19.987-8.187-24.932l-.004-.004c-1.893-2.507-3.405-3.739-8.072-6.57l-.003-.002c-3.478-2.138-6.201-4.023-8.159-5.663-1.937-1.623-3.194-3.061-3.637-4.32-.249-.688.107-1.41.68-1.982.188-.187.384-.365.637-.5.257-.138.542-.215.892-.255.669-.077 1.688-.025 3.43.086 10.636.638 12.181.668 14.587.268a17.949 17.949 0 0 0 4.78-1.541c1.458-.711 2.605-1.539 3.192-2.309l.002-.003c.435-.56.652-.93.777-1.372.129-.46.168-1.034.168-2.025 0-1.274-.156-2.134-.528-2.839-.372-.705-.989-1.314-2.028-2.023-.717-.488-1.865-.908-3.399-1.231-1.524-.32-3.388-.535-5.503-.637-4.23-.204-9.429.046-14.86.791-8.535 1.2-12.754 1.101-17.215-.396h-.001c-2.598-.876-6.454-2.465-8.013-3.294a4.205 4.205 0 0 0-.313.111c-.307.12-.715.3-1.161.504-1.643.823-2.957 2.488-3.753 4.904-.139.434-.395 1.615-.702 3.212a207.203 207.203 0 0 0-.967 5.504ZM155.685 345.153l.005-.001c1.703-.646 4.019-.352 5.943.786l.009.005c1.601.903 3.08 2.666 5.597 6.638.638 1.029 1.109 1.709 1.704 2.251.598.544 1.294.926 2.331 1.415l.007.003c1.269.576 2.028.892 4.063 1.185 1.998.288 5.262.561 11.553 1.065 2.7.225 5.926.634 7.232.96l.005.001c1.604.382 3.602 1.152 5.409 2.034 1.819.889 3.378 1.86 4.141 2.622l.01.01v-.001l1.388 1.31.381.359.341-.397.67-.78c.503-.55 1.284-1.105 2.632-1.789 1.35-.685 3.234-1.482 5.912-2.528h.001l4.883-1.891 10.202 2.25-74.419-15.507Zm0 0c-2.653.977-4.882 3.186-6.248 5.857-1.365 2.67-1.839 5.746-1.057 8.422.605 2.061 2.185 4.403 4.238 6.461 2.049 2.053 4.521 3.772 6.853 4.62 3.07 1.119 7.66 1.927 12.596 2.323 4.929.396 10.164.376 14.511-.143l-30.893-27.54Zm30.893 27.54c4.207-.503 7.748-1.108 10.543-1.798 2.808-.694 4.817-1.462 5.997-2.27h-.001l.008-.005c.41-.27.733-.482.983-.632.23-.138.464-.267.672-.31a.689.689 0 0 1 .462.053c.183.094.273.25.315.367.041.11.054.224.06.311.007.091.008.193.008.292v-.001s.001.013.008.042a.866.866 0 0 0 .05.128c.052.111.135.252.256.422.242.339.603.757 1.067 1.235.927.954 2.227 2.105 3.697 3.288 2.945 2.37 6.519 4.821 9.074 6.031l.002.001c2.464 1.183 4.471 1.893 6.853 2.281 2.393.389 5.184.456 9.227.326 7.13-.226 11.776.152 22.777 1.801 4.021.597 7.239.902 9.664.929 1.212.014 2.214-.042 3.013-.161.806-.121 1.371-.302 1.732-.517l.001-.001c.386-.227.628-.433.753-.59a.514.514 0 0 0 .079-.124 1.144 1.144 0 0 1-.048-.689.73.73 0 0 1 .434-.496.726.726 0 0 0 .023-.08 3.8 3.8 0 0 0 .088-.882c0-.947-.368-2.105-1.076-3.39-.703-1.278-1.722-2.645-2.973-4-2.502-2.713-5.893-5.34-9.435-7.088l-.002-.001c-2.106-1.05-3.358-1.376-6.777-1.821-5.201-.64-10.549-1.693-24.007-4.684l-43.527 12.033Zm87.304 11.08-.001.008c.002-.006.002-.008.001-.008ZM425.05 375.192l-.011.004c-1.26.437-2.194.892-3.115 1.591-.93.704-1.867 1.671-3.116 3.159l-.003.003c-1.505 1.764-4.847 5.51-7.435 8.354l-.002.002c-2.584 2.801-5.383 6.004-6.236 7.077-2.11 2.752-3.405 5.302-3.881 7.49-.474 2.181-.13 3.962.98 5.271l.002.002c.978 1.168 2.534 1.598 4.938 1.094 2.414-.506 5.571-1.938 9.569-4.342 1.94-1.191 4.887-3.164 6.522-4.387 1.328-1.007 2.199-1.626 3.108-2.062.915-.439 1.846-.682 3.275-.982 4.328-.95 7.752-2.061 10.297-3.335 2.551-1.277 4.17-2.693 4.964-4.225.69-1.335.62-2.909-.087-4.575-.708-1.669-2.041-3.388-3.794-4.94-3.512-3.108-8.59-5.446-13.332-5.392h-.005c-.605 0-1.22.028-1.717.069-.249.02-.464.044-.632.068a3.366 3.366 0 0 0-.267.05l-.017.004-.005.002ZM343.668 391.729l-.007.003-.007.002c-1.263.408-2.51 1.131-3.53 1.992-1.025.865-1.784 1.837-2.119 2.721-.194.518-.38 1.796-.38 2.891 0 1.361.374 2.558 1.126 3.61.755 1.057 1.911 1.992 3.51 2.789l.003.002c3.458 1.761 6.845 1.88 9.34.804 2.475-1.066 4.128-3.328 4.146-6.495 0-2.563-.824-4.604-2.292-6.038-1.471-1.438-3.641-2.313-6.418-2.439l-.004-.001a20.984 20.984 0 0 0-2.067-.004c-.654.033-1.117.098-1.301.163Z" fill="#fff" stroke="#303030"/><circle cx="6" cy="330.5" r="3" fill="#FCB500"/><path d="M20.202 336.162c-.888 0-1.656-.186-2.304-.558a3.879 3.879 0 0 1-1.512-1.566c-.348-.684-.522-1.494-.522-2.43 0-.936.174-1.74.522-2.412a3.851 3.851 0 0 1 1.512-1.584c.648-.372 1.416-.558 2.304-.558.864 0 1.62.186 2.268.558.648.372 1.152.9 1.512 1.584.36.672.54 1.476.54 2.412 0 .936-.18 1.746-.54 2.43a3.879 3.879 0 0 1-1.512 1.566c-.648.372-1.404.558-2.268.558Zm0-1.404c.744 0 1.344-.27 1.8-.81.456-.54.684-1.32.684-2.34 0-1.02-.228-1.794-.684-2.322-.456-.54-1.056-.81-1.8-.81-.756 0-1.362.27-1.818.81-.456.528-.684 1.302-.684 2.322s.228 1.8.684 2.34c.456.54 1.062.81 1.818.81Zm7.065 1.314c-.36 0-.648-.108-.864-.324-.204-.216-.306-.492-.306-.828 0-.336.102-.606.306-.81.216-.216.504-.324.864-.324.348 0 .624.108.828.324.204.204.306.474.306.81 0 .336-.102.612-.306.828-.204.216-.48.324-.828.324Zm14.022.09c-1.284 0-2.382-.264-3.294-.792a5.304 5.304 0 0 1-2.106-2.25c-.48-.984-.72-2.142-.72-3.474 0-1.332.24-2.484.72-3.456a5.304 5.304 0 0 1 2.106-2.25c.912-.528 2.01-.792 3.294-.792.708 0 1.386.096 2.034.288.66.192 1.23.468 1.71.828.264.168.414.372.45.612a.825.825 0 0 1-.108.63c-.108.18-.27.3-.486.36-.216.06-.456 0-.72-.18a4.337 4.337 0 0 0-1.332-.666 5.053 5.053 0 0 0-1.494-.216c-1.368 0-2.412.42-3.132 1.26-.72.84-1.08 2.034-1.08 3.582s.36 2.748 1.08 3.6c.72.84 1.764 1.26 3.132 1.26.528 0 1.032-.072 1.512-.216a4.526 4.526 0 0 0 1.386-.684c.264-.168.498-.222.702-.162.204.048.36.162.468.342.108.18.144.384.108.612-.036.216-.162.402-.378.558a5.328 5.328 0 0 1-1.764.9 7.031 7.031 0 0 1-2.088.306Zm8.157 3.204c-.336 0-.57-.126-.702-.378-.12-.24-.108-.522.036-.846l1.062-2.376-3.204-7.434c-.144-.324-.15-.612-.018-.864.144-.252.42-.378.828-.378.216 0 .39.054.522.162.144.108.27.294.378.558l2.466 6.084 2.502-6.084c.108-.276.234-.462.378-.558.144-.108.342-.162.594-.162.324 0 .546.126.666.378s.114.534-.018.846l-4.5 10.35c-.12.276-.258.462-.414.558-.144.096-.336.144-.576.144Zm8.285-3.24c-.54 0-.81-.288-.81-.864v-7.2c0-.648.276-.972.828-.972.264 0 .468.066.612.198.144.132.264.282.36.45l2.88 5.04 2.862-5.04c.108-.18.234-.33.378-.45.144-.132.342-.198.594-.198.552 0 .828.324.828.972v7.2c0 .576-.27.864-.81.864-.528 0-.792-.288-.792-.864v-5.22l-2.43 4.212c-.06.108-.138.204-.234.288a.58.58 0 0 1-.396.126c-.18 0-.318-.042-.414-.126a2.252 2.252 0 0 1-.216-.288l-2.448-4.212v5.22c0 .576-.264.864-.792.864Zm14.092.036c-.612 0-1.158-.12-1.638-.36a3.049 3.049 0 0 1-1.152-.972 2.416 2.416 0 0 1-.414-1.386c0-.648.162-1.158.486-1.53.336-.372.882-.642 1.638-.81.768-.168 1.8-.252 3.096-.252h.612v-.468c0-.684-.144-1.176-.432-1.476-.288-.3-.762-.45-1.422-.45-.384 0-.786.048-1.206.144a5.645 5.645 0 0 0-1.278.486c-.252.12-.462.138-.63.054a.671.671 0 0 1-.324-.396.814.814 0 0 1 .018-.558c.072-.192.222-.336.45-.432a7.498 7.498 0 0 1 1.566-.522 6.45 6.45 0 0 1 1.458-.18c1.2 0 2.088.288 2.664.864.576.564.864 1.452.864 2.664v4.626c0 .612-.282.918-.846.918-.576 0-.864-.306-.864-.918v-.666c-.216.504-.552.9-1.008 1.188-.456.288-1.002.432-1.638.432Zm.36-1.296c.648 0 1.188-.228 1.62-.684.432-.456.648-1.032.648-1.728v-.486h-.594c-.876 0-1.566.042-2.07.126-.492.084-.846.228-1.062.432-.204.192-.306.462-.306.81 0 .456.156.828.468 1.116.312.276.744.414 1.296.414Zm9.447 1.26c-.612 0-.918-.306-.918-.918v-6.534h-2.448c-.528 0-.792-.246-.792-.738 0-.48.264-.72.792-.72h6.714c.528 0 .792.24.792.72 0 .492-.264.738-.792.738H82.53v6.534c0 .612-.3.918-.9.918Zm6.39 3.24c-.6 0-.9-.306-.9-.918v-10.44c0-.612.294-.918.882-.918.6 0 .9.306.9.918v.684a2.86 2.86 0 0 1 1.17-1.188c.516-.3 1.104-.45 1.764-.45.78 0 1.458.186 2.034.558.588.372 1.038.9 1.35 1.584.324.672.486 1.476.486 2.412 0 .936-.162 1.746-.486 2.43-.312.684-.762 1.212-1.35 1.584-.576.36-1.254.54-2.034.54-.648 0-1.23-.138-1.746-.414a2.92 2.92 0 0 1-1.152-1.17v3.87c0 .612-.306.918-.918.918Zm3.366-4.608c.756 0 1.356-.27 1.8-.81.456-.54.684-1.32.684-2.34 0-1.02-.228-1.794-.684-2.322-.444-.54-1.044-.81-1.8-.81s-1.362.27-1.818.81c-.444.528-.666 1.302-.666 2.322s.222 1.8.666 2.34c.456.54 1.062.81 1.818.81Zm9.371 1.404c-.612 0-1.159-.12-1.639-.36a3.049 3.049 0 0 1-1.151-.972 2.416 2.416 0 0 1-.415-1.386c0-.648.162-1.158.486-1.53.337-.372.883-.642 1.639-.81.768-.168 1.8-.252 3.096-.252h.612v-.468c0-.684-.144-1.176-.432-1.476-.288-.3-.762-.45-1.422-.45-.384 0-.786.048-1.206.144a5.64 5.64 0 0 0-1.279.486c-.252.12-.462.138-.63.054a.671.671 0 0 1-.323-.396.814.814 0 0 1 .017-.558c.073-.192.222-.336.45-.432a7.493 7.493 0 0 1 1.567-.522 6.45 6.45 0 0 1 1.458-.18c1.2 0 2.088.288 2.664.864.576.564.864 1.452.864 2.664v4.626c0 .612-.282.918-.846.918-.576 0-.864-.306-.864-.918v-.666c-.216.504-.552.9-1.008 1.188-.456.288-1.002.432-1.638.432Zm.36-1.296c.648 0 1.188-.228 1.62-.684.432-.456.648-1.032.648-1.728v-.486h-.594c-.876 0-1.566.042-2.07.126-.492.084-.847.228-1.063.432-.204.192-.305.462-.305.81 0 .456.156.828.468 1.116.312.276.744.414 1.296.414Z" fill="#303030"/><circle cx="122" cy="387.5" r="3" fill="#FCB500"/><path d="M136.202 393.162c-.888 0-1.656-.186-2.304-.558a3.879 3.879 0 0 1-1.512-1.566c-.348-.684-.522-1.494-.522-2.43 0-.936.174-1.74.522-2.412a3.851 3.851 0 0 1 1.512-1.584c.648-.372 1.416-.558 2.304-.558.864 0 1.62.186 2.268.558.648.372 1.152.9 1.512 1.584.36.672.54 1.476.54 2.412 0 .936-.18 1.746-.54 2.43a3.879 3.879 0 0 1-1.512 1.566c-.648.372-1.404.558-2.268.558Zm0-1.404c.744 0 1.344-.27 1.8-.81.456-.54.684-1.32.684-2.34 0-1.02-.228-1.794-.684-2.322-.456-.54-1.056-.81-1.8-.81-.756 0-1.362.27-1.818.81-.456.528-.684 1.302-.684 2.322s.228 1.8.684 2.34c.456.54 1.062.81 1.818.81Zm7.065 1.314c-.36 0-.648-.108-.864-.324-.204-.216-.306-.492-.306-.828 0-.336.102-.606.306-.81.216-.216.504-.324.864-.324.348 0 .624.108.828.324.204.204.306.474.306.81 0 .336-.102.612-.306.828-.204.216-.48.324-.828.324Zm16.668.054c-.624 0-.936-.318-.936-.954v-4.41h-1.854c-.516 0-.942.084-1.278.252-.324.156-.612.468-.864.936l-1.962 3.6c-.156.288-.36.468-.612.54a.9.9 0 0 1-.684-.054.9.9 0 0 1-.432-.504c-.084-.228-.048-.492.108-.792l1.512-2.772c.384-.708.852-1.164 1.404-1.368-.96-.192-1.704-.594-2.232-1.206-.528-.612-.792-1.398-.792-2.358 0-1.176.372-2.088 1.116-2.736.744-.66 1.8-.99 3.168-.99h4.266c.66 0 .99.336.99 1.008v10.854c0 .636-.306.954-.918.954Zm-4.032-6.768h3.096v-4.554h-3.096c-1.848 0-2.772.756-2.772 2.268 0 1.524.924 2.286 2.772 2.286ZM164.61 393c-.612 0-.918-.306-.918-.918v-6.93c0-.624.306-.936.918-.936h3.564c1.08 0 1.866.204 2.358.612.504.396.756.96.756 1.692 0 .456-.132.858-.396 1.206-.252.336-.6.582-1.044.738.552.132.978.384 1.278.756.3.372.45.816.45 1.332 0 .756-.282 1.356-.846 1.8-.564.432-1.368.648-2.412.648h-3.708Zm.792-5.058h2.646c.492 0 .87-.114 1.134-.342.276-.228.414-.54.414-.936 0-.408-.138-.72-.414-.936-.264-.216-.642-.324-1.134-.324h-2.646v2.538Zm0 3.888h2.808c1.128 0 1.692-.456 1.692-1.368 0-.9-.564-1.35-1.692-1.35h-2.808v2.718Zm11.118 1.332c-.612 0-1.158-.12-1.638-.36a3.049 3.049 0 0 1-1.152-.972 2.416 2.416 0 0 1-.414-1.386c0-.648.162-1.158.486-1.53.336-.372.882-.642 1.638-.81.768-.168 1.8-.252 3.096-.252h.612v-.468c0-.684-.144-1.176-.432-1.476-.288-.3-.762-.45-1.422-.45-.384 0-.786.048-1.206.144a5.645 5.645 0 0 0-1.278.486c-.252.12-.462.138-.63.054a.671.671 0 0 1-.324-.396.814.814 0 0 1 .018-.558c.072-.192.222-.336.45-.432a7.498 7.498 0 0 1 1.566-.522 6.45 6.45 0 0 1 1.458-.18c1.2 0 2.088.288 2.664.864.576.564.864 1.452.864 2.664v4.626c0 .612-.282.918-.846.918-.576 0-.864-.306-.864-.918v-.666c-.216.504-.552.9-1.008 1.188-.456.288-1.002.432-1.638.432Zm.36-1.296c.648 0 1.188-.228 1.62-.684.432-.456.648-1.032.648-1.728v-.486h-.594c-.876 0-1.566.042-2.07.126-.492.084-.846.228-1.062.432-.204.192-.306.462-.306.81 0 .456.156.828.468 1.116.312.276.744.414 1.296.414Z" fill="#303030"/><circle cx="243" cy="397.5" r="3" fill="#FCB500"/><path d="M257.202 403.162c-.888 0-1.656-.186-2.304-.558a3.879 3.879 0 0 1-1.512-1.566c-.348-.684-.522-1.494-.522-2.43 0-.936.174-1.74.522-2.412a3.851 3.851 0 0 1 1.512-1.584c.648-.372 1.416-.558 2.304-.558.864 0 1.62.186 2.268.558.648.372 1.152.9 1.512 1.584.36.672.54 1.476.54 2.412 0 .936-.18 1.746-.54 2.43a3.879 3.879 0 0 1-1.512 1.566c-.648.372-1.404.558-2.268.558Zm0-1.404c.744 0 1.344-.27 1.8-.81.456-.54.684-1.32.684-2.34 0-1.02-.228-1.794-.684-2.322-.456-.54-1.056-.81-1.8-.81-.756 0-1.362.27-1.818.81-.456.528-.684 1.302-.684 2.322s.228 1.8.684 2.34c.456.54 1.062.81 1.818.81Zm7.065 1.314c-.36 0-.648-.108-.864-.324-.204-.216-.306-.492-.306-.828 0-.336.102-.606.306-.81.216-.216.504-.324.864-.324.348 0 .624.108.828.324.204.204.306.474.306.81 0 .336-.102.612-.306.828-.204.216-.48.324-.828.324Zm9.342-.072c-.672 0-1.008-.336-1.008-1.008v-10.674c0-.672.336-1.008 1.008-1.008h6.894c.516 0 .774.246.774.738 0 .516-.258.774-.774.774h-6.102v3.942h3.708c1.332 0 2.37.306 3.114.918.756.6 1.134 1.494 1.134 2.682s-.378 2.094-1.134 2.718c-.744.612-1.782.918-3.114.918h-4.5Zm.792-1.512h3.492c1.764 0 2.646-.702 2.646-2.106s-.882-2.106-2.646-2.106h-3.492v4.212Zm12.906 1.674c-.612 0-1.158-.12-1.638-.36a3.049 3.049 0 0 1-1.152-.972 2.416 2.416 0 0 1-.414-1.386c0-.648.162-1.158.486-1.53.336-.372.882-.642 1.638-.81.768-.168 1.8-.252 3.096-.252h.612v-.468c0-.684-.144-1.176-.432-1.476-.288-.3-.762-.45-1.422-.45-.384 0-.786.048-1.206.144a5.645 5.645 0 0 0-1.278.486c-.252.12-.462.138-.63.054a.671.671 0 0 1-.324-.396.814.814 0 0 1 .018-.558c.072-.192.222-.336.45-.432a7.498 7.498 0 0 1 1.566-.522 6.45 6.45 0 0 1 1.458-.18c1.2 0 2.088.288 2.664.864.576.564.864 1.452.864 2.664v4.626c0 .612-.282.918-.846.918-.576 0-.864-.306-.864-.918v-.666c-.216.504-.552.9-1.008 1.188-.456.288-1.002.432-1.638.432Zm.36-1.296c.648 0 1.188-.228 1.62-.684.432-.456.648-1.032.648-1.728v-.486h-.594c-.876 0-1.566.042-2.07.126-.492.084-.846.228-1.062.432-.204.192-.306.462-.306.81 0 .456.156.828.468 1.116.312.276.744.414 1.296.414Zm13.569 1.26c-.6 0-.9-.306-.9-.918v-6.534h-3.186v1.062c0 1.788-.198 3.174-.594 4.158-.396.984-1.056 1.692-1.98 2.124-.252.108-.48.12-.684.036a.797.797 0 0 1-.522-.954c.06-.204.21-.378.45-.522.648-.372 1.08-.93 1.296-1.674.228-.756.342-1.83.342-3.222v-1.44c0-.684.342-1.026 1.026-1.026h4.644c.684 0 1.026.342 1.026 1.026v6.966c0 .612-.306.918-.918.918Zm4.499 0c-.564 0-.846-.324-.846-.972v-7.182c0-.588.276-.882.828-.882.552 0 .828.294.828.882v5.616l4.41-5.904c.108-.156.24-.294.396-.414.156-.12.372-.18.648-.18.552 0 .828.324.828.972v7.182c0 .588-.27.882-.81.882-.564 0-.846-.294-.846-.882v-5.598l-4.41 5.904c-.108.144-.24.276-.396.396-.156.12-.366.18-.63.18Z" fill="#303030"/><circle cx="340" cy="352.5" r="3" fill="#FCB500"/><path d="M354.202 358.162c-.888 0-1.656-.186-2.304-.558a3.879 3.879 0 0 1-1.512-1.566c-.348-.684-.522-1.494-.522-2.43 0-.936.174-1.74.522-2.412a3.851 3.851 0 0 1 1.512-1.584c.648-.372 1.416-.558 2.304-.558.864 0 1.62.186 2.268.558.648.372 1.152.9 1.512 1.584.36.672.54 1.476.54 2.412 0 .936-.18 1.746-.54 2.43a3.879 3.879 0 0 1-1.512 1.566c-.648.372-1.404.558-2.268.558Zm0-1.404c.744 0 1.344-.27 1.8-.81.456-.54.684-1.32.684-2.34 0-1.02-.228-1.794-.684-2.322-.456-.54-1.056-.81-1.8-.81-.756 0-1.362.27-1.818.81-.456.528-.684 1.302-.684 2.322s.228 1.8.684 2.34c.456.54 1.062.81 1.818.81Zm7.065 1.314c-.36 0-.648-.108-.864-.324-.204-.216-.306-.492-.306-.828 0-.336.102-.606.306-.81.216-.216.504-.324.864-.324.348 0 .624.108.828.324.204.204.306.474.306.81 0 .336-.102.612-.306.828-.204.216-.48.324-.828.324Zm14.022.09c-1.284 0-2.382-.264-3.294-.792a5.304 5.304 0 0 1-2.106-2.25c-.48-.984-.72-2.142-.72-3.474 0-1.332.24-2.484.72-3.456a5.304 5.304 0 0 1 2.106-2.25c.912-.528 2.01-.792 3.294-.792.708 0 1.386.096 2.034.288.66.192 1.23.468 1.71.828.264.168.414.372.45.612a.825.825 0 0 1-.108.63c-.108.18-.27.3-.486.36-.216.06-.456 0-.72-.18a4.337 4.337 0 0 0-1.332-.666 5.053 5.053 0 0 0-1.494-.216c-1.368 0-2.412.42-3.132 1.26-.72.84-1.08 2.034-1.08 3.582s.36 2.748 1.08 3.6c.72.84 1.764 1.26 3.132 1.26.528 0 1.032-.072 1.512-.216a4.526 4.526 0 0 0 1.386-.684c.264-.168.498-.222.702-.162.204.048.36.162.468.342.108.18.144.384.108.612-.036.216-.162.402-.378.558a5.328 5.328 0 0 1-1.764.9 7.031 7.031 0 0 1-2.088.306Zm8.157 3.204c-.336 0-.57-.126-.702-.378-.12-.24-.108-.522.036-.846l1.062-2.376-3.204-7.434c-.144-.324-.15-.612-.018-.864.144-.252.42-.378.828-.378.216 0 .39.054.522.162.144.108.27.294.378.558l2.466 6.084 2.502-6.084c.108-.276.234-.462.378-.558.144-.108.342-.162.594-.162.324 0 .546.126.666.378s.114.534-.018.846l-4.5 10.35c-.12.276-.258.462-.414.558-.144.096-.336.144-.576.144Zm13.806-3.24c-.6 0-.9-.306-.9-.918v-6.534h-3.186v1.062c0 1.788-.198 3.174-.594 4.158-.396.984-1.056 1.692-1.98 2.124-.252.108-.48.12-.684.036a.797.797 0 0 1-.522-.954c.06-.204.21-.378.45-.522.648-.372 1.08-.93 1.296-1.674.228-.756.342-1.83.342-3.222v-1.44c0-.684.342-1.026 1.026-1.026h4.644c.684 0 1.026.342 1.026 1.026v6.966c0 .612-.306.918-.918.918Zm6.479.036c-.612 0-1.158-.12-1.638-.36a3.049 3.049 0 0 1-1.152-.972 2.416 2.416 0 0 1-.414-1.386c0-.648.162-1.158.486-1.53.336-.372.882-.642 1.638-.81.768-.168 1.8-.252 3.096-.252h.612v-.468c0-.684-.144-1.176-.432-1.476-.288-.3-.762-.45-1.422-.45-.384 0-.786.048-1.206.144a5.645 5.645 0 0 0-1.278.486c-.252.12-.462.138-.63.054a.671.671 0 0 1-.324-.396.814.814 0 0 1 .018-.558c.072-.192.222-.336.45-.432a7.498 7.498 0 0 1 1.566-.522 6.45 6.45 0 0 1 1.458-.18c1.2 0 2.088.288 2.664.864.576.564.864 1.452.864 2.664v4.626c0 .612-.282.918-.846.918-.576 0-.864-.306-.864-.918v-.666c-.216.504-.552.9-1.008 1.188-.456.288-1.002.432-1.638.432Zm.36-1.296c.648 0 1.188-.228 1.62-.684.432-.456.648-1.032.648-1.728v-.486h-.594c-.876 0-1.566.042-2.07.126-.492.084-.846.228-1.062.432-.204.192-.306.462-.306.81 0 .456.156.828.468 1.116.312.276.744.414 1.296.414Zm7.611 1.134c-.612 0-.918-.306-.918-.918v-6.93c0-.624.306-.936.918-.936h3.564c1.08 0 1.866.204 2.358.612.504.396.756.96.756 1.692 0 .456-.132.858-.396 1.206-.252.336-.6.582-1.044.738.552.132.978.384 1.278.756.3.372.45.816.45 1.332 0 .756-.282 1.356-.846 1.8-.564.432-1.368.648-2.412.648h-3.708Zm.792-5.058h2.646c.492 0 .87-.114 1.134-.342.276-.228.414-.54.414-.936 0-.408-.138-.72-.414-.936-.264-.216-.642-.324-1.134-.324h-2.646v2.538Zm0 3.888h2.808c1.128 0 1.692-.456 1.692-1.368 0-.9-.564-1.35-1.692-1.35h-2.808v2.718Zm12.432 1.332c-1.44 0-2.574-.402-3.402-1.206-.828-.816-1.242-1.926-1.242-3.33 0-.9.18-1.692.54-2.376a4.067 4.067 0 0 1 1.53-1.62c.648-.384 1.392-.576 2.232-.576 1.212 0 2.166.39 2.862 1.17.696.768 1.044 1.83 1.044 3.186 0 .408-.24.612-.72.612h-5.724c.132 1.824 1.098 2.736 2.898 2.736.36 0 .738-.042 1.134-.126.396-.096.78-.264 1.152-.504.252-.144.468-.192.648-.144a.55.55 0 0 1 .414.306c.084.156.096.336.036.54-.048.192-.186.36-.414.504a4.637 4.637 0 0 1-1.44.63 6.52 6.52 0 0 1-1.548.198Zm-.27-7.83c-.756 0-1.356.234-1.8.702-.444.468-.714 1.092-.81 1.872h4.914c-.036-.816-.252-1.446-.648-1.89-.396-.456-.948-.684-1.656-.684Zm9.879 7.83c-.9 0-1.68-.186-2.34-.558a3.972 3.972 0 0 1-1.512-1.602c-.36-.696-.54-1.512-.54-2.448 0-1.392.396-2.49 1.188-3.294.792-.804 1.86-1.206 3.204-1.206.42 0 .858.066 1.314.198.468.12.9.324 1.296.612.192.12.3.276.324.468a.733.733 0 0 1-.09.522.672.672 0 0 1-.378.324c-.168.048-.36.012-.576-.108a2.862 2.862 0 0 0-.882-.432 2.832 2.832 0 0 0-.864-.144c-.852 0-1.512.27-1.98.81-.456.528-.684 1.284-.684 2.268 0 .984.228 1.758.684 2.322.468.552 1.128.828 1.98.828a3.086 3.086 0 0 0 1.746-.558c.216-.12.402-.15.558-.09.168.06.288.174.36.342a.77.77 0 0 1 .072.522c-.024.18-.132.33-.324.45a3.797 3.797 0 0 1-1.26.594c-.444.12-.876.18-1.296.18Zm5.572-.036c-.564 0-.846-.324-.846-.972v-7.182c0-.588.276-.882.828-.882.552 0 .828.294.828.882v5.616l4.41-5.904c.108-.156.24-.294.396-.414.156-.12.372-.18.648-.18.552 0 .828.324.828.972v7.182c0 .588-.27.882-.81.882-.564 0-.846-.294-.846-.882v-5.598l-4.41 5.904c-.108.144-.24.276-.396.396-.156.12-.366.18-.63.18Z" fill="#303030"/><circle cx="191" cy="327.5" r="3" fill="#FCB500"/><path d="M205.202 333.162c-.888 0-1.656-.186-2.304-.558a3.879 3.879 0 0 1-1.512-1.566c-.348-.684-.522-1.494-.522-2.43 0-.936.174-1.74.522-2.412a3.851 3.851 0 0 1 1.512-1.584c.648-.372 1.416-.558 2.304-.558.864 0 1.62.186 2.268.558.648.372 1.152.9 1.512 1.584.36.672.54 1.476.54 2.412 0 .936-.18 1.746-.54 2.43a3.879 3.879 0 0 1-1.512 1.566c-.648.372-1.404.558-2.268.558Zm0-1.404c.744 0 1.344-.27 1.8-.81.456-.54.684-1.32.684-2.34 0-1.02-.228-1.794-.684-2.322-.456-.54-1.056-.81-1.8-.81-.756 0-1.362.27-1.818.81-.456.528-.684 1.302-.684 2.322s.228 1.8.684 2.34c.456.54 1.062.81 1.818.81Zm7.065 1.314c-.36 0-.648-.108-.864-.324-.204-.216-.306-.492-.306-.828 0-.336.102-.606.306-.81.216-.216.504-.324.864-.324.348 0 .624.108.828.324.204.204.306.474.306.81 0 .336-.102.612-.306.828-.204.216-.48.324-.828.324Zm9.27.054c-.624 0-.936-.318-.936-.954V321.12c0-.624.312-.936.936-.936.624 0 .936.312.936.936v4.716h2.034l3.348-5.166c.168-.264.366-.42.594-.468a.86.86 0 0 1 .648.108c.204.108.336.27.396.486.072.216.024.456-.144.72l-3.078 4.626c.504.192.948.492 1.332.9.384.396.726.894 1.026 1.494l1.602 3.294c.156.3.18.558.072.774a.819.819 0 0 1-.486.45.96.96 0 0 1-.684 0c-.24-.072-.426-.246-.558-.522l-1.512-3.222c-.324-.684-.702-1.17-1.134-1.458-.432-.3-.966-.45-1.602-.45h-1.854v4.77c0 .636-.312.954-.936.954Zm13.595.036c-.612 0-1.158-.12-1.638-.36a3.049 3.049 0 0 1-1.152-.972 2.416 2.416 0 0 1-.414-1.386c0-.648.162-1.158.486-1.53.336-.372.882-.642 1.638-.81.768-.168 1.8-.252 3.096-.252h.612v-.468c0-.684-.144-1.176-.432-1.476-.288-.3-.762-.45-1.422-.45-.384 0-.786.048-1.206.144a5.645 5.645 0 0 0-1.278.486c-.252.12-.462.138-.63.054a.671.671 0 0 1-.324-.396.814.814 0 0 1 .018-.558c.072-.192.222-.336.45-.432a7.498 7.498 0 0 1 1.566-.522 6.45 6.45 0 0 1 1.458-.18c1.2 0 2.088.288 2.664.864.576.564.864 1.452.864 2.664v4.626c0 .612-.282.918-.846.918-.576 0-.864-.306-.864-.918v-.666c-.216.504-.552.9-1.008 1.188-.456.288-1.002.432-1.638.432Zm.36-1.296c.648 0 1.188-.228 1.62-.684.432-.456.648-1.032.648-1.728v-.486h-.594c-.876 0-1.566.042-2.07.126-.492.084-.846.228-1.062.432-.204.192-.306.462-.306.81 0 .456.156.828.468 1.116.312.276.744.414 1.296.414Zm13.568 1.26c-.6 0-.9-.306-.9-.918v-6.534h-3.186v1.062c0 1.788-.198 3.174-.594 4.158-.396.984-1.056 1.692-1.98 2.124-.252.108-.48.12-.684.036a.797.797 0 0 1-.522-.954c.06-.204.21-.378.45-.522.648-.372 1.08-.93 1.296-1.674.228-.756.342-1.83.342-3.222v-1.44c0-.684.342-1.026 1.026-1.026h4.644c.684 0 1.026.342 1.026 1.026v6.966c0 .612-.306.918-.918.918Zm4.5 0c-.564 0-.846-.324-.846-.972v-7.182c0-.588.276-.882.828-.882.552 0 .828.294.828.882v5.616l4.41-5.904c.108-.156.24-.294.396-.414.156-.12.372-.18.648-.18.552 0 .828.324.828.972v7.182c0 .588-.27.882-.81.882-.564 0-.846-.294-.846-.882v-5.598l-4.41 5.904c-.108.144-.24.276-.396.396-.156.12-.366.18-.63.18Zm10.634 0c-.54 0-.81-.288-.81-.864v-7.2c0-.648.276-.972.828-.972.264 0 .468.066.612.198.144.132.264.282.36.45l2.88 5.04 2.862-5.04c.108-.18.234-.33.378-.45.144-.132.342-.198.594-.198.552 0 .828.324.828.972v7.2c0 .576-.27.864-.81.864-.528 0-.792-.288-.792-.864v-5.22l-2.43 4.212c-.06.108-.138.204-.234.288a.58.58 0 0 1-.396.126c-.18 0-.318-.042-.414-.126a2.252 2.252 0 0 1-.216-.288l-2.448-4.212v5.22c0 .576-.264.864-.792.864Zm14.092.036c-.612 0-1.158-.12-1.638-.36a3.049 3.049 0 0 1-1.152-.972 2.416 2.416 0 0 1-.414-1.386c0-.648.162-1.158.486-1.53.336-.372.882-.642 1.638-.81.768-.168 1.8-.252 3.096-.252h.612v-.468c0-.684-.144-1.176-.432-1.476-.288-.3-.762-.45-1.422-.45-.384 0-.786.048-1.206.144a5.645 5.645 0 0 0-1.278.486c-.252.12-.462.138-.63.054a.671.671 0 0 1-.324-.396.814.814 0 0 1 .018-.558c.072-.192.222-.336.45-.432a7.498 7.498 0 0 1 1.566-.522 6.45 6.45 0 0 1 1.458-.18c1.2 0 2.088.288 2.664.864.576.564.864 1.452.864 2.664v4.626c0 .612-.282.918-.846.918-.576 0-.864-.306-.864-.918v-.666c-.216.504-.552.9-1.008 1.188-.456.288-1.002.432-1.638.432Zm.36-1.296c.648 0 1.188-.228 1.62-.684.432-.456.648-1.032.648-1.728v-.486h-.594c-.876 0-1.566.042-2.07.126-.492.084-.846.228-1.062.432-.204.192-.306.462-.306.81 0 .456.156.828.468 1.116.312.276.744.414 1.296.414Zm7.611 1.26c-.612 0-.918-.306-.918-.918v-7.2c0-.612.306-.918.918-.918.6 0 .9.306.9.918v2.754h4.374v-2.754c0-.612.3-.918.9-.918.612 0 .918.306.918.918v7.2c0 .612-.306.918-.918.918-.6 0-.9-.306-.9-.918v-3.006h-4.374v3.006c0 .612-.3.918-.9.918Zm12.558 0c-.612 0-.918-.306-.918-.918v-6.534h-2.448c-.528 0-.792-.246-.792-.738 0-.48.264-.72.792-.72h6.714c.528 0 .792.24.792.72 0 .492-.264.738-.792.738h-2.448v6.534c0 .612-.3.918-.9.918Zm8.299.036c-.612 0-1.158-.12-1.638-.36a3.049 3.049 0 0 1-1.152-.972 2.416 2.416 0 0 1-.414-1.386c0-.648.162-1.158.486-1.53.336-.372.882-.642 1.638-.81.768-.168 1.8-.252 3.096-.252h.612v-.468c0-.684-.144-1.176-.432-1.476-.288-.3-.762-.45-1.422-.45-.384 0-.786.048-1.206.144a5.645 5.645 0 0 0-1.278.486c-.252.12-.462.138-.63.054a.671.671 0 0 1-.324-.396.814.814 0 0 1 .018-.558c.072-.192.222-.336.45-.432a7.498 7.498 0 0 1 1.566-.522 6.45 6.45 0 0 1 1.458-.18c1.2 0 2.088.288 2.664.864.576.564.864 1.452.864 2.664v4.626c0 .612-.282.918-.846.918-.576 0-.864-.306-.864-.918v-.666c-.216.504-.552.9-1.008 1.188-.456.288-1.002.432-1.638.432Zm.36-1.296c.648 0 1.188-.228 1.62-.684.432-.456.648-1.032.648-1.728v-.486h-.594c-.876 0-1.566.042-2.07.126-.492.084-.846.228-1.062.432-.204.192-.306.462-.306.81 0 .456.156.828.468 1.116.312.276.744.414 1.296.414Zm7.611 1.26c-.612 0-.918-.306-.918-.918v-7.2c0-.612.306-.918.918-.918.6 0 .9.306.9.918v2.754h4.374v-2.754c0-.612.3-.918.9-.918.612 0 .918.306.918.918v7.2c0 .612-.306.918-.918.918-.6 0-.9-.306-.9-.918v-3.006h-4.374v3.006c0 .612-.3.918-.9.918Z" fill="#303030"/></g><defs><clipPath id="a"><path fill="#fff" d="M0 0h480v410H0z"/></clipPath></defs></svg>