<svg width="36" height="40" viewBox="0 0 36 40" fill="none" xmlns="http://www.w3.org/2000/svg">
<path d="M27.526 10.0781C29.5634 10.443 31.2344 11.5367 32.5406 13.3594C33.69 14.9742 34.4737 17.0055 34.8911 19.4531C35.2574 21.693 35.23 23.932 34.8126 26.1719C34.1858 29.8695 32.9321 32.9688 31.0516 35.4688C28.8048 38.4898 25.9844 40 22.589 40C21.7527 40 20.8395 39.7398 19.8463 39.2188C19.1669 38.8023 18.4098 38.5938 17.5735 38.5938C16.7372 38.5938 15.981 38.8023 15.3008 39.2188C14.3076 39.7398 13.3944 40 12.5581 40C9.16269 40 6.34233 38.4898 4.09546 35.4688C2.21497 32.9688 0.961302 29.8695 0.334469 26.1719C-0.0828964 23.932 -0.110355 21.693 0.256017 19.4531C0.673382 17.0055 1.45712 14.9742 2.60644 13.3594C3.91267 11.5367 5.5837 10.443 7.6211 10.0781C8.87477 9.86953 10.5984 10.0523 12.7927 10.625C14.6732 11.1461 16.2665 11.7711 17.5728 12.5C18.879 11.7711 20.4723 11.1461 22.3528 10.625C24.5479 10.0523 26.2723 9.86953 27.526 10.0781ZM23.2158 6.875C22.4846 7.55234 21.5173 8.04688 20.3162 8.35938C19.4799 8.61953 18.5667 8.75 17.5735 8.75L16.3983 8.67188C16.294 7.94297 16.294 7.10938 16.3983 6.17188C16.6078 4.29688 17.208 2.86484 18.2004 1.875C18.9315 1.19766 19.8989 0.703125 21.1 0.390625C21.9363 0.130469 22.8494 0 23.8426 0L25.0179 0.078125L25.0963 1.25C25.0963 2.23984 24.9653 3.15078 24.7048 3.98438C24.3918 5.18203 23.896 6.14609 23.2158 6.875Z" fill="black"/>
</svg>
