<svg width="111" height="101" viewBox="0 0 111 101" fill="none" xmlns="http://www.w3.org/2000/svg">
<g clip-path="url(#clip0_301_165)">
<g filter="url(#filter0_d_301_165)">
<path d="M79.6827 57.4029C72.8883 49.1983 64.3002 44.6797 55.4999 44.6797C46.6997 44.6797 38.1114 49.1983 31.3174 57.4029C25.2104 64.7777 21.5645 74.0721 21.5645 82.2653C21.5645 86.2453 22.781 89.2769 25.1802 91.2762C27.5482 93.2496 30.6746 93.9172 34.1625 93.917C37.8739 93.917 41.995 93.1611 46.044 92.4182C49.5823 91.769 52.9242 91.1559 55.5001 91.1559C57.7234 91.1559 60.8581 91.7378 64.1762 92.3539C71.9309 93.7939 80.7206 95.4257 85.798 91.2034C88.2118 89.1962 89.4356 86.1889 89.4356 82.2653C89.4358 74.0721 85.7899 64.7777 79.6827 57.4029Z" fill="#FF8A00"/>
<path d="M80.3777 12.8511C77.8917 9.18527 74.332 7.08301 70.6112 7.08301C66.8901 7.08301 63.3306 9.18547 60.8446 12.8511C58.561 16.2186 57.3032 20.6409 57.3032 25.3034C57.3032 29.966 58.5608 34.3883 60.8446 37.7558C63.3306 41.4214 66.8903 43.5239 70.6112 43.5239C74.3322 43.5239 77.8917 41.4214 80.3777 37.7558C82.6613 34.3883 83.9191 29.966 83.9191 25.3034C83.9191 20.6409 82.6615 16.2184 80.3777 12.8511Z" fill="#FF8A00"/>
<path d="M50.156 12.8508C47.67 9.18502 44.1105 7.08276 40.3895 7.08276C36.6684 7.08276 33.1087 9.18522 30.6229 12.8508C28.3393 16.2183 27.0815 20.6406 27.0815 25.3032C27.0815 29.9658 28.3391 34.3881 30.6229 37.7556C33.1089 41.4214 36.6684 43.5238 40.3895 43.5238C44.1105 43.5238 47.67 41.4214 50.156 37.7556C52.4396 34.3881 53.6974 29.966 53.6974 25.3032C53.6972 20.6406 52.4396 16.2181 50.156 12.8508Z" fill="#FF8A00"/>
<path d="M105.405 41.452C104.402 38.0425 102.254 35.565 99.3564 34.4763C97.0242 33.6002 94.3917 33.7488 91.9436 34.8947C88.5699 36.4736 85.8124 39.734 84.3784 43.8397C83.2067 47.1948 83.0605 50.741 83.9672 53.8257C84.9694 57.2352 87.1175 59.7127 90.0157 60.8014C91.0186 61.1782 92.0768 61.3654 93.1521 61.3654C94.5775 61.3654 96.0331 61.0361 97.4286 60.383C100.802 58.8041 103.56 55.5437 104.994 51.4382V51.438C106.165 48.0831 106.312 44.5366 105.405 41.452Z" fill="#FF8A00"/>
<path d="M26.6222 43.8392C25.1881 39.7335 22.4305 36.4733 19.057 34.8944C16.6087 33.7484 13.976 33.6001 11.6441 34.476C8.74588 35.5649 6.59778 38.0423 5.59563 41.4517C4.68893 44.5363 4.83508 48.0827 6.00687 51.4376V51.4378C7.44117 55.5435 10.1985 58.8037 13.5721 60.3826C14.9677 61.0358 16.4231 61.365 17.8485 61.365C18.9239 61.365 19.9822 61.1776 20.985 60.801C23.8836 59.7121 26.0315 57.2347 27.0336 53.8253C27.9399 50.7409 27.7938 47.1945 26.6222 43.8392Z" fill="#FF8A00"/>
</g>
</g>
<defs>
<filter id="filter0_d_301_165" x="-0.992188" y="5.08276" width="112.985" height="98.8342" filterUnits="userSpaceOnUse" color-interpolation-filters="sRGB">
<feFlood flood-opacity="0" result="BackgroundImageFix"/>
<feColorMatrix in="SourceAlpha" type="matrix" values="0 0 0 0 0 0 0 0 0 0 0 0 0 0 0 0 0 0 127 0" result="hardAlpha"/>
<feOffset dy="4"/>
<feGaussianBlur stdDeviation="3"/>
<feComposite in2="hardAlpha" operator="out"/>
<feColorMatrix type="matrix" values="0 0 0 0 0 0 0 0 0 0 0 0 0 0 0 0 0 0 0.25 0"/>
<feBlend mode="normal" in2="BackgroundImageFix" result="effect1_dropShadow_301_165"/>
<feBlend mode="normal" in="SourceGraphic" in2="effect1_dropShadow_301_165" result="shape"/>
</filter>
<clipPath id="clip0_301_165">
<rect width="111" height="101" fill="white"/>
</clipPath>
</defs>
</svg>
