<svg width="26" height="26" fill="none" xmlns="http://www.w3.org/2000/svg"><path d="M24.375 12.929c0-.056 0-.12-.003-.193-.002-.206-.007-.437-.012-.683a38.175 38.175 0 0 0-.112-2.08c-.076-.916-.188-1.68-.34-2.254a3.543 3.543 0 0 0-2.496-2.501c-.719-.193-2.125-.313-4.106-.386-.942-.036-1.95-.059-2.958-.071-.353-.005-.68-.008-.975-.01h-.746c-.295.002-.622.005-.975.01-1.008.012-2.016.035-2.958.07-1.98.077-3.39.196-4.106.387a3.538 3.538 0 0 0-2.496 2.5c-.155.574-.264 1.339-.34 2.255a38.237 38.237 0 0 0-.112 2.08c-.007.246-.01.477-.012.683 0 .073-.003.137-.003.193v.142c0 .056 0 .12.003.193.002.206.007.437.012.683.02.708.056 1.414.112 2.08.076.916.188 1.68.34 2.254a3.538 3.538 0 0 0 2.496 2.501c.716.193 2.125.312 4.106.386.942.036 1.95.059 2.958.071.353.005.68.008.975.01h.746c.295-.002.622-.005.975-.01 1.008-.012 2.016-.035 2.958-.07 1.98-.077 3.39-.196 4.106-.387a3.534 3.534 0 0 0 2.496-2.5c.155-.575.264-1.339.34-2.256a38.18 38.18 0 0 0 .112-2.079c.007-.246.01-.477.012-.683 0-.074.003-.137.003-.193v-.142Zm-1.828.132c0 .053 0 .112-.003.18-.002.198-.007.417-.012.653a34.29 34.29 0 0 1-.107 1.978c-.069.817-.165 1.488-.284 1.937a1.708 1.708 0 0 1-1.204 1.206c-.533.142-1.876.256-3.702.325a115.139 115.139 0 0 1-3.872.079h-.726l-.96-.008a115.42 115.42 0 0 1-2.912-.071c-1.826-.071-3.171-.183-3.702-.325a1.713 1.713 0 0 1-1.204-1.206c-.119-.45-.215-1.12-.284-1.937a36.782 36.782 0 0 1-.107-1.978c-.007-.236-.01-.457-.012-.653 0-.068-.003-.13-.003-.18v-.122c0-.053 0-.112.003-.18.002-.198.007-.417.012-.653.018-.675.054-1.35.107-1.978.069-.817.165-1.488.284-1.937a1.708 1.708 0 0 1 1.204-1.206c.533-.142 1.876-.257 3.702-.325a115.362 115.362 0 0 1 3.872-.079h.726l.96.008c.993.012 1.985.035 2.912.07 1.826.072 3.171.184 3.702.326.584.157 1.046.62 1.204 1.206.119.45.215 1.12.284 1.937.053.627.086 1.303.107 1.978.007.236.01.457.012.653 0 .068.003.13.003.18v.122ZM10.74 16.402l5.89-3.428-5.89-3.376v6.804Z" fill="#fff"/></svg>