<svg width="75" height="75" viewBox="0 0 75 75" fill="none" xmlns="http://www.w3.org/2000/svg">
<path d="M69.6094 36.709L48.1055 25.957V14.0625C48.1055 11.2653 46.9943 8.58266 45.0164 6.60473C43.0385 4.62681 40.3558 3.51563 37.5586 3.51562C34.7614 3.51563 32.0788 4.62681 30.1008 6.60473C28.1229 8.58266 27.0117 11.2653 27.0117 14.0625V25.957L5.44924 36.709C4.87069 37.0042 4.38436 37.4527 4.04337 38.0055C3.70238 38.5584 3.51983 39.1942 3.51565 39.8438V49.2188C3.5138 49.7411 3.62838 50.2573 3.85106 50.7299C4.07374 51.2024 4.39893 51.6194 4.80297 51.9505C5.20701 52.2815 5.67976 52.5184 6.18684 52.6439C6.69391 52.7694 7.22258 52.7803 7.7344 52.6758L26.9531 48.8086V52.4414L23.291 56.1035C22.6403 56.7699 22.2728 57.6623 22.2656 58.5938V67.9688C22.2668 68.5438 22.409 69.1098 22.6798 69.6172C22.9506 70.1245 23.3418 70.5576 23.8189 70.8786C24.2961 71.1996 24.8447 71.3987 25.4167 71.4583C25.9886 71.5179 26.5665 71.4364 27.0996 71.2207L37.5 67.0605L47.9004 71.2207C48.3188 71.3926 48.7664 71.4821 49.2188 71.4844C49.9209 71.487 50.6066 71.2721 51.1817 70.8691C51.6592 70.5508 52.0508 70.1196 52.3217 69.6136C52.5925 69.1077 52.7343 68.5427 52.7344 67.9688V58.5938C52.7399 58.1354 52.6518 57.6807 52.4755 57.2575C52.2992 56.8344 52.0384 56.4517 51.709 56.1328L48.1055 52.4707V48.8086L67.3535 52.6758C67.861 52.7787 68.385 52.7663 68.8871 52.6395C69.3891 52.5128 69.8562 52.2748 70.2539 51.9434C70.6574 51.6132 70.9823 51.1974 71.2053 50.7262C71.4282 50.255 71.5436 49.7401 71.543 49.2188V39.8438C71.5455 39.1928 71.3657 38.5542 71.0239 38.0002C70.6822 37.4462 70.1922 36.9989 69.6094 36.709ZM64.5117 44.9414L45.293 41.0742C44.7812 40.9697 44.2525 40.9806 43.7454 41.1061C43.2383 41.2316 42.7656 41.4685 42.3616 41.7995C41.9575 42.1306 41.6323 42.5476 41.4097 43.0201C41.187 43.4927 41.0724 44.0089 41.0742 44.5312V53.9062C41.0765 54.83 41.4453 55.7151 42.0996 56.3672L45.7031 60.0293V62.7832L38.8184 60.0293C38.4006 59.8552 37.9526 59.7656 37.5 59.7656C37.0475 59.7656 36.5994 59.8552 36.1817 60.0293L29.2969 62.7832V60.0586L32.959 56.3965C33.6098 55.7301 33.9773 54.8377 33.9844 53.9062V44.5312C33.9862 44.0089 33.8717 43.4927 33.649 43.0201C33.4263 42.5476 33.1011 42.1306 32.6971 41.7995C32.293 41.4685 31.8203 41.2316 31.3132 41.1061C30.8061 40.9806 30.2775 40.9697 29.7656 41.0742L10.5469 44.9414V42.0117L32.0508 31.2598C32.6336 30.9699 33.1236 30.5226 33.4653 29.9686C33.8071 29.4145 33.9869 28.7759 33.9844 28.125V14.0625C33.9844 13.1301 34.3548 12.2359 35.0141 11.5766C35.6734 10.9173 36.5676 10.5469 37.5 10.5469C38.4324 10.5469 39.3266 10.9173 39.9859 11.5766C40.6453 12.2359 41.0156 13.1301 41.0156 14.0625V28.125C41.0159 28.779 41.2 29.4198 41.5471 29.9741C41.8942 30.5285 42.3903 30.974 42.9785 31.2598L64.4531 42.0117L64.5117 44.9414Z" fill="#FCB500"/>
</svg>
