<svg width="176" height="34" fill="none" xmlns="http://www.w3.org/2000/svg"><path d="M3.47 23.27c-.76 0-1.34-.21-1.74-.63-.4-.42-.6-1.01-.6-1.77V3.98c0-1.6.78-2.4 2.34-2.4 1.54 0 2.31.8 2.31 2.4v16.89c0 1.6-.77 2.4-2.31 2.4ZM11.926 23.27c-1.52 0-2.28-.77-2.28-2.31V10.31c0-1.52.74-2.28 2.22-2.28 1.48 0 2.22.76 2.22 2.28v.12c.5-.8 1.17-1.41 2.01-1.83.84-.42 1.78-.63 2.82-.63 1.74 0 3.04.51 3.9 1.53.86 1 1.29 2.55 1.29 4.65v6.81c0 1.54-.76 2.31-2.28 2.31-.72 0-1.28-.2-1.68-.6-.38-.4-.57-.97-.57-1.71v-6.6c0-1.02-.19-1.75-.57-2.19-.38-.46-.94-.69-1.68-.69-.96 0-1.73.3-2.31.9-.56.6-.84 1.4-.84 2.4v6.18c0 1.54-.75 2.31-2.25 2.31ZM33.218 23.33c-1.28 0-2.41-.31-3.39-.93-.96-.64-1.71-1.53-2.25-2.67-.54-1.16-.81-2.53-.81-4.11 0-1.58.27-2.94.81-4.08.54-1.14 1.29-2.02 2.25-2.64.98-.62 2.11-.93 3.39-.93.98 0 1.88.21 2.7.63.82.42 1.44.98 1.86 1.68V3.89c0-1.54.75-2.31 2.25-2.31 1.52 0 2.28.77 2.28 2.31v17.07c0 1.54-.75 2.31-2.25 2.31s-2.25-.77-2.25-2.31v-.09c-.4.76-1.02 1.36-1.86 1.8-.82.44-1.73.66-2.73.66Zm1.35-3.39c.96 0 1.74-.35 2.34-1.05.62-.7.93-1.79.93-3.27 0-1.46-.31-2.53-.93-3.21-.6-.7-1.38-1.05-2.34-1.05s-1.74.35-2.34 1.05c-.6.68-.9 1.75-.9 3.21 0 1.48.3 2.57.9 3.27.6.7 1.38 1.05 2.34 1.05ZM52.879 23.33c-1.58 0-2.96-.31-4.14-.93a6.8 6.8 0 0 1-2.7-2.67c-.64-1.16-.96-2.53-.96-4.11 0-1.56.32-2.91.96-4.05a6.552 6.552 0 0 1 2.7-2.67c1.18-.62 2.56-.93 4.14-.93 1.58 0 2.95.31 4.11.93 1.18.62 2.09 1.51 2.73 2.67.66 1.14.99 2.49.99 4.05 0 1.58-.33 2.95-.99 4.11-.64 1.14-1.55 2.03-2.73 2.67-1.16.62-2.53.93-4.11.93Zm0-3.39c.96 0 1.74-.35 2.34-1.05.62-.7.93-1.79.93-3.27 0-1.46-.31-2.53-.93-3.21-.6-.7-1.38-1.05-2.34-1.05s-1.74.35-2.34 1.05c-.6.68-.9 1.75-.9 3.21 0 1.48.3 2.57.9 3.27.6.7 1.38 1.05 2.34 1.05ZM79.614 23.27c-.76 0-1.34-.21-1.74-.63-.4-.42-.6-1.01-.6-1.77V5.69h-5.31c-1.3 0-1.95-.64-1.95-1.92 0-1.28.65-1.92 1.95-1.92h15.27c1.3 0 1.95.64 1.95 1.92 0 1.28-.65 1.92-1.95 1.92h-5.31v15.18c0 .76-.2 1.35-.6 1.77-.38.42-.95.63-1.71.63ZM90.766 23.27c-1.56 0-2.34-.77-2.34-2.31V10.31c0-1.52.74-2.28 2.22-2.28 1.48 0 2.22.76 2.22 2.28v.54c.72-1.78 2.21-2.74 4.47-2.88.5-.04.88.09 1.14.39.28.28.43.75.45 1.41.04.62-.09 1.11-.39 1.47-.28.36-.76.58-1.44.66l-.69.06c-2.24.22-3.36 1.36-3.36 3.42v5.58c0 1.54-.76 2.31-2.28 2.31ZM105.622 23.33c-1.1 0-2.07-.21-2.91-.63-.84-.42-1.51-.99-2.01-1.71-.48-.72-.72-1.53-.72-2.43 0-1.06.28-1.91.84-2.55.56-.64 1.47-1.09 2.73-1.35 1.26-.28 2.93-.42 5.01-.42h1.08v-.51c0-.88-.2-1.5-.6-1.86-.4-.38-1.08-.57-2.04-.57-.54 0-1.13.07-1.77.21-.64.12-1.33.33-2.07.63-.56.24-1.03.26-1.41.06a1.57 1.57 0 0 1-.75-.96c-.12-.44-.09-.88.09-1.32.2-.44.58-.76 1.14-.96.94-.36 1.82-.61 2.64-.75.84-.16 1.61-.24 2.31-.24 2.28 0 3.98.52 5.1 1.56 1.12 1.02 1.68 2.61 1.68 4.77v6.66c0 1.54-.7 2.31-2.1 2.31-1.42 0-2.13-.77-2.13-2.31v-.18c-.3.78-.81 1.4-1.53 1.86-.7.46-1.56.69-2.58.69Zm1.02-3.03c.84 0 1.55-.29 2.13-.87.58-.58.87-1.33.87-2.25v-.6h-1.05c-1.54 0-2.63.14-3.27.42-.64.26-.96.72-.96 1.38 0 .56.19 1.02.57 1.38.4.36.97.54 1.71.54ZM123.435 23.27c-1.18 0-2.04-.62-2.58-1.86l-4.53-10.44c-.34-.78-.35-1.46-.03-2.04.32-.6.98-.9 1.98-.9.54 0 .98.13 1.32.39.34.24.64.71.9 1.41l3.09 7.8 3.18-7.83c.28-.68.59-1.14.93-1.38.34-.26.81-.39 1.41-.39.76 0 1.3.3 1.62.9.32.58.3 1.25-.06 2.01l-4.62 10.47c-.52 1.24-1.39 1.86-2.61 1.86ZM140.519 23.33c-1.74 0-3.24-.31-4.5-.93-1.24-.64-2.2-1.53-2.88-2.67-.66-1.16-.99-2.52-.99-4.08 0-1.52.32-2.85.96-3.99.66-1.16 1.55-2.06 2.67-2.7 1.14-.66 2.45-.99 3.93-.99 2.14 0 3.84.68 5.1 2.04 1.26 1.34 1.89 3.16 1.89 5.46 0 .76-.47 1.14-1.41 1.14h-8.82c.16 1.16.58 2.01 1.26 2.55.7.52 1.66.78 2.88.78.48 0 1.02-.05 1.62-.15.62-.12 1.21-.32 1.77-.6.58-.28 1.07-.33 1.47-.15.4.16.67.44.81.84.16.4.16.82 0 1.26-.14.42-.47.77-.99 1.05-.7.38-1.48.66-2.34.84-.84.2-1.65.3-2.43.3Zm-.63-12.36c-.96 0-1.74.29-2.34.87-.58.58-.94 1.39-1.08 2.43h6.48c-.12-2.2-1.14-3.3-3.06-3.3ZM154.644 23.33c-3.54 0-5.31-1.97-5.31-5.91V3.89c0-1.54.76-2.31 2.28-2.31 1.5 0 2.25.77 2.25 2.31v13.35c0 .82.17 1.43.51 1.83.36.38.83.57 1.41.57.16 0 .31-.01.45-.03.16-.02.31-.03.45-.03.32-.02.54.08.66.3.14.22.21.67.21 1.35 0 1.16-.49 1.82-1.47 1.98-.2.02-.43.04-.69.06-.26.04-.51.06-.75.06ZM57 31.5a1.5 1.5 0 0 1 1.5-1.5h114a1.5 1.5 0 0 1 0 3h-114a1.5 1.5 0 0 1-1.5-1.5Z" fill="#FCB500"/></svg>