<svg width="1172" height="144" viewBox="0 0 1172 144" fill="none" xmlns="http://www.w3.org/2000/svg">
<path opacity="0.2" fill-rule="evenodd" clip-rule="evenodd" d="M75.4931 91.6826V61.4387H144.132V120.91L143.696 121.2C130.895 129.703 119.51 135.539 109.548 138.671L109.545 138.672C99.6477 141.741 87.9261 143.264 74.3985 143.264C57.7297 143.264 44.0327 140.495 33.369 134.89L33.3667 134.889C22.7711 129.286 14.541 120.943 8.67963 109.896L8.67757 109.892C2.88323 98.8495 0 86.2002 0 71.9685C0 56.9896 3.17108 43.9249 9.55137 32.8081C15.9391 21.6165 25.299 13.1299 37.5985 7.35664L37.6023 7.35486C47.2451 2.87714 60.1361 0.67334 76.2073 0.67334C91.6603 0.67334 103.323 2.03291 111.108 4.81452C118.939 7.58968 125.431 11.919 130.563 17.8044C135.753 23.6227 139.621 30.9937 142.191 39.8837L142.49 40.9182L98.9449 48.4923L98.6756 47.6854C97.0226 42.7338 94.228 38.9951 90.3075 36.4089L90.3016 36.405C86.4485 33.8235 81.4576 32.4944 75.2553 32.4944C66.0618 32.4944 58.7978 35.6067 53.3575 41.8018C48.0008 47.9122 45.2202 57.7425 45.2202 71.5046C45.2202 86.1488 48.039 96.3655 53.4446 102.404C58.9327 108.464 66.5707 111.535 76.4929 111.535C81.2184 111.535 85.7169 110.869 89.9931 109.54C94.1513 108.248 98.931 106.06 104.338 102.955V91.6826H75.4931ZM105.338 90.7083V103.511C99.6898 106.789 94.676 109.108 90.2968 110.469C85.9177 111.829 81.3164 112.51 76.4929 112.51C66.3383 112.51 58.405 109.355 52.6931 103.047C47.0446 96.7384 44.2203 86.2243 44.2203 71.5046C44.2203 57.6507 47.0129 47.5386 52.5979 41.1683C58.2464 34.7362 65.7989 31.5201 75.2553 31.5201C81.6019 31.5201 86.8062 32.8807 90.868 35.602C94.9933 38.3233 97.9128 42.2507 99.6264 47.384L141.228 40.1478C141.137 39.8321 141.044 39.5183 140.95 39.2066C138.414 30.8472 134.699 23.9247 129.805 18.4393C124.791 12.6875 118.444 8.45092 110.765 5.72962C103.149 3.00833 91.6296 1.64768 76.2073 1.64768C60.2138 1.64768 47.4889 3.84327 38.0324 8.23445C25.9103 13.9244 16.7077 22.2739 10.4246 33.2828C4.14142 44.2298 0.999837 57.125 0.999837 71.9685C0.999837 86.0697 3.85582 98.563 9.56778 109.448C15.3432 120.333 23.4351 128.528 33.8436 134.033C44.3155 139.537 57.8338 142.289 74.3985 142.289C87.8534 142.289 99.4677 140.774 109.241 137.743C119.079 134.651 130.376 128.868 143.132 120.395V62.413H76.4929V90.7083H105.338ZM245.868 139.97L239.013 117.519H189.891L183.131 139.97H139.054L191.509 3.96697H238.537L288.818 134.332V3.96697H345.557L367.453 86.7191L389.253 3.96697H445.802V139.97H410.578V36.2514L383.256 139.97H351.364L324.137 36.2514V139.97H245.868ZM245.122 140.944L238.268 118.494H190.639L183.88 140.944H137.61L190.817 2.99263H239.23L287.818 128.971V2.99263H346.331L367.45 82.8088L388.478 2.99263H446.801V140.944H409.578V43.9655L384.031 140.944H350.588L325.137 43.9917V140.944H245.122ZM214.547 39.2201L199.22 88.1107H229.969L214.547 39.2201ZM214.55 42.5455L200.571 87.1364H228.616L214.55 42.5455ZM456.717 2.99263H574.289V33.9788H501.937V53.6459H569.053V83.3332H501.937V108.195H576.383V140.944H456.717V2.99263ZM500.937 109.17V82.3589H568.053V54.6202H500.937V33.0044H573.289V3.96697H457.717V139.97H575.383V109.17H500.937ZM740.217 134.697L740.215 134.698C729.682 140.428 716.587 143.264 700.982 143.264C685.144 143.264 671.94 140.806 661.419 135.837L661.416 135.836C650.941 130.858 642.455 122.986 635.956 112.263C629.432 101.499 626.202 88.0802 626.202 72.0612C626.202 49.6726 632.607 32.1112 645.535 19.513C658.462 6.91584 676.419 0.67334 699.268 0.67334C722.676 0.67334 740.859 6.81612 753.666 19.233C766.468 31.5842 772.81 48.8689 772.81 70.948C772.81 86.9444 770.033 100.164 764.412 110.552C758.863 120.864 750.791 128.916 740.217 134.697ZM763.528 110.098C769.049 99.8927 771.81 86.8428 771.81 70.948C771.81 49.0539 765.527 32.0458 752.96 19.9237C740.394 7.73967 722.497 1.64768 699.268 1.64768C676.611 1.64768 658.935 7.83244 646.242 20.202C633.549 32.5715 627.202 49.8579 627.202 72.0612C627.202 87.9561 630.407 101.191 636.817 111.767C643.227 122.343 651.573 130.074 661.855 134.96C672.2 139.846 685.242 142.289 700.982 142.289C716.467 142.289 729.383 139.475 739.728 133.847C750.136 128.157 758.069 120.241 763.528 110.098ZM719.939 43.0198L719.931 43.0116C714.879 37.3169 707.999 34.4426 699.173 34.4426C690.746 34.4426 684.051 37.335 678.989 43.1006C673.956 48.8318 671.327 58.4667 671.327 72.2468C671.327 85.8989 673.923 95.4741 678.893 101.207C683.948 106.964 690.797 109.865 699.554 109.865C708.582 109.865 715.451 107.015 720.304 101.399C725.138 95.8044 727.685 85.5681 727.685 70.3913C727.685 57.6857 725.033 48.6342 719.939 43.0198ZM678.134 101.841C672.93 95.8417 670.327 85.977 670.327 72.2468C670.327 58.3929 672.961 48.4664 678.229 42.4671C683.497 36.4679 690.478 33.4683 699.173 33.4683C708.248 33.4683 715.42 36.437 720.688 42.3744C726.019 48.2499 728.685 57.5889 728.685 70.3913C728.685 85.6059 726.146 96.1509 721.069 102.026C715.991 107.902 708.82 110.84 699.554 110.84C690.541 110.84 683.401 107.84 678.134 101.841ZM755.813 2.99263H803.119L833.793 98.5544L864.001 2.99263H1023.69V33.9788H951.339V53.6459H1018.45V83.3332H951.339V108.195H1025.78V140.944H906.119V13.1036L857.438 140.944H809.309L755.813 2.99263ZM907.119 7.67714V139.97H1024.79V109.17H950.339V82.3589H1017.45V54.6202H950.339V33.0044H1022.69V3.96697H864.74L833.8 101.841L802.384 3.96697H757.26L810 139.97H856.743L907.119 7.67714ZM1032.08 140.944V2.99263H1104.96C1118.32 2.99263 1128.63 4.10623 1135.83 6.37993C1143.08 8.6733 1148.94 12.9489 1153.38 19.1788C1157.83 25.37 1160.03 32.9035 1160.03 41.725C1160.03 49.4112 1158.35 56.1123 1154.94 61.7913L1154.94 61.7954C1151.55 67.3824 1146.9 71.9185 1140.98 75.3999L1140.47 74.5661C1146.24 71.1644 1150.78 66.7423 1154.08 61.2997C1157.38 55.7953 1159.03 49.2704 1159.03 41.725C1159.03 33.0663 1156.87 25.7373 1152.56 19.7381C1148.24 13.677 1142.56 9.53325 1135.52 7.30674C1128.47 5.08022 1118.29 3.96697 1104.96 3.96697H1033.08V139.97H1076.4V84.7709H1080.21C1084.14 84.7709 1087.66 85.8223 1090.77 87.9252C1093.06 89.5332 1095.66 93.0276 1098.58 98.4083L1121.62 139.97H1170.36L1149.51 100.542C1148.5 98.563 1146.46 95.7489 1143.42 92.0999C1140.44 88.4509 1138.15 86.0697 1136.56 84.9565C1134.49 83.4844 1131.34 82.0124 1127.1 80.5403C1126.53 80.3425 1125.94 80.1446 1125.33 79.9468C1125.95 79.8094 1126.56 79.6685 1127.15 79.5242C1132.7 78.1744 1137.14 76.5216 1140.47 74.5661L1140.98 75.3999C1137.84 77.2493 1133.77 78.8154 1128.81 80.1128C1132.41 81.4394 1135.21 82.7865 1137.15 84.1658C1138.86 85.3653 1141.22 87.8423 1144.19 91.485C1147.24 95.1385 1149.33 98.0201 1150.4 100.101C1150.4 100.102 1150.4 100.104 1150.41 100.106L1172 140.944H1121.02L1097.7 98.8714L1097.7 98.8638C1094.79 93.4992 1092.28 90.1885 1090.2 88.7209C1087.26 86.7392 1083.94 85.7453 1080.21 85.7453H1077.4V140.944H1032.08ZM1105.8 56.2646L1105.81 56.2624C1108.42 55.753 1110.53 54.463 1112.16 52.3624L1112.16 52.3558L1112.17 52.3493C1113.87 50.2363 1114.72 47.8205 1114.72 45.0647C1114.72 40.8957 1113.37 37.8241 1110.79 35.6971C1109.53 34.6594 1107.64 33.8274 1105.05 33.2593C1102.46 32.6926 1099.23 32.4017 1095.34 32.4017H1077.4V58.0989H1094.58C1096.42 58.0989 1100.12 57.5079 1105.79 56.2672L1105.8 56.2646ZM1076.4 59.0732V31.4273H1095.34C1103.21 31.4273 1108.58 32.6024 1111.43 34.9526C1114.29 37.3029 1115.72 40.6735 1115.72 45.0647C1115.72 48.0334 1114.8 50.6619 1112.95 52.9503C1111.18 55.2387 1108.86 56.6612 1106.01 57.2178C1100.36 58.4547 1096.55 59.0732 1094.58 59.0732H1076.4Z" fill="#CD06FF"/>
</svg>
