<svg width="37" height="32" viewBox="0 0 37 32" fill="none" xmlns="http://www.w3.org/2000/svg">
<path d="M18.324 0C11.8845 0 6.51361 4.52938 6.51361 10.3125C6.51361 12.5126 7.27077 14.4745 8.72388 16.3129L17.4202 28.1616C17.8421 28.7376 18.8068 28.7365 19.2279 28.1616L27.9619 16.2726C29.3838 14.5175 30.1345 12.4567 30.1345 10.3125C30.1345 4.62619 24.8363 0 18.324 0ZM18.324 15C15.3641 15 12.9557 12.8971 12.9557 10.3125C12.9557 7.72794 15.3641 5.625 18.324 5.625C21.284 5.625 23.6924 7.72794 23.6924 10.3125C23.6924 12.8971 21.284 15 18.324 15Z" fill="#CD06FF"/>
<path d="M26.7176 21.5435L21.3113 28.9239C19.9118 30.829 16.7285 30.8228 15.3358 28.9257L9.92062 21.5454C5.15608 22.5073 2.21893 24.2693 2.21893 26.375C2.21893 30.0289 10.5169 32 18.3241 32C26.1313 32 34.4292 30.0289 34.4292 26.375C34.4292 24.2678 31.488 22.5048 26.7176 21.5435Z" fill="#CD06FF"/>
</svg>
