<svg width="123" height="122" viewBox="0 0 123 122" fill="none" xmlns="http://www.w3.org/2000/svg">
<circle cx="61.8184" cy="61" r="61" fill="#23C7EC"/>
<path d="M56.1562 61.6489H60.2754C62.3535 61.6304 63.9956 61.0923 65.2017 60.0347C66.4263 58.9771 67.0386 57.4463 67.0386 55.4424C67.0386 53.5127 66.5283 52.019 65.5078 50.9614C64.5059 49.8853 62.9658 49.3472 60.8877 49.3472C59.0693 49.3472 57.5757 49.876 56.4067 50.9336C55.2378 51.9727 54.6533 53.3364 54.6533 55.0249H47.8901C47.8901 52.9468 48.4375 51.0542 49.5322 49.3472C50.6455 47.6401 52.1855 46.3135 54.1523 45.3672C56.1377 44.4023 58.355 43.9199 60.8042 43.9199C64.8491 43.9199 68.022 44.9404 70.3228 46.9814C72.6421 49.0039 73.8018 51.8242 73.8018 55.4424C73.8018 57.2607 73.2173 58.9771 72.0483 60.5913C70.8979 62.187 69.4043 63.3931 67.5674 64.2095C69.7939 64.9702 71.4824 66.167 72.6328 67.7998C73.8018 69.4326 74.3862 71.3809 74.3862 73.6445C74.3862 77.2812 73.1338 80.1758 70.6289 82.3281C68.1426 84.4805 64.8677 85.5566 60.8042 85.5566C56.9077 85.5566 53.7163 84.5176 51.23 82.4395C48.7437 80.3613 47.5005 77.5967 47.5005 74.1455H54.2637C54.2637 75.9268 54.8574 77.374 56.0449 78.4873C57.251 79.6006 58.8652 80.1572 60.8877 80.1572C62.9844 80.1572 64.6357 79.6006 65.8418 78.4873C67.0479 77.374 67.6509 75.7598 67.6509 73.6445C67.6509 71.5107 67.02 69.8687 65.7583 68.7183C64.4966 67.5679 62.6226 66.9927 60.1362 66.9927H56.1562V61.6489Z" fill="white"/>
</svg>
