<svg width="123" height="122" viewBox="0 0 123 122" fill="none" xmlns="http://www.w3.org/2000/svg">
<circle cx="61.8184" cy="61" r="61" fill="#23C7EC"/>
<path d="M75.583 85H48.3354V80.3521L61.834 65.6289C63.7822 63.458 65.1646 61.6489 65.981 60.2017C66.8159 58.7358 67.2334 57.27 67.2334 55.8042C67.2334 53.8745 66.686 52.3159 65.5913 51.1284C64.5151 49.9409 63.0586 49.3472 61.2217 49.3472C59.0322 49.3472 57.3345 50.0151 56.1284 51.3511C54.9224 52.687 54.3193 54.5146 54.3193 56.834H47.5562C47.5562 54.3662 48.1128 52.1489 49.2261 50.1821C50.3579 48.1968 51.9629 46.6567 54.041 45.562C56.1377 44.4673 58.5498 43.9199 61.2773 43.9199C65.2109 43.9199 68.3096 44.9126 70.5732 46.8979C72.8555 48.8647 73.9966 51.5923 73.9966 55.0806C73.9966 57.103 73.4214 59.2275 72.271 61.4541C71.1392 63.6621 69.2744 66.1763 66.6768 68.9966L56.7686 79.6006H75.583V85Z" fill="white"/>
</svg>
