<svg width="120" height="120" viewBox="0 0 120 120" fill="none" xmlns="http://www.w3.org/2000/svg">
<g clip-path="url(#clip0_143_45)">
<path d="M120 0H0V120H120V0Z" fill="black" fill-opacity="0.35"/>
<path d="M40.1524 70.393V70.893H40.6524H47.6614V77.3159C46.2505 79.0441 45.02 80.2402 43.9699 80.9352L43.9698 80.9352C42.9042 81.6407 41.8012 81.984 40.6524 81.984C38.2957 81.984 36.3661 80.4496 34.9175 77.0416C33.4888 73.6417 32.7512 67.8982 32.7512 59.7427C32.7512 52.0723 33.4796 46.5469 34.8943 43.1087C36.3372 39.6083 38.1756 38.0674 40.3302 38.0674C41.7986 38.0674 43.0086 38.7244 43.985 40.1181L43.9871 40.1211C44.9979 41.5416 45.7404 43.6341 46.1805 46.4429L46.2752 47.0467L46.8482 46.8344L57.6781 42.8212L58.0536 42.682L57.9998 42.2851C57.3356 37.3892 56.3362 33.3305 54.9924 30.1215C53.6658 26.8797 51.9681 24.4452 49.8761 22.8656C47.7676 21.2607 44.6398 20.5 40.578 20.5C36.3114 20.5 32.8624 21.7514 30.2887 24.2976L30.2868 24.2995C27.0486 27.5377 24.62 32.2584 22.9706 38.415C21.3207 44.5394 20.5 51.7366 20.5 60C20.5 67.8509 21.2462 74.8212 22.745 80.9058L22.7453 80.9071C24.2589 86.9849 26.3921 91.616 29.176 94.7526L29.177 94.7538C32.0035 97.9191 35.6613 99.5 40.1072 99.5C43.6928 99.5 46.8154 98.6384 49.4531 96.8961L49.4557 96.8943C52.094 95.1274 55.0774 91.8596 58.4083 87.1459L58.5 87.0162V86.8574V54.7004V54.2004H58H40.6524H40.1524V54.7004V70.393Z" fill="white" stroke="#CD06FF"/>
<path d="M94.6283 30.9206C92.9961 27.4905 91.0013 24.8827 88.628 23.1316C86.2483 21.3759 83.5125 20.5 80.439 20.5C74.3864 20.5 69.7197 24.1057 66.4197 31.0762L66.8716 31.2902L66.4197 31.0762C63.1266 38.0325 61.5 47.7042 61.5 60.0514C61.5 68.8937 62.3221 76.2831 63.9786 82.2071C65.6289 88.1088 67.7936 92.4879 70.5076 95.2835L70.5087 95.2846C73.2561 98.0972 76.7251 99.5 80.8775 99.5C84.9922 99.5 88.4343 97.8704 91.1726 94.6413L91.1734 94.6404C93.9017 91.4076 95.9579 86.9386 97.3659 81.2675C98.7923 75.5535 99.5 68.2716 99.5 59.4339C99.5 47.2586 97.8897 37.7403 94.6283 30.9206ZM94.6283 30.9206C94.6284 30.9208 94.6285 30.9209 94.6286 30.9211L94.1773 31.1358L94.6282 30.9202C94.6282 30.9203 94.6283 30.9205 94.6283 30.9206ZM85.4569 43.7765L85.4569 43.7765L85.4584 43.7801C86.7822 46.9424 87.4657 52.0379 87.4657 59.1254C87.4657 67.5646 86.8124 73.3248 85.5527 76.4849C84.2868 79.6601 82.5837 81.058 80.5122 81.058C78.5141 81.058 76.8151 79.638 75.4953 76.3801C74.202 73.1476 73.5343 67.7598 73.5343 60.1543C73.5343 52.4787 74.2104 47.0574 75.5193 43.8262C76.8433 40.5578 78.5046 39.1479 80.4147 39.1479C82.4334 39.1479 84.1391 40.5568 85.4569 43.7765Z" fill="white" stroke="#CD06FF"/>
<path d="M0 55H2V120H0V55Z" fill="#CD06FF"/>
<path d="M0 120.182V118.182H51V120.182H0Z" fill="#CD06FF"/>
<path d="M120 65H118V0H120V65Z" fill="#CD06FF"/>
<path d="M120 0V1.81818H69V0H120Z" fill="#CD06FF"/>
</g>
<defs>
<clipPath id="clip0_143_45">
<rect width="120" height="120" fill="white"/>
</clipPath>
</defs>
</svg>
