<svg width="128" height="128" viewBox="0 0 128 128" fill="none" xmlns="http://www.w3.org/2000/svg">
<g clip-path="url(#clip0_143_61)" filter="url(#filter0_d_143_61)">
<path d="M124 0H4V120H124V0Z" fill="black" fill-opacity="0.01"/>
<path d="M44.1524 70.393V70.893H44.6524H51.6614V77.3159C50.2505 79.0441 49.02 80.2402 47.9699 80.9352L47.9698 80.9352C46.9042 81.6407 45.8012 81.984 44.6524 81.984C42.2956 81.984 40.366 80.4496 38.9174 77.0414C37.4888 73.6415 36.7512 67.898 36.7512 59.7427C36.7512 52.0723 37.4796 46.5469 38.8943 43.1087C40.3372 39.6083 42.1756 38.0674 44.3302 38.0674C45.7986 38.0674 47.0086 38.7244 47.985 40.1181L47.9871 40.1211C48.9979 41.5416 49.7404 43.6341 50.1805 46.4429L50.2752 47.0467L50.8482 46.8344L61.6781 42.8212L62.0536 42.682L61.9998 42.2851C61.3356 37.3892 60.3362 33.3305 58.9924 30.1215C57.6658 26.8797 55.9681 24.4452 53.8761 22.8656C51.7675 21.2607 48.6398 20.5 44.578 20.5C40.3114 20.5 36.8624 21.7514 34.2887 24.2976L34.2868 24.2995C31.0486 27.5377 28.62 32.2584 26.9706 38.415C25.3207 44.5394 24.5 51.7366 24.5 60C24.5 67.8509 25.2462 74.8212 26.745 80.9058L26.7453 80.9071C28.2589 86.9849 30.3921 91.616 33.176 94.7526L33.177 94.7538C36.0035 97.9191 39.6613 99.5 44.1072 99.5C47.6928 99.5 50.8154 98.6384 53.4531 96.8961L53.4557 96.8943C56.094 95.1274 59.0774 91.8596 62.4083 87.1459L62.5 87.0162V86.8574V54.7004V54.2004H62H44.6524H44.1524V54.7004V70.393Z" fill="black" stroke="#CD06FF"/>
<path d="M70.4197 31.0762L70.8716 31.2902L70.4197 31.0762C67.1266 38.0325 65.5 47.7042 65.5 60.0514C65.5 68.8937 66.3221 76.2831 67.9786 82.2071C69.6289 88.1088 71.7936 92.4879 74.5076 95.2834L74.5087 95.2846C77.2561 98.0972 80.7251 99.5 84.8775 99.5C88.9922 99.5 92.4343 97.8704 95.1726 94.6413L95.1734 94.6404C97.9017 91.4075 99.958 86.9385 101.366 81.2674C102.792 75.5535 103.5 68.2716 103.5 59.4339C103.5 47.2585 101.89 37.7401 98.6283 30.9204C96.9961 27.4904 95.0012 24.8826 92.628 23.1316C90.2483 21.3759 87.5125 20.5 84.439 20.5C78.3864 20.5 73.7197 24.1057 70.4197 31.0762ZM89.4569 43.7765L89.4569 43.7765L89.4584 43.7801C90.7822 46.9424 91.4657 52.0379 91.4657 59.1254C91.4657 67.5646 90.8124 73.3248 89.5527 76.4849C88.2868 79.6601 86.5837 81.058 84.5122 81.058C82.5142 81.058 80.8152 79.6381 79.4954 76.3804C78.2021 73.148 77.5343 67.7601 77.5343 60.1543C77.5343 52.4787 78.2104 47.0574 79.5193 43.8262C80.8433 40.5578 82.5046 39.1479 84.4147 39.1479C86.4334 39.1479 88.1391 40.5568 89.4569 43.7765Z" fill="black" stroke="#CD06FF"/>
<path d="M4 55H6V120H4V55Z" fill="#CD06FF"/>
<path d="M4 120.182V118.182H55V120.182H4Z" fill="#CD06FF"/>
<path d="M124 65H122V0H124V65Z" fill="#CD06FF"/>
<path d="M124 0V1.81818H73V0H124Z" fill="#CD06FF"/>
</g>
<defs>
<filter id="filter0_d_143_61" x="0" y="0" width="128" height="128" filterUnits="userSpaceOnUse" color-interpolation-filters="sRGB">
<feFlood flood-opacity="0" result="BackgroundImageFix"/>
<feColorMatrix in="SourceAlpha" type="matrix" values="0 0 0 0 0 0 0 0 0 0 0 0 0 0 0 0 0 0 127 0" result="hardAlpha"/>
<feOffset dy="4"/>
<feGaussianBlur stdDeviation="2"/>
<feComposite in2="hardAlpha" operator="out"/>
<feColorMatrix type="matrix" values="0 0 0 0 0 0 0 0 0 0 0 0 0 0 0 0 0 0 0.25 0"/>
<feBlend mode="normal" in2="BackgroundImageFix" result="effect1_dropShadow_143_61"/>
<feBlend mode="normal" in="SourceGraphic" in2="effect1_dropShadow_143_61" result="shape"/>
</filter>
<clipPath id="clip0_143_61">
<rect width="120" height="120" fill="white" transform="translate(4)"/>
</clipPath>
</defs>
</svg>
