<svg width="1177" height="149" viewBox="0 0 1177 149" fill="none" xmlns="http://www.w3.org/2000/svg">
<path d="M77.6211 94.1445H76.6211V95.1445H77.6211V94.1445ZM77.6211 64.3594V63.3594H76.6211V64.3594H77.6211ZM145.98 64.3594H146.98V63.3594H145.98V64.3594ZM145.98 125.395L146.544 126.221L146.98 125.923V125.395H145.98ZM111.215 143.656L111.518 144.609L111.522 144.608L111.215 143.656ZM33.8711 139.75L33.3941 140.629L33.3964 140.63L33.8711 139.75ZM8.96875 113.871L8.0784 114.326L8.08046 114.33L8.96875 113.871ZM9.84766 33.6953L10.7204 34.1835L10.7216 34.1814L9.84766 33.6953ZM38.168 7.32812L37.7378 6.42537L37.734 6.42719L38.168 7.32812ZM112.777 4.69141L112.433 5.63029L112.436 5.6312L112.777 4.69141ZM132.309 18.0703L131.546 18.7178L131.554 18.7265L132.309 18.0703ZM144.027 40.9219L144.203 41.9063L145.289 41.7125L144.99 40.6507L144.027 40.9219ZM101.352 48.5391L100.401 48.8484L100.67 49.6765L101.527 49.5235L101.352 48.5391ZM92.3672 36.1367L91.8006 36.9608L91.8066 36.9648L92.3672 36.1367ZM53.1094 41.9961L52.3496 41.3459L52.3491 41.3465L53.1094 41.9961ZM53.207 107.133L52.4535 107.79L52.4572 107.794L53.207 107.133ZM107.211 107.621L107.723 108.48L108.211 108.189V107.621H107.211ZM107.211 94.1445H108.211V93.1445H107.211V94.1445ZM78.6211 94.1445V64.3594H76.6211V94.1445H78.6211ZM77.6211 65.3594H145.98V63.3594H77.6211V65.3594ZM144.98 64.3594V125.395H146.98V64.3594H144.98ZM145.417 124.568C132.375 133.457 120.875 139.489 110.908 142.705L111.522 144.608C121.737 141.313 133.414 135.17 146.544 126.221L145.417 124.568ZM110.912 142.703C101.009 145.854 89.202 147.441 75.4727 147.441V149.441C89.3475 149.441 101.369 147.838 111.518 144.609L110.912 142.703ZM75.4727 147.441C58.5847 147.441 44.8962 144.561 34.3458 138.87L33.3964 140.63C44.3304 146.528 58.3763 149.441 75.4727 149.441V147.441ZM34.3481 138.871C23.8582 133.178 15.6955 124.704 9.85704 113.412L8.08046 114.33C14.0909 125.955 22.5299 134.733 33.3941 140.629L34.3481 138.871ZM9.85909 113.416C4.08212 102.119 1.17969 89.1278 1.17969 74.418H-0.820312C-0.820312 89.3957 2.13663 102.707 8.07841 114.326L9.85909 113.416ZM1.17969 74.418C1.17969 58.9325 4.37264 45.5325 10.7204 34.1835L8.9749 33.2072C2.43205 44.905 -0.820312 58.6535 -0.820312 74.418H1.17969ZM10.7216 34.1814C17.0623 22.7809 26.3449 14.133 38.6019 8.22906L37.734 6.42719C25.1212 12.5025 15.5236 21.4326 8.97373 33.2093L10.7216 34.1814ZM38.5981 8.23087C48.1122 3.69731 60.9997 1.39453 77.3281 1.39453V-0.605469C60.8441 -0.605469 47.6247 1.71415 37.7378 6.42538L38.5981 8.23087ZM77.3281 1.39453C93.1171 1.39453 104.79 2.82782 112.433 5.63028L113.122 3.75253C105.14 0.825825 93.1797 -0.605469 77.3281 -0.605469V1.39453ZM112.436 5.6312C120.159 8.43986 126.522 12.8027 131.546 18.7177L133.071 17.4229C127.809 11.2285 121.15 6.67212 113.119 3.75161L112.436 5.6312ZM131.554 18.7265C136.647 24.5837 140.492 32.061 143.065 41.193L144.99 40.6507C142.354 31.2932 138.387 23.5361 133.063 17.4141L131.554 18.7265ZM143.852 39.9374L101.176 47.5546L101.527 49.5235L144.203 41.9063L143.852 39.9374ZM102.303 48.2297C100.484 42.6396 97.3644 38.3119 92.9278 35.3086L91.8066 36.9648C95.8335 39.6907 98.7035 43.6313 100.401 48.8484L102.303 48.2297ZM92.9337 35.3127C88.5583 32.3046 83.0064 30.8398 76.3516 30.8398V32.8398C82.7176 32.8398 87.8428 34.2397 91.8007 36.9608L92.9337 35.3127ZM76.3516 30.8398C66.3881 30.8398 58.3521 34.3318 52.3496 41.3459L53.8691 42.6463C59.4552 36.1188 66.914 32.8398 76.3516 32.8398V30.8398ZM52.3491 41.3465C46.3919 48.3191 43.5156 59.2526 43.5156 73.9297H45.5156C45.5156 59.4401 48.3685 49.0845 53.8697 42.6457L52.3491 41.3465ZM43.5156 73.9297C43.5156 89.5002 46.4175 100.873 52.4535 107.79L53.9605 106.475C48.408 100.112 45.5156 89.3487 45.5156 73.9297H43.5156ZM52.4572 107.794C58.5403 114.689 66.9731 118.094 77.6211 118.094V116.094C67.4358 116.094 59.5925 112.858 53.9569 106.471L52.4572 107.794ZM77.6211 118.094C82.667 118.094 87.4899 117.363 92.085 115.898L91.4775 113.993C87.0883 115.392 82.471 116.094 77.6211 116.094V118.094ZM92.085 115.898C96.6735 114.435 101.888 111.955 107.723 108.48L106.699 106.762C100.945 110.189 95.8734 112.591 91.4775 113.993L92.085 115.898ZM108.211 107.621V94.1445H106.211V107.621H108.211ZM107.211 93.1445H77.6211V95.1445H107.211V93.1445ZM240.336 122.367L241.294 122.082L241.082 121.367H240.336V122.367ZM189.945 122.367V121.367H189.197L188.986 122.086L189.945 122.367ZM183.012 146V147H183.76L183.971 146.282L183.012 146ZM137.797 146L136.861 145.648L136.353 147H137.797V146ZM191.605 2.83594V1.83594H190.913L190.669 2.48411L191.605 2.83594ZM239.848 2.83594L240.784 2.48411L240.54 1.83594H239.848V2.83594ZM293.656 146V147H295.1L294.592 145.648L293.656 146ZM247.367 146L246.409 146.285L246.621 147H247.367V146ZM231.059 91.4102V92.4102H232.412L232.014 91.1163L231.059 91.4102ZM215.238 39.9453L216.194 39.6515L215.235 36.5324L214.282 39.6531L215.238 39.9453ZM199.516 91.4102L198.559 91.118L198.164 92.4102H199.516V91.4102ZM240.336 121.367H189.945V123.367H240.336V121.367ZM188.986 122.086L182.052 145.718L183.971 146.282L190.905 122.649L188.986 122.086ZM183.012 145H137.797V147H183.012V145ZM138.733 146.352L192.542 3.18776L190.669 2.48411L136.861 145.648L138.733 146.352ZM191.605 3.83594H239.848V1.83594H191.605V3.83594ZM238.912 3.18776L292.72 146.352L294.592 145.648L240.784 2.48411L238.912 3.18776ZM293.656 145H247.367V147H293.656V145ZM248.326 145.715L241.294 122.082L239.377 122.652L246.409 146.285L248.326 145.715ZM232.014 91.1163L216.194 39.6515L214.282 40.2391L230.103 91.704L232.014 91.1163ZM214.282 39.6531L198.559 91.118L200.472 91.7023L216.195 40.2375L214.282 39.6531ZM199.516 92.4102H231.059V90.4102H199.516V92.4102ZM287.426 2.83594V1.83594H286.426V2.83594H287.426ZM345.629 2.83594L346.597 2.58626L346.404 1.83594H345.629V2.83594ZM368.09 89.9453L367.122 90.195L369.058 90.194L368.09 89.9453ZM390.453 2.83594V1.83594H389.677L389.485 2.58727L390.453 2.83594ZM448.461 2.83594H449.461V1.83594H448.461V2.83594ZM448.461 146V147H449.461V146H448.461ZM412.328 146H411.328V147H412.328V146ZM412.328 36.8203H413.328L411.36 36.5717L412.328 36.8203ZM384.301 146V147H385.076L385.269 146.249L384.301 146ZM351.586 146L350.617 146.248L350.81 147H351.586V146ZM323.656 36.8203L324.625 36.5725L322.656 36.8203H323.656ZM323.656 146V147H324.656V146H323.656ZM287.426 146H286.426V147H287.426V146ZM287.426 3.83594H345.629V1.83594H287.426V3.83594ZM344.661 3.08562L367.122 90.195L369.058 89.6956L346.597 2.58626L344.661 3.08562ZM369.058 90.194L391.422 3.0846L389.485 2.58727L367.121 89.6966L369.058 90.194ZM390.453 3.83594H448.461V1.83594H390.453V3.83594ZM447.461 2.83594V146H449.461V2.83594H447.461ZM448.461 145H412.328V147H448.461V145ZM413.328 146V36.8203H411.328V146H413.328ZM411.36 36.5717L383.332 145.751L385.269 146.249L413.297 37.069L411.36 36.5717ZM384.301 145H351.586V147H384.301V145ZM352.555 145.752L324.625 36.5725L322.687 37.0681L350.617 146.248L352.555 145.752ZM322.656 36.8203V146H324.656V36.8203H322.656ZM323.656 145H287.426V147H323.656V145ZM288.426 146V2.83594H286.426V146H288.426ZM456.684 2.83594V1.83594H455.684V2.83594H456.684ZM575.238 2.83594H576.238V1.83594H575.238V2.83594ZM575.238 33.4023V34.4023H576.238V33.4023H575.238ZM501.02 33.4023V32.4023H500.02V33.4023H501.02ZM501.02 56.1562H500.02V57.1562H501.02V56.1562ZM569.867 56.1562H570.867V55.1562H569.867V56.1562ZM569.867 85.3555V86.3555H570.867V85.3555H569.867ZM501.02 85.3555V84.3555H500.02V85.3555H501.02ZM501.02 113.578H500.02V114.578H501.02V113.578ZM577.387 113.578H578.387V112.578H577.387V113.578ZM577.387 146V147H578.387V146H577.387ZM456.684 146H455.684V147H456.684V146ZM456.684 3.83594H575.238V1.83594H456.684V3.83594ZM574.238 2.83594V33.4023H576.238V2.83594H574.238ZM575.238 32.4023H501.02V34.4023H575.238V32.4023ZM500.02 33.4023V56.1562H502.02V33.4023H500.02ZM501.02 57.1562H569.867V55.1562H501.02V57.1562ZM568.867 56.1562V85.3555H570.867V56.1562H568.867ZM569.867 84.3555H501.02V86.3555H569.867V84.3555ZM500.02 85.3555V113.578H502.02V85.3555H500.02ZM501.02 114.578H577.387V112.578H501.02V114.578ZM576.387 113.578V146H578.387V113.578H576.387ZM577.387 145H456.684V147H577.387V145ZM457.684 146V2.83594H455.684V146H457.684ZM642.074 19.9258L641.367 19.2187L642.074 19.9258ZM751.547 19.6328L750.842 20.3417L750.843 20.3435L751.547 19.6328ZM762.387 114.555L761.502 114.088L761.501 114.09L762.387 114.555ZM737.973 139.555L738.46 140.428L738.462 140.427L737.973 139.555ZM658.09 140.727L657.652 141.625L657.654 141.626L658.09 140.727ZM674.789 105.863L674.025 106.509L674.029 106.513L674.789 105.863ZM718.441 43.2656L717.685 43.9197L717.692 43.928L718.441 43.2656ZM623.543 74.5156C623.543 51.3334 629.995 33.4191 642.781 20.6329L641.367 19.2187C628.112 32.4742 621.543 50.9531 621.543 74.5156H623.543ZM642.781 20.6329C655.569 7.84569 673.419 1.39453 696.469 1.39453V-0.605469C673.035 -0.605469 654.622 5.9642 641.367 19.2187L642.781 20.6329ZM696.469 1.39453C720.118 1.39453 738.191 7.75517 750.842 20.3417L752.252 18.9239C739.121 5.85941 720.476 -0.605469 696.469 -0.605469V1.39453ZM750.843 20.3435C763.496 32.8686 769.883 50.4878 769.883 73.3438H771.883C771.883 50.1059 765.379 31.9178 752.25 18.9221L750.843 20.3435ZM769.883 73.3438C769.883 89.9712 767.067 103.534 761.502 114.088L763.271 115.021C769.034 104.091 771.883 90.1798 771.883 73.3438H769.883ZM761.501 114.09C755.993 124.593 747.994 132.786 737.483 138.683L738.462 140.427C749.305 134.344 757.582 125.87 763.272 115.019L761.501 114.09ZM737.485 138.682C727.061 144.501 713.992 147.441 698.227 147.441V149.441C714.232 149.441 727.66 146.457 738.46 140.428L737.485 138.682ZM698.227 147.441C682.179 147.441 668.961 144.884 658.526 139.827L657.654 141.626C668.442 146.855 681.982 149.441 698.227 149.441V147.441ZM658.528 139.828C648.175 134.779 639.754 126.786 633.267 115.804L631.545 116.821C638.21 128.105 646.911 136.388 657.652 141.625L658.528 139.828ZM633.267 115.804C626.806 104.864 623.543 91.12 623.543 74.5156H621.543C621.543 91.3748 624.856 105.495 631.545 116.821L633.267 115.804ZM665.781 74.7109C665.781 89.2406 668.456 99.9204 674.025 106.509L675.553 105.218C670.445 99.176 667.781 89.0876 667.781 74.7109H665.781ZM674.029 106.513C679.646 113.077 687.262 116.336 696.762 116.336V114.336C687.772 114.336 680.74 111.28 675.549 105.213L674.029 106.513ZM696.762 116.336C706.505 116.336 714.165 113.154 719.597 106.703L718.067 105.414C713.083 111.333 706.029 114.336 696.762 114.336V116.336ZM719.597 106.703C725.048 100.229 727.645 88.8122 727.645 72.7578H725.645C725.645 88.7347 723.032 99.5181 718.067 105.414L719.597 106.703ZM727.645 72.7578C727.645 59.1819 724.896 49.0561 719.191 42.6032L717.692 43.928C722.924 49.845 725.645 59.3806 725.645 72.7578H727.645ZM719.198 42.6116C713.579 36.1126 705.93 32.8906 696.371 32.8906V34.8906C705.432 34.8906 712.497 37.9187 717.685 43.9197L719.198 42.6116ZM696.371 32.8906C687.184 32.8906 679.736 36.1582 674.127 42.7131L675.647 44.0134C680.845 37.9382 687.72 34.8906 696.371 34.8906V32.8906ZM674.127 42.7131C668.488 49.3033 665.781 60.0519 665.781 74.7109H667.781C667.781 60.2033 670.478 50.0535 675.647 44.0134L674.127 42.7131ZM760.551 2.83594V1.83594H759.104L759.615 3.18944L760.551 2.83594ZM806.84 2.83594L807.794 2.5374L807.575 1.83594H806.84V2.83594ZM839.066 105.863L838.112 106.162L839.074 109.236L840.022 106.158L839.066 105.863ZM870.805 2.83594V1.83594H870.066L869.849 2.54153L870.805 2.83594ZM915.727 2.83594L916.664 3.18383L917.164 1.83594H915.727V2.83594ZM862.602 146V147H863.297L863.539 146.348L862.602 146ZM814.652 146L813.717 146.353L813.961 147H814.652V146ZM760.551 3.83594H806.84V1.83594H760.551V3.83594ZM805.885 3.13447L838.112 106.162L840.021 105.565L807.794 2.5374L805.885 3.13447ZM840.022 106.158L871.76 3.13034L869.849 2.54153L838.111 105.569L840.022 106.158ZM870.805 3.83594H915.727V1.83594H870.805V3.83594ZM914.789 2.48804L861.664 145.652L863.539 146.348L916.664 3.18383L914.789 2.48804ZM862.602 145H814.652V147H862.602V145ZM815.588 145.647L761.486 2.48244L759.615 3.18944L813.717 146.353L815.588 145.647ZM910.277 2.83594V1.83594H909.277V2.83594H910.277ZM1028.83 2.83594H1029.83V1.83594H1028.83V2.83594ZM1028.83 33.4023V34.4023H1029.83V33.4023H1028.83ZM954.613 33.4023V32.4023H953.613V33.4023H954.613ZM954.613 56.1562H953.613V57.1562H954.613V56.1562ZM1023.46 56.1562H1024.46V55.1562H1023.46V56.1562ZM1023.46 85.3555V86.3555H1024.46V85.3555H1023.46ZM954.613 85.3555V84.3555H953.613V85.3555H954.613ZM954.613 113.578H953.613V114.578H954.613V113.578ZM1030.98 113.578H1031.98V112.578H1030.98V113.578ZM1030.98 146V147H1031.98V146H1030.98ZM910.277 146H909.277V147H910.277V146ZM910.277 3.83594H1028.83V1.83594H910.277V3.83594ZM1027.83 2.83594V33.4023H1029.83V2.83594H1027.83ZM1028.83 32.4023H954.613V34.4023H1028.83V32.4023ZM953.613 33.4023V56.1562H955.613V33.4023H953.613ZM954.613 57.1562H1023.46V55.1562H954.613V57.1562ZM1022.46 56.1562V85.3555H1024.46V56.1562H1022.46ZM1023.46 84.3555H954.613V86.3555H1023.46V84.3555ZM953.613 85.3555V113.578H955.613V85.3555H953.613ZM954.613 114.578H1030.98V112.578H954.613V114.578ZM1029.98 113.578V146H1031.98V113.578H1029.98ZM1030.98 145H910.277V147H1030.98V145ZM911.277 146V2.83594H909.277V146H911.277ZM1035.49 146H1034.49V147H1035.49V146ZM1035.49 2.83594V1.83594H1034.49V2.83594H1035.49ZM1158.05 19.4375L1157.23 20.0076L1157.23 20.0115L1158.05 19.4375ZM1159.61 63.1875L1160.47 63.6962L1160.48 63.692L1159.61 63.1875ZM1145.65 77.1523L1146.17 78.0085L1146.17 78.0082L1145.65 77.1523ZM1130.12 82.8164L1129.9 81.8414L1126.41 82.6349L1129.8 83.7651L1130.12 82.8164ZM1141.64 88.0898L1141.06 88.8977L1141.06 88.9014L1141.64 88.0898ZM1148.68 95.6094L1147.89 96.2325L1147.9 96.2405L1148.68 95.6094ZM1154.93 104.496L1154.03 104.943L1154.04 104.954L1154.93 104.496ZM1176.31 146V147H1177.95L1177.2 145.542L1176.31 146ZM1126.31 146L1125.43 146.475L1125.72 147H1126.31V146ZM1102.68 102.25L1101.8 102.717L1101.8 102.725L1102.68 102.25ZM1094.67 91.2148L1095.26 90.4042L1095.25 90.3986L1095.24 90.3933L1094.67 91.2148ZM1079.93 87.8945V86.8945H1078.93V87.8945H1079.93ZM1079.93 146V147H1080.93V146H1079.93ZM1079.93 60.8438H1078.93V61.8438H1079.93V60.8438ZM1110.3 58.8906L1110.1 57.91L1110.09 57.9124L1110.08 57.915L1110.3 58.8906ZM1117.43 54.3984L1116.64 53.7816L1116.63 53.7882L1116.63 53.795L1117.43 54.3984ZM1079.93 31.7422V30.7422H1078.93V31.7422H1079.93ZM1036.49 146V2.83594H1034.49V146H1036.49ZM1035.49 3.83594H1109.22V1.83594H1035.49V3.83594ZM1109.22 3.83594C1122.86 3.83594 1133.18 5.00746 1140.26 7.30279L1140.88 5.40034C1133.5 3.00817 1122.93 1.83594 1109.22 1.83594V3.83594ZM1140.26 7.30279C1147.28 9.57744 1152.92 13.8028 1157.23 20.0076L1158.87 18.8674C1154.32 12.3118 1148.32 7.81318 1140.88 5.40034L1140.26 7.30279ZM1157.23 20.0115C1161.52 26.1296 1163.69 33.6346 1163.69 42.582H1165.69C1165.69 33.3003 1163.43 25.3756 1158.87 18.8635L1157.23 20.0115ZM1163.69 42.582C1163.69 50.3802 1162.03 57.0678 1158.75 62.683L1160.48 63.692C1163.97 57.7186 1165.69 50.6693 1165.69 42.582H1163.69ZM1158.75 62.6788C1155.45 68.2598 1150.92 72.7977 1145.13 76.2965L1146.17 78.0082C1152.23 74.3455 1157 69.5735 1160.47 63.6962L1158.75 62.6788ZM1145.13 76.2962C1141.48 78.4987 1136.42 80.3565 1129.9 81.8414L1130.34 83.7914C1136.97 82.2815 1142.26 80.3633 1146.17 78.0085L1145.13 76.2962ZM1129.8 83.7651C1135.05 85.5133 1138.77 87.2323 1141.06 88.8976L1142.23 87.2821C1139.7 85.4318 1135.74 83.6351 1130.44 81.8677L1129.8 83.7651ZM1141.06 88.9014C1142.56 89.9838 1144.83 92.3892 1147.89 96.2325L1149.46 94.9863C1146.4 91.1472 1143.98 88.5396 1142.23 87.2783L1141.06 88.9014ZM1147.9 96.2405C1151.02 100.073 1153.04 102.964 1154.03 104.943L1155.82 104.049C1154.73 101.861 1152.58 98.8275 1149.45 94.9783L1147.9 96.2405ZM1154.04 104.954L1175.42 146.458L1177.2 145.542L1155.81 104.038L1154.04 104.954ZM1176.31 145H1126.31V147H1176.31V145ZM1127.19 145.525L1103.56 101.775L1101.8 102.725L1125.43 146.475L1127.19 145.525ZM1103.56 101.783C1100.56 96.1093 1097.8 92.2441 1095.26 90.4042L1094.09 92.0255C1096.23 93.571 1098.81 97.0626 1101.8 102.717L1103.56 101.783ZM1095.24 90.3933C1091.88 88.0588 1088.06 86.8945 1083.83 86.8945V88.8945C1087.67 88.8945 1091.09 89.9438 1094.1 92.0364L1095.24 90.3933ZM1083.83 86.8945H1079.93V88.8945H1083.83V86.8945ZM1078.93 87.8945V146H1080.93V87.8945H1078.93ZM1079.93 145H1035.49V147H1079.93V145ZM1079.93 61.8438H1098.58V59.8438H1079.93V61.8438ZM1098.58 61.8438C1100.73 61.8438 1104.74 61.1645 1110.52 59.8663L1110.08 57.915C1104.27 59.2209 1100.47 59.8438 1098.58 59.8438V61.8438ZM1110.49 59.8712C1113.67 59.2367 1116.25 57.6034 1118.22 55.0019L1116.63 53.795C1114.95 56.0112 1112.79 57.3727 1110.1 57.91L1110.49 59.8712ZM1118.21 55.0153C1120.24 52.4265 1121.26 49.4412 1121.26 46.0977H1119.26C1119.26 49.0041 1118.39 51.5527 1116.64 53.7816L1118.21 55.0153ZM1121.26 46.0977C1121.26 41.2473 1119.71 37.3921 1116.51 34.6891L1115.22 36.2172C1117.88 38.462 1119.26 41.7033 1119.26 46.0977H1121.26ZM1116.51 34.6891C1114.88 33.3111 1112.6 32.3327 1109.76 31.6943C1106.91 31.0543 1103.44 30.7422 1099.36 30.7422V32.7422C1103.35 32.7422 1106.67 33.0485 1109.32 33.6456C1111.98 34.2441 1113.92 35.1212 1115.22 36.2172L1116.51 34.6891ZM1099.36 30.7422H1079.93V32.7422H1099.36V30.7422ZM1078.93 31.7422V60.8438H1080.93V31.7422H1078.93Z" fill="#CD06FF"/>
</svg>
