<svg width="1172" height="146" viewBox="0 0 1172 146" fill="none" xmlns="http://www.w3.org/2000/svg">
<path opacity="0.2" fill-rule="evenodd" clip-rule="evenodd" d="M75.4931 93.1856V62.2184H144.132V123.112L143.696 123.409C130.895 132.115 119.51 138.091 109.548 141.297L109.545 141.299C99.6477 144.441 87.9261 146 74.3985 146C57.7297 146 44.0327 143.166 33.369 137.426L33.3667 137.425C22.7711 131.688 14.541 123.146 8.67963 111.834L8.67757 111.83C2.88323 100.524 0 87.5721 0 73C0 57.6629 3.17108 44.2858 9.55137 32.9032C15.9391 21.444 25.299 12.7545 37.5985 6.84312L37.6023 6.8413C47.2451 2.2565 60.1361 0 76.2073 0C91.6603 0 103.323 1.39208 111.108 4.2402C118.939 7.08173 125.431 11.5146 130.563 17.5407C135.753 23.4981 139.621 31.0454 142.191 40.148L142.49 41.2072L98.9449 48.9624L98.6756 48.1363C97.0226 43.0662 94.228 39.2381 90.3075 36.5901L90.3016 36.5861C86.4485 33.9429 81.4576 32.582 75.2553 32.582C66.0618 32.582 58.7978 35.7688 53.3575 42.112C48.0008 48.3685 45.2202 58.4339 45.2202 72.525C45.2202 87.5195 48.039 97.9804 53.4446 104.164C58.9327 110.369 66.5707 113.513 76.4929 113.513C81.2184 113.513 85.7169 112.831 89.9931 111.47C94.1513 110.147 98.931 107.907 104.338 104.728V93.1856H75.4931ZM105.338 92.188V105.297C99.6898 108.653 94.676 111.028 90.2968 112.421C85.9177 113.814 81.3164 114.511 76.4929 114.511C66.3383 114.511 58.405 111.281 52.6931 104.822C47.0446 98.3623 44.2203 87.5968 44.2203 72.525C44.2203 58.3399 47.0129 47.986 52.5979 41.4633C58.2464 34.8774 65.7989 31.5844 75.2553 31.5844C81.602 31.5844 86.8062 32.9776 90.868 35.764C94.9933 38.5503 97.9128 42.5716 99.6264 47.8277L141.228 40.4185C141.137 40.0952 141.044 39.7739 140.95 39.4547C138.414 30.8954 134.699 23.8074 129.805 18.1908C124.791 12.3014 118.444 7.96357 110.765 5.17719C103.149 2.39082 91.6296 0.997638 76.2073 0.997638C60.2138 0.997638 47.4888 3.24573 38.0324 7.74192C25.9103 13.568 16.7077 22.1171 10.4246 33.3892C4.14142 44.598 0.999837 57.8016 0.999837 73C0.999837 87.4385 3.85582 100.23 9.56778 111.376C15.3432 122.521 23.4352 130.912 33.8436 136.548C44.3155 142.184 57.8338 145.002 74.3985 145.002C87.8534 145.002 99.4677 143.451 109.241 140.348C119.079 137.182 130.376 131.26 143.132 122.585V63.216H76.4929V92.188H105.338ZM245.868 142.628L239.013 119.64H189.891L183.131 142.628H139.054L191.509 3.37239H238.537L288.818 136.855V3.37239H345.557L367.453 88.1034L389.253 3.37239H445.802V142.628H410.578V36.4289L383.256 142.628H351.364L324.137 36.4289V142.628H245.868ZM245.122 143.625L238.268 120.638H190.639L183.88 143.625H137.61L190.817 2.37475H239.23L287.818 131.365V2.37475H346.331L367.45 84.0996L388.478 2.37475H446.801V143.625H409.578V44.3274L384.031 143.625H350.588L325.137 44.3542V143.625H245.122ZM214.547 39.4686L199.22 89.5282H229.969L214.547 39.4686ZM214.55 42.8734L200.571 88.5306H228.616L214.55 42.8734ZM456.717 2.37475H574.289V34.1019H501.937V54.2392H569.053V84.6365H501.937V110.093H576.383V143.625H456.717V2.37475ZM500.937 111.091V83.6389H568.053V55.2369H500.937V33.1042H573.289V3.37239H457.717V142.628H575.383V111.091H500.937ZM740.217 137.228L740.215 137.229C729.682 143.097 716.587 146 700.982 146C685.144 146 671.94 143.484 661.419 138.396L661.416 138.395C650.941 133.298 642.455 125.237 635.956 114.258C629.432 103.237 626.202 89.497 626.202 73.095C626.202 50.171 632.607 32.1896 645.535 19.2902C658.462 6.39178 676.419 0 699.268 0C722.676 0 740.859 6.28967 753.666 19.0034C766.468 31.6501 772.81 49.3481 772.81 71.9551C772.81 88.3341 770.033 101.87 764.412 112.506C758.863 123.065 750.791 131.31 740.217 137.228ZM763.528 112.041C769.049 101.592 771.81 88.23 771.81 71.9551C771.81 49.5375 765.527 32.1227 752.96 19.7107C740.394 7.23531 722.497 0.997638 699.268 0.997638C676.611 0.997638 658.935 7.3303 646.242 19.9956C633.549 32.6609 627.202 50.3607 627.202 73.095C627.202 89.3699 630.407 102.922 636.817 113.751C643.227 124.58 651.573 132.495 661.855 137.498C672.2 142.501 685.242 145.002 700.982 145.002C716.467 145.002 729.383 142.121 739.728 136.358C750.136 130.532 758.069 122.426 763.528 112.041ZM719.939 43.3591L719.931 43.3507C714.879 37.5198 707.999 34.5768 699.173 34.5768C690.746 34.5768 684.051 37.5384 678.989 43.4418C673.956 49.3101 671.327 59.1754 671.327 73.285C671.327 87.2635 673.923 97.0677 678.893 102.938C683.948 108.833 690.797 111.803 699.554 111.803C708.582 111.803 715.451 108.885 720.304 103.134C725.138 97.4059 727.685 86.9249 727.685 71.3852C727.685 58.3757 725.033 49.1077 719.939 43.3591ZM678.134 103.587C672.93 97.4441 670.327 87.3435 670.327 73.285C670.327 59.0998 672.961 48.9359 678.229 42.7932C683.497 36.6505 690.478 33.5792 699.173 33.5792C708.248 33.5792 715.42 36.6189 720.688 42.6982C726.019 48.7142 728.685 58.2766 728.685 71.3852C728.685 86.9635 726.146 97.7607 721.069 103.777C715.991 109.793 708.82 112.801 699.554 112.801C690.541 112.801 683.401 109.729 678.134 103.587ZM755.813 2.37475H803.119L833.793 100.222L864.001 2.37475H1023.69V34.1019H951.339V54.2392H1018.45V84.6365H951.339V110.093H1025.78V143.625H906.119V12.7275L857.438 143.625H809.309L755.813 2.37475ZM907.119 7.17129V142.628H1024.79V111.091H950.339V83.6389H1017.45V55.2369H950.339V33.1042H1022.69V3.37239H864.74L833.8 103.587L802.384 3.37239H757.26L810 142.628H856.743L907.119 7.17129ZM1032.08 143.625V2.37475H1104.96C1118.32 2.37475 1128.63 3.51498 1135.83 5.84305C1143.08 8.19126 1148.94 12.5691 1153.38 18.948C1157.83 25.2873 1160.03 33.0008 1160.03 42.0333C1160.03 49.9033 1158.35 56.7647 1154.94 62.5794L1154.94 62.5837C1151.55 68.3042 1146.9 72.9488 1140.98 76.5135L1140.47 75.6597C1146.24 72.1768 1150.78 67.6489 1154.08 62.0762C1157.38 56.4401 1159.03 49.7591 1159.03 42.0333C1159.03 33.1676 1156.87 25.6634 1152.56 19.5207C1148.24 13.3147 1142.56 9.07178 1135.52 6.79202C1128.47 4.51226 1118.29 3.37239 1104.96 3.37239H1033.08V142.628H1076.4V86.1086H1080.21C1084.14 86.1086 1087.66 87.1852 1090.77 89.3383C1093.06 90.9848 1095.66 94.5627 1098.58 100.072L1121.62 142.628H1170.36L1149.51 102.257C1148.5 100.23 1146.46 97.3491 1143.42 93.6128C1140.44 89.8765 1138.15 87.4385 1136.56 86.2986C1134.49 84.7913 1131.34 83.2841 1127.1 81.7768C1126.53 81.5743 1125.94 81.3717 1125.33 81.1691C1125.95 81.0284 1126.56 80.8842 1127.15 80.7364C1132.7 79.3543 1137.14 77.6621 1140.47 75.6597L1140.98 76.5135C1137.84 78.4071 1133.77 80.0106 1128.81 81.3391C1132.41 82.6974 1135.21 84.0767 1137.15 85.489C1138.86 86.7172 1141.22 89.2534 1144.19 92.9832C1147.24 96.7241 1149.33 99.6746 1150.4 101.805C1150.4 101.807 1150.4 101.809 1150.41 101.811L1172 143.625H1121.02L1097.7 100.546L1097.7 100.538C1094.79 95.0456 1092.28 91.6557 1090.2 90.153C1087.26 88.124 1083.94 87.1062 1080.21 87.1062H1077.4V143.625H1032.08ZM1105.8 56.9206L1105.81 56.9183C1108.42 56.3968 1110.53 55.076 1112.16 52.9251L1112.16 52.9183L1112.17 52.9116C1113.87 50.7481 1114.72 48.2746 1114.72 45.4529C1114.72 41.1842 1113.37 38.0391 1110.79 35.8612C1109.53 34.7988 1107.64 33.9469 1105.05 33.3651C1102.46 32.785 1099.23 32.487 1095.34 32.487H1077.4V58.7988H1094.58C1096.42 58.7988 1100.12 58.1936 1105.79 56.9232L1105.8 56.9206ZM1076.4 59.7964V31.4894H1095.34C1103.21 31.4894 1108.58 32.6926 1111.43 35.099C1114.29 37.5054 1115.72 40.9567 1115.72 45.4529C1115.72 48.4926 1114.8 51.184 1112.95 53.5271C1111.18 55.8701 1108.86 57.3267 1106.01 57.8966C1100.36 59.1631 1096.55 59.7964 1094.58 59.7964H1076.4Z" fill="#CD06FF"/>
</svg>
