<svg width="1177" height="148" viewBox="0 0 1177 148" fill="none" xmlns="http://www.w3.org/2000/svg">
<g clip-path="url(#clip0_121_3)">
<path d="M77.6211 93.5127H76.6211V94.506H77.6211V93.5127ZM77.6211 63.9275V62.9342H76.6211V63.9275H77.6211ZM145.98 63.9275H146.98V62.9342H145.98V63.9275ZM145.98 124.553L146.544 125.374L146.98 125.078V124.553H145.98ZM111.215 142.692L111.518 143.638L111.522 143.638L111.215 142.692ZM33.8711 138.812L33.3941 139.685L33.3964 139.686L33.8711 138.812ZM8.96875 113.107L8.0784 113.559L8.08046 113.563L8.96875 113.107ZM9.84766 33.4692L10.7204 33.9541L10.7216 33.952L9.84766 33.4692ZM38.168 7.27896L37.7378 6.38227L37.734 6.38408L38.168 7.27896ZM112.777 4.65995L112.433 5.59253L112.436 5.59343L112.777 4.65995ZM132.309 17.949L131.546 18.5922L131.554 18.6008L132.309 17.949ZM144.027 40.6473L144.203 41.6251L145.289 41.4326L144.99 40.3779L144.027 40.6473ZM101.352 48.2134L100.401 48.5206L100.67 49.3431L101.527 49.1912L101.352 48.2134ZM92.3672 35.8942L91.8006 36.7128L91.8066 36.7167L92.3672 35.8942ZM53.1094 41.7143L52.3496 41.0684L52.3491 41.069L53.1094 41.7143ZM53.207 106.414L52.4535 107.067L52.4572 107.071L53.207 106.414ZM107.211 106.899L107.723 107.752L108.211 107.463V106.899H107.211ZM107.211 93.5127H108.211V92.5194H107.211V93.5127ZM78.6211 93.5127V63.9275H76.6211V93.5127H78.6211ZM77.6211 64.9208H145.98V62.9342H77.6211V64.9208ZM144.98 63.9275V124.553H146.98V63.9275H144.98ZM145.417 123.732C132.375 132.561 120.875 138.553 110.908 141.747L111.522 143.638C121.737 140.365 133.414 134.263 146.544 125.374L145.417 123.732ZM110.912 141.745C101.009 144.875 89.202 146.451 75.4727 146.451V148.438C89.3475 148.438 101.369 146.846 111.518 143.638L110.912 141.745ZM75.4727 146.451C58.5847 146.451 44.8962 143.591 34.3458 137.938L33.3964 139.686C44.3304 145.545 58.3763 148.438 75.4727 148.438V146.451ZM34.3481 137.939C23.8582 132.284 15.6955 123.867 9.85704 112.651L8.08046 113.563C14.0909 125.11 22.5299 133.829 33.3941 139.685L34.3481 137.939ZM9.85909 112.655C4.08212 101.434 1.17969 88.5297 1.17969 73.9186H-0.820312C-0.820312 88.7958 2.13663 102.018 8.07841 113.559L9.85909 112.655ZM1.17969 73.9186C1.17969 58.537 4.37264 45.2269 10.7204 33.9541L8.9749 32.9844C2.43205 44.6036 -0.820312 58.2599 -0.820312 73.9186H1.17969ZM10.7216 33.952C17.0623 22.628 26.3449 14.0382 38.6019 8.17386L37.734 6.38408C25.1212 12.4186 15.5236 21.2888 8.97373 32.9864L10.7216 33.952ZM38.5981 8.17566C48.1122 3.67252 60.9997 1.3852 77.3281 1.3852V-0.601379C60.8441 -0.601379 47.6247 1.70267 37.7378 6.38228L38.5981 8.17566ZM77.3281 1.3852C93.1171 1.3852 104.79 2.80887 112.433 5.59252L113.122 3.72737C105.14 0.820309 93.1797 -0.601379 77.3281 -0.601379V1.3852ZM112.436 5.59343C120.159 8.38324 126.522 12.7168 131.546 18.5921L133.071 17.306C127.809 11.1532 121.15 6.62737 113.119 3.72646L112.436 5.59343ZM131.554 18.6008C136.647 24.4187 140.492 31.8459 143.065 40.9166L144.99 40.3779C142.354 31.0832 138.387 23.3782 133.063 17.2973L131.554 18.6008ZM143.852 39.6694L101.176 47.2355L101.527 49.1912L144.203 41.6251L143.852 39.6694ZM102.303 47.906C100.484 42.3535 97.3644 38.0548 92.9278 35.0717L91.8066 36.7167C95.8335 39.4243 98.7035 43.3385 100.401 48.5206L102.303 47.906ZM92.9337 35.0757C88.5583 32.0878 83.0064 30.6328 76.3516 30.6328V32.6194C82.7176 32.6194 87.8428 34.0099 91.8007 36.7128L92.9337 35.0757ZM76.3516 30.6328C66.3881 30.6328 58.3521 34.1014 52.3496 41.0684L53.8691 42.3601C59.4552 35.8764 66.914 32.6194 76.3516 32.6194V30.6328ZM52.3491 41.069C46.3919 47.9948 43.5156 58.855 43.5156 73.4336H45.5156C45.5156 59.0412 48.3685 48.7551 53.8697 42.3595L52.3491 41.069ZM43.5156 73.4336C43.5156 88.8996 46.4175 100.196 52.4535 107.067L53.9605 105.76C48.408 99.4401 45.5156 88.7491 45.5156 73.4336H43.5156ZM52.4572 107.071C58.5403 113.919 66.9731 117.301 77.6211 117.301V115.315C67.4358 115.315 59.5925 112.101 53.9569 105.756L52.4572 107.071ZM77.6211 117.301C82.667 117.301 87.4899 116.575 92.085 115.12L91.4775 113.228C87.0883 114.618 82.471 115.315 77.6211 115.315V117.301ZM92.085 115.12C96.6735 113.667 101.888 111.204 107.723 107.752L106.699 106.046C100.945 109.45 95.8734 111.835 91.4775 113.228L92.085 115.12ZM108.211 106.899V93.5127H106.211V106.899H108.211ZM107.211 92.5194H77.6211V94.506H107.211V92.5194ZM240.336 121.546L241.294 121.263L241.082 120.552H240.336V121.546ZM189.945 121.546V120.552H189.197L188.986 121.267L189.945 121.546ZM183.012 145.02V146.013H183.76L183.971 145.3L183.012 145.02ZM137.797 145.02L136.861 144.671L136.353 146.013H137.797V145.02ZM191.605 2.81693V1.82364H190.913L190.669 2.46746L191.605 2.81693ZM239.848 2.81693L240.784 2.46746L240.54 1.82364H239.848V2.81693ZM293.656 145.02V146.013H295.1L294.592 144.671L293.656 145.02ZM247.367 145.02L246.409 145.303L246.621 146.013H247.367V145.02ZM231.059 90.7967V91.79H232.412L232.014 90.5048L231.059 90.7967ZM215.238 39.6772L216.194 39.3854L215.235 36.2872L214.282 39.387L215.238 39.6772ZM199.516 90.7967L198.559 90.5065L198.164 91.79H199.516V90.7967ZM240.336 120.552H189.945V122.539H240.336V120.552ZM188.986 121.267L182.052 144.74L183.971 145.3L190.905 121.826L188.986 121.267ZM183.012 144.027H137.797V146.013H183.012V144.027ZM138.733 145.37L192.542 3.16639L190.669 2.46746L136.861 144.671L138.733 145.37ZM191.605 3.81022H239.848V1.82364H191.605V3.81022ZM238.912 3.16639L292.72 145.37L294.592 144.671L240.784 2.46746L238.912 3.16639ZM293.656 144.027H247.367V146.013H293.656V144.027ZM248.326 144.737L241.294 121.263L239.377 121.829L246.409 145.303L248.326 144.737ZM232.014 90.5048L216.194 39.3854L214.282 39.9691L230.103 91.0886L232.014 90.5048ZM214.282 39.387L198.559 90.5065L200.472 91.0869L216.195 39.9675L214.282 39.387ZM199.516 91.79H231.059V89.8035H199.516V91.79ZM287.426 2.81693V1.82364H286.426V2.81693H287.426ZM345.629 2.81693L346.597 2.56893L346.404 1.82364H345.629V2.81693ZM368.09 89.3417L367.122 89.5897L369.058 89.5887L368.09 89.3417ZM390.453 2.81693V1.82364H389.677L389.485 2.56993L390.453 2.81693ZM448.461 2.81693H449.461V1.82364H448.461V2.81693ZM448.461 145.02V146.013H449.461V145.02H448.461ZM412.328 145.02H411.328V146.013H412.328V145.02ZM412.328 36.5732H413.328L411.36 36.3263L412.328 36.5732ZM384.301 145.02V146.013H385.076L385.269 145.267L384.301 145.02ZM351.586 145.02L350.617 145.267L350.81 146.013H351.586V145.02ZM323.656 36.5732L324.625 36.3271L322.656 36.5732H323.656ZM323.656 145.02V146.013H324.656V145.02H323.656ZM287.426 145.02H286.426V146.013H287.426V145.02ZM287.426 3.81022H345.629V1.82364H287.426V3.81022ZM344.661 3.06494L367.122 89.5897L369.058 89.0937L346.597 2.56893L344.661 3.06494ZM369.058 89.5887L391.422 3.06392L389.485 2.56993L367.121 89.0946L369.058 89.5887ZM390.453 3.81022H448.461V1.82364H390.453V3.81022ZM447.461 2.81693V145.02H449.461V2.81693H447.461ZM448.461 144.027H412.328V146.013H448.461V144.027ZM413.328 145.02V36.5732H411.328V145.02H413.328ZM411.36 36.3263L383.332 144.773L385.269 145.267L413.297 36.8202L411.36 36.3263ZM384.301 144.027H351.586V146.013H384.301V144.027ZM352.555 144.774L324.625 36.3271L322.687 36.8193L350.617 145.267L352.555 144.774ZM322.656 36.5732V145.02H324.656V36.5732H322.656ZM323.656 144.027H287.426V146.013H323.656V144.027ZM288.426 145.02V2.81693H286.426V145.02H288.426ZM456.684 2.81693V1.82364H455.684V2.81693H456.684ZM575.238 2.81693H576.238V1.82364H575.238V2.81693ZM575.238 33.1782V34.1714H576.238V33.1782H575.238ZM501.02 33.1782V32.1849H500.02V33.1782H501.02ZM501.02 55.7793H500.02V56.7726H501.02V55.7793ZM569.867 55.7793H570.867V54.7861H569.867V55.7793ZM569.867 84.7827V85.776H570.867V84.7827H569.867ZM501.02 84.7827V83.7894H500.02V84.7827H501.02ZM501.02 112.816H500.02V113.809H501.02V112.816ZM577.387 112.816H578.387V111.822H577.387V112.816ZM577.387 145.02V146.013H578.387V145.02H577.387ZM456.684 145.02H455.684V146.013H456.684V145.02ZM456.684 3.81022H575.238V1.82364H456.684V3.81022ZM574.238 2.81693V33.1782H576.238V2.81693H574.238ZM575.238 32.1849H501.02V34.1714H575.238V32.1849ZM500.02 33.1782V55.7793H502.02V33.1782H500.02ZM501.02 56.7726H569.867V54.7861H501.02V56.7726ZM568.867 55.7793V84.7827H570.867V55.7793H568.867ZM569.867 83.7894H501.02V85.776H569.867V83.7894ZM500.02 84.7827V112.816H502.02V84.7827H500.02ZM501.02 113.809H577.387V111.822H501.02V113.809ZM576.387 112.816V145.02H578.387V112.816H576.387ZM577.387 144.027H456.684V146.013H577.387V144.027ZM457.684 145.02V2.81693H455.684V145.02H457.684ZM642.074 19.7921L641.367 19.0897L642.074 19.7921ZM751.547 19.5011L750.842 20.2052L750.843 20.207L751.547 19.5011ZM762.387 113.786L761.502 113.322L761.501 113.324L762.387 113.786ZM737.973 138.618L738.46 139.486L738.462 139.485L737.973 138.618ZM658.09 139.783L657.652 140.675L657.654 140.676L658.09 139.783ZM674.789 105.153L674.025 105.794L674.029 105.798L674.789 105.153ZM718.441 42.9753L717.685 43.625L717.692 43.6332L718.441 42.9753ZM623.543 74.0155C623.543 50.9889 629.995 33.1948 642.781 20.4945L641.367 19.0897C628.112 32.2563 621.543 50.6112 621.543 74.0155H623.543ZM642.781 20.4945C655.569 7.79306 673.419 1.3852 696.469 1.3852V-0.601379C673.035 -0.601379 654.622 5.9242 641.367 19.0897L642.781 20.4945ZM696.469 1.3852C720.118 1.3852 738.191 7.70315 750.842 20.2052L752.252 18.7969C739.121 5.82011 720.476 -0.601379 696.469 -0.601379V1.3852ZM750.843 20.207C763.496 32.648 769.883 50.149 769.883 72.8516H771.883C771.883 49.7696 765.379 31.7036 752.25 18.7951L750.843 20.207ZM769.883 72.8516C769.883 89.3674 767.067 102.839 761.502 113.322L763.271 114.249C769.034 103.392 771.883 89.5746 771.883 72.8516H769.883ZM761.501 113.324C755.993 123.757 747.994 131.895 737.483 137.752L738.462 139.485C749.305 133.442 757.582 125.025 763.272 114.247L761.501 113.324ZM737.485 137.751C727.061 143.531 713.992 146.451 698.227 146.451V148.438C714.232 148.438 727.66 145.474 738.46 139.486L737.485 137.751ZM698.227 146.451C682.179 146.451 668.961 143.912 658.526 138.889L657.654 140.676C668.442 145.869 681.982 148.438 698.227 148.438V146.451ZM658.528 138.89C648.175 133.874 639.754 125.935 633.267 115.027L631.545 116.037C638.21 127.245 646.911 135.473 657.652 140.675L658.528 138.89ZM633.267 115.027C626.806 104.16 623.543 90.5085 623.543 74.0155H621.543C621.543 90.7616 624.856 104.787 631.545 116.037L633.267 115.027ZM665.781 74.2095C665.781 88.6417 668.456 99.2498 674.025 105.794L675.553 104.512C670.445 98.5104 667.781 88.4897 667.781 74.2095H665.781ZM674.029 105.798C679.646 112.318 687.262 115.555 696.762 115.555V113.569C687.772 113.569 680.74 110.533 675.549 104.507L674.029 105.798ZM696.762 115.555C706.505 115.555 714.165 112.395 719.597 105.987L718.067 104.707C713.083 110.586 706.029 113.569 696.762 113.569V115.555ZM719.597 105.987C725.048 99.5564 727.645 88.2162 727.645 72.2695H725.645C725.645 88.1392 723.032 98.8502 718.067 104.707L719.597 105.987ZM727.645 72.2695C727.645 58.7847 724.896 48.7269 719.191 42.3173L717.692 43.6332C722.924 49.5105 725.645 58.9821 725.645 72.2695H727.645ZM719.198 42.3256C713.579 35.8703 705.93 32.6699 696.371 32.6699V34.6565C705.432 34.6565 712.497 37.6642 717.685 43.625L719.198 42.3256ZM696.371 32.6699C687.184 32.6699 679.736 35.9156 674.127 42.4265L675.647 43.718C680.845 37.6836 687.72 34.6565 696.371 34.6565V32.6699ZM674.127 42.4265C668.488 48.9724 665.781 59.6489 665.781 74.2095H667.781C667.781 59.7993 670.478 49.7176 675.647 43.718L674.127 42.4265ZM760.551 2.81693V1.82364H759.104L759.615 3.16806L760.551 2.81693ZM806.84 2.81693L807.794 2.5204L807.575 1.82364H806.84V2.81693ZM839.066 105.153L838.112 105.45L839.074 108.503L840.022 105.446L839.066 105.153ZM870.805 2.81693V1.82364H870.066L869.849 2.5245L870.805 2.81693ZM915.727 2.81693L916.664 3.16249L917.164 1.82364H915.727V2.81693ZM862.602 145.02V146.013H863.297L863.539 145.366L862.602 145.02ZM814.652 145.02L813.717 145.371L813.961 146.013H814.652V145.02ZM760.551 3.81022H806.84V1.82364H760.551V3.81022ZM805.885 3.11346L838.112 105.45L840.021 104.857L807.794 2.5204L805.885 3.11346ZM840.022 105.446L871.76 3.10936L869.849 2.5245L838.111 104.861L840.022 105.446ZM870.805 3.81022H915.727V1.82364H870.805V3.81022ZM914.789 2.47137L861.664 144.674L863.539 145.366L916.664 3.16249L914.789 2.47137ZM862.602 144.027H814.652V146.013H862.602V144.027ZM815.588 144.67L761.486 2.46581L759.615 3.16806L813.717 145.371L815.588 144.67ZM910.277 2.81693V1.82364H909.277V2.81693H910.277ZM1028.83 2.81693H1029.83V1.82364H1028.83V2.81693ZM1028.83 33.1782V34.1714H1029.83V33.1782H1028.83ZM954.613 33.1782V32.1849H953.613V33.1782H954.613ZM954.613 55.7793H953.613V56.7726H954.613V55.7793ZM1023.46 55.7793H1024.46V54.7861H1023.46V55.7793ZM1023.46 84.7827V85.776H1024.46V84.7827H1023.46ZM954.613 84.7827V83.7894H953.613V84.7827H954.613ZM954.613 112.816H953.613V113.809H954.613V112.816ZM1030.98 112.816H1031.98V111.822H1030.98V112.816ZM1030.98 145.02V146.013H1031.98V145.02H1030.98ZM910.277 145.02H909.277V146.013H910.277V145.02ZM910.277 3.81022H1028.83V1.82364H910.277V3.81022ZM1027.83 2.81693V33.1782H1029.83V2.81693H1027.83ZM1028.83 32.1849H954.613V34.1714H1028.83V32.1849ZM953.613 33.1782V55.7793H955.613V33.1782H953.613ZM954.613 56.7726H1023.46V54.7861H954.613V56.7726ZM1022.46 55.7793V84.7827H1024.46V55.7793H1022.46ZM1023.46 83.7894H954.613V85.776H1023.46V83.7894ZM953.613 84.7827V112.816H955.613V84.7827H953.613ZM954.613 113.809H1030.98V111.822H954.613V113.809ZM1029.98 112.816V145.02H1031.98V112.816H1029.98ZM1030.98 144.027H910.277V146.013H1030.98V144.027ZM911.277 145.02V2.81693H909.277V145.02H911.277ZM1035.49 145.02H1034.49V146.013H1035.49V145.02ZM1035.49 2.81693V1.82364H1034.49V2.81693H1035.49ZM1158.05 19.3071L1157.23 19.8733V19.8772L1158.05 19.3071ZM1159.61 62.7635L1160.47 63.2687L1160.48 63.2646L1159.61 62.7635ZM1145.65 76.6345L1146.17 77.485V77.4847L1145.65 76.6345ZM1130.12 82.2606L1129.9 81.2922L1126.41 82.0803L1129.8 83.2029L1130.12 82.2606ZM1141.64 87.4986L1141.06 88.3011V88.3048L1141.64 87.4986ZM1148.68 94.9678L1147.89 95.5867L1147.9 95.5946L1148.68 94.9678ZM1154.93 103.795L1154.03 104.239L1154.04 104.25L1154.93 103.795ZM1176.31 145.02V146.013H1177.95L1177.2 144.565L1176.31 145.02ZM1126.31 145.02L1125.43 145.492L1125.72 146.013H1126.31V145.02ZM1102.68 101.564L1101.8 102.028V102.036L1102.68 101.564ZM1094.67 90.6026L1095.26 89.7975L1095.25 89.7919L1095.24 89.7867L1094.67 90.6026ZM1079.93 87.3046V86.3113H1078.93V87.3046H1079.93ZM1079.93 145.02V146.013H1080.93V145.02H1079.93ZM1079.93 60.4355H1078.93V61.4288H1079.93V60.4355ZM1110.3 58.4954L1110.1 57.5214L1110.09 57.5238L1110.08 57.5263L1110.3 58.4954ZM1117.43 54.0333L1116.64 53.4207L1116.63 53.4272V53.434L1117.43 54.0333ZM1079.93 31.5292V30.5359H1078.93V31.5292H1079.93ZM1036.49 145.02V2.81693H1034.49V145.02H1036.49ZM1035.49 3.81022H1109.22V1.82364H1035.49V3.81022ZM1109.22 3.81022C1122.86 3.81022 1133.18 4.97388 1140.26 7.2538L1140.88 5.36412C1133.5 2.98801 1122.93 1.82364 1109.22 1.82364V3.81022ZM1140.26 7.2538C1147.28 9.51319 1152.92 13.7102 1157.23 19.8733L1158.87 18.7408C1154.32 12.2292 1148.32 7.76077 1140.88 5.36412L1140.26 7.2538ZM1157.23 19.8772C1161.52 25.9543 1163.69 33.4089 1163.69 42.2962H1165.69C1165.69 33.0768 1163.43 25.2053 1158.87 18.7369L1157.23 19.8772ZM1163.69 42.2962C1163.69 50.0421 1162.03 56.6848 1158.75 62.2623L1160.48 63.2646C1163.97 57.3313 1165.69 50.3293 1165.69 42.2962H1163.69ZM1158.75 62.2582C1155.45 67.8017 1150.92 72.3092 1145.13 75.7845L1146.17 77.4847C1152.23 73.8466 1157 69.1066 1160.47 63.2687L1158.75 62.2582ZM1145.13 75.7842C1141.48 77.9719 1136.42 79.8172 1129.9 81.2922L1130.34 83.2291C1136.97 81.7293 1142.26 79.824 1146.17 77.485L1145.13 75.7842ZM1129.8 83.2029C1135.05 84.9394 1138.77 86.6469 1141.06 88.301L1142.23 86.6963C1139.7 84.8585 1135.74 83.0738 1130.44 81.3183L1129.8 83.2029ZM1141.06 88.3048C1142.56 89.3799 1144.83 91.7692 1147.89 95.5867L1149.46 94.3488C1146.4 90.5355 1143.98 87.9454 1142.23 86.6926L1141.06 88.3048ZM1147.9 95.5946C1151.02 99.4014 1153.04 102.273 1154.03 104.239L1155.82 103.351C1154.73 101.177 1152.58 98.1643 1149.45 94.3409L1147.9 95.5946ZM1154.04 104.25L1175.42 145.475L1177.2 144.565L1155.81 103.34L1154.04 104.25ZM1176.31 144.027H1126.31V146.013H1176.31V144.027ZM1127.19 144.548L1103.56 101.092L1101.8 102.036L1125.43 145.492L1127.19 144.548ZM1103.56 101.1C1100.56 95.4643 1097.8 91.625 1095.26 89.7975L1094.09 91.4079C1096.23 92.943 1098.81 96.4112 1101.8 102.028L1103.56 101.1ZM1095.24 89.7867C1091.88 87.4678 1088.06 86.3113 1083.83 86.3113V88.2979C1087.67 88.2979 1091.09 89.3402 1094.1 91.4187L1095.24 89.7867ZM1083.83 86.3113H1079.93V88.2979H1083.83V86.3113ZM1078.93 87.3046V145.02H1080.93V87.3046H1078.93ZM1079.93 144.027H1035.49V146.013H1079.93V144.027ZM1079.93 61.4288H1098.58V59.4422H1079.93V61.4288ZM1098.58 61.4288C1100.73 61.4288 1104.74 60.754 1110.52 59.4645L1110.08 57.5263C1104.27 58.8235 1100.47 59.4422 1098.58 59.4422V61.4288ZM1110.49 59.4694C1113.67 58.8392 1116.25 57.2168 1118.22 54.6328L1116.63 53.434C1114.95 55.6353 1112.79 56.9877 1110.1 57.5214L1110.49 59.4694ZM1118.21 54.6461C1120.24 52.0747 1121.26 49.1094 1121.26 45.7883H1119.26C1119.26 48.6752 1118.39 51.2067 1116.64 53.4207L1118.21 54.6461ZM1121.26 45.7883C1121.26 40.9705 1119.71 37.1412 1116.51 34.4563L1115.22 35.9742C1117.88 38.2039 1119.26 41.4234 1119.26 45.7883H1121.26ZM1116.51 34.4563C1114.88 33.0876 1112.6 32.1157 1109.76 31.4816C1106.91 30.8459 1103.44 30.5359 1099.36 30.5359V32.5225C1103.35 32.5225 1106.67 32.8267 1109.32 33.4198C1111.98 34.0143 1113.92 34.8855 1115.22 35.9742L1116.51 34.4563ZM1099.36 30.5359H1079.93V32.5225H1099.36V30.5359ZM1078.93 31.5292V60.4355H1080.93V31.5292H1078.93Z" fill="#370A37"/>
</g>
<defs>
<clipPath id="clip0_121_3">
<rect width="1177" height="148" fill="white"/>
</clipPath>
</defs>
</svg>
