<svg width="356" height="72" viewBox="0 0 356 72" fill="none" xmlns="http://www.w3.org/2000/svg">
<path d="M79.56 68H78.3V58.78H72.44V68H71.18V57.72H79.56V68Z" fill="#282626"/>
<path d="M83.1422 57.72V59.7C83.8888 58.18 85.1155 57.42 86.8222 57.42C88.2222 57.42 89.3422 57.92 90.1822 58.92C91.0355 59.92 91.4622 61.2467 91.4622 62.9C91.4622 64.5267 91.0422 65.84 90.2022 66.84C89.3622 67.8267 88.2488 68.32 86.8622 68.32C85.1288 68.32 83.9155 67.58 83.2222 66.1V71.84H82.0022V57.72H83.1422ZM89.2222 59.68C88.5955 58.8667 87.7422 58.46 86.6622 58.46C85.5822 58.46 84.7288 58.8533 84.1022 59.64C83.4888 60.4266 83.1822 61.5067 83.1822 62.88C83.1822 64.2267 83.4955 65.2933 84.1222 66.08C84.7622 66.8667 85.6222 67.26 86.7022 67.26C87.7555 67.26 88.5955 66.8667 89.2222 66.08C89.8622 65.28 90.1822 64.22 90.1822 62.9C90.1822 61.5533 89.8622 60.48 89.2222 59.68Z" fill="#282626"/>
<path d="M101.787 68H100.527V59.2L94.9666 68H93.4066V57.72H94.6666V66.52L100.227 57.72H101.787V68Z" fill="#282626"/>
<path d="M112.629 57.42C114.109 57.42 115.282 57.9133 116.149 58.9C117.029 59.8867 117.469 61.22 117.469 62.9C117.469 64.5667 117.035 65.8867 116.169 66.86C115.302 67.82 114.122 68.3 112.629 68.3C111.175 68.3 110.009 67.84 109.129 66.92C108.262 65.9867 107.795 64.7333 107.729 63.16H105.409V68H104.149V57.72H105.409V62.1H107.769C107.915 60.66 108.422 59.52 109.289 58.68C110.155 57.84 111.269 57.42 112.629 57.42ZM115.229 59.68C114.575 58.88 113.702 58.48 112.609 58.48C111.515 58.48 110.642 58.88 109.989 59.68C109.335 60.4667 109.009 61.5266 109.009 62.86C109.009 64.22 109.329 65.2933 109.969 66.08C110.622 66.8667 111.515 67.26 112.649 67.26C113.742 67.26 114.609 66.8667 115.249 66.08C115.889 65.2933 116.209 64.2267 116.209 62.88C116.209 61.5333 115.882 60.4667 115.229 59.68Z" fill="#282626"/>
<path d="M126.712 58.78H122.892V68H121.632V58.78H117.812V57.72H126.712V58.78Z" fill="#282626"/>
<path d="M143.186 71.28H141.926V68H133.646V71.28H132.386V66.94H133.606C134.552 65.1933 135.026 62.56 135.026 59.04V57.72H141.746V66.94H143.186V71.28ZM140.486 66.94V58.78H136.246V59.46C136.246 62.6867 135.799 65.18 134.906 66.94H140.486Z" fill="#282626"/>
<path d="M152.979 68H151.719V58.78H147.519L147.339 63.94C147.286 65.4333 147.039 66.52 146.599 67.2C146.159 67.88 145.512 68.22 144.659 68.22C144.286 68.22 143.919 68.1467 143.559 68V66.98C143.799 67.1 144.172 67.16 144.679 67.16C145.546 67.16 146.019 66.0667 146.099 63.88L146.299 57.72H152.979V68Z" fill="#282626"/>
<path d="M163.261 68H162.001V63.68H159.441L155.821 68H154.181L158.001 63.64C157.068 63.5733 156.321 63.2867 155.761 62.78C155.214 62.26 154.941 61.56 154.941 60.68C154.941 59.7733 155.221 59.0533 155.781 58.52C156.354 57.9867 157.114 57.72 158.061 57.72H163.261V68ZM162.001 58.78H158.361C157.681 58.78 157.148 58.9533 156.761 59.3C156.388 59.6333 156.201 60.1 156.201 60.7C156.201 61.3 156.388 61.7733 156.761 62.12C157.148 62.4533 157.681 62.62 158.361 62.62H162.001V58.78Z" fill="#282626"/>
<path d="M175.299 62.84L171.499 68H169.959L174.419 62L170.399 57.72H172.099L176.839 62.96V57.72H178.099V62.94L182.839 57.72H184.539L180.519 62L184.979 68H183.439L179.639 62.84L178.099 64.44V68H176.839V64.44L175.299 62.84Z" fill="#282626"/>
<path d="M194.443 68H193.183V59.2L187.623 68H186.063V57.72H187.323V66.52L192.883 57.72H194.443V68Z" fill="#282626"/>
<path d="M205.325 65.12C205.325 66.0533 205.005 66.7667 204.365 67.26C203.725 67.7533 202.812 68 201.625 68H196.805V57.72H201.625C202.678 57.72 203.492 57.9333 204.065 58.36C204.638 58.7733 204.925 59.3733 204.925 60.16C204.925 61.4 204.332 62.1866 203.145 62.52V62.56C204.598 62.8133 205.325 63.6667 205.325 65.12ZM203.665 60.48C203.665 59.3466 202.938 58.78 201.485 58.78H198.065V62.14H201.485C202.192 62.14 202.732 61.9933 203.105 61.7C203.478 61.4067 203.665 61 203.665 60.48ZM204.065 64.98C204.065 63.74 203.205 63.12 201.485 63.12H198.065V66.94H201.485C203.205 66.94 204.065 66.2866 204.065 64.98Z" fill="#282626"/>
<path d="M211.576 57.42C213.056 57.42 214.229 57.9133 215.096 58.9C215.976 59.8867 216.416 61.22 216.416 62.9C216.416 64.5667 215.983 65.8867 215.116 66.86C214.249 67.82 213.069 68.3 211.576 68.3C210.083 68.3 208.889 67.8133 207.996 66.84C207.116 65.8533 206.676 64.5266 206.676 62.86C206.676 61.2066 207.116 59.8867 207.996 58.9C208.889 57.9133 210.083 57.42 211.576 57.42ZM214.176 59.68C213.523 58.88 212.649 58.48 211.556 58.48C210.463 58.48 209.589 58.88 208.936 59.68C208.283 60.4667 207.956 61.5266 207.956 62.86C207.956 64.22 208.276 65.2933 208.916 66.08C209.569 66.8667 210.463 67.26 211.596 67.26C212.689 67.26 213.556 66.8667 214.196 66.08C214.836 65.2933 215.156 64.2267 215.156 62.88C215.156 61.5333 214.829 60.4667 214.176 59.68Z" fill="#282626"/>
<path d="M225.658 58.78H221.838V68H220.578V58.78H216.758V57.72H225.658V58.78Z" fill="#282626"/>
<path d="M235.205 68H233.945V63.16H228.085V68H226.825V57.72H228.085V62.1H233.945V57.72H235.205V68Z" fill="#282626"/>
<path d="M237.527 57.72H238.787V61.76H242.127C243.127 61.76 243.92 62.04 244.507 62.6C245.093 63.16 245.387 63.92 245.387 64.88C245.387 65.8533 245.093 66.62 244.507 67.18C243.92 67.7267 243.127 68 242.127 68H237.527V57.72ZM244.127 64.88C244.127 64.2267 243.92 63.72 243.507 63.36C243.107 63 242.547 62.82 241.827 62.82H238.787V66.94H241.827C242.56 66.94 243.127 66.7667 243.527 66.42C243.927 66.06 244.127 65.5467 244.127 64.88ZM247.327 57.72H248.587V68H247.327V57.72Z" fill="#282626"/>
<path d="M258.927 57.72L255.287 62.52L259.347 68H257.747L255.007 64.24C254.967 64.1867 254.913 64.12 254.847 64.04C254.793 63.9467 254.733 63.8533 254.667 63.76C254.613 63.6667 254.553 63.5667 254.487 63.46C254.34 63.7 254.167 63.9533 253.967 64.22L251.247 68H249.747L253.727 62.6L250.047 57.72H251.647L253.867 60.72C253.947 60.8133 254.053 60.9733 254.187 61.2C254.333 61.4133 254.44 61.5733 254.507 61.68C254.893 61.12 255.113 60.8 255.167 60.72L257.447 57.72H258.927Z" fill="#282626"/>
<path d="M2.55998 35C1.97331 35 1.47998 34.8 1.07998 34.4C0.67998 34 0.47998 33.5067 0.47998 32.92V5.84001C0.47998 5.22668 0.67998 4.73334 1.07998 4.36001C1.47998 3.96001 1.97331 3.76001 2.55998 3.76001H20.64C21.2533 3.76001 21.7466 3.94668 22.12 4.32001C22.4933 4.66668 22.68 5.13334 22.68 5.72001C22.68 6.28001 22.4933 6.73334 22.12 7.08001C21.7466 7.42668 21.2533 7.60001 20.64 7.60001H4.63998V17.32H16.12C16.7333 17.32 17.2267 17.5067 17.6 17.88C17.9733 18.2267 18.16 18.68 18.16 19.24C18.16 19.8 17.9733 20.2667 17.6 20.64C17.2267 20.9867 16.7333 21.16 16.12 21.16H4.63998V32.92C4.63998 33.5067 4.43998 34 4.03998 34.4C3.63998 34.8 3.14665 35 2.55998 35Z" fill="#282626"/>
<path d="M29.56 21.32C29.56 19.72 29.9466 18.2933 30.72 17.04C31.52 15.76 32.5867 14.7467 33.92 14C35.2533 13.2533 36.72 12.88 38.32 12.88C39.92 12.88 41.1066 13.1467 41.88 13.68C42.68 14.1867 42.9867 14.8 42.8 15.52C42.72 15.8933 42.56 16.1867 42.32 16.4C42.1066 16.5867 41.8533 16.7067 41.56 16.76C41.2667 16.8133 40.9467 16.8 40.6 16.72C38.8933 16.3733 37.36 16.3467 36 16.64C34.64 16.9333 33.56 17.48 32.76 18.28C31.9867 19.08 31.6 20.0933 31.6 21.32H29.56ZM29.6 35C28.96 35 28.4666 34.84 28.12 34.52C27.7733 34.1733 27.6 33.6667 27.6 33V15.12C27.6 14.48 27.7733 13.9867 28.12 13.64C28.4666 13.2933 28.96 13.12 29.6 13.12C30.2666 13.12 30.76 13.2933 31.08 13.64C31.4266 13.96 31.6 14.4533 31.6 15.12V33C31.6 33.64 31.4266 34.1333 31.08 34.48C30.76 34.8267 30.2666 35 29.6 35Z" fill="#282626"/>
<path d="M49.4931 35C48.9064 35 48.4131 34.8133 48.0131 34.44C47.6398 34.04 47.4531 33.5467 47.4531 32.96V15.16C47.4531 14.5467 47.6398 14.0533 48.0131 13.68C48.4131 13.3067 48.9064 13.12 49.4931 13.12C50.1064 13.12 50.5998 13.3067 50.9731 13.68C51.3464 14.0533 51.5331 14.5467 51.5331 15.16V32.96C51.5331 33.5467 51.3464 34.04 50.9731 34.44C50.5998 34.8133 50.1064 35 49.4931 35ZM49.4931 9.56001C48.7731 9.56001 48.1464 9.30668 47.6131 8.80001C47.1064 8.26668 46.8531 7.64001 46.8531 6.92001C46.8531 6.20001 47.1064 5.58668 47.6131 5.08001C48.1464 4.54668 48.7731 4.28001 49.4931 4.28001C50.2131 4.28001 50.8264 4.54668 51.3331 5.08001C51.8664 5.58668 52.1331 6.20001 52.1331 6.92001C52.1331 7.64001 51.8664 8.26668 51.3331 8.80001C50.8264 9.30668 50.2131 9.56001 49.4931 9.56001Z" fill="#282626"/>
<path d="M69.4034 35.16C67.1901 35.16 65.2168 34.6933 63.4834 33.76C61.7767 32.8 60.4301 31.4933 59.4434 29.84C58.4834 28.16 58.0034 26.24 58.0034 24.08C58.0034 21.8933 58.4568 19.9733 59.3634 18.32C60.2968 16.64 61.5768 15.3333 63.2034 14.4C64.8301 13.44 66.6967 12.96 68.8034 12.96C70.8834 12.96 72.6701 13.4267 74.1634 14.36C75.6567 15.2667 76.7901 16.5333 77.5634 18.16C78.3634 19.76 78.7634 21.6133 78.7634 23.72C78.7634 24.2267 78.5901 24.6533 78.2434 25C77.8968 25.32 77.4567 25.48 76.9234 25.48H60.8034V22.28H76.8034L75.1634 23.4C75.1367 22.0667 74.8701 20.88 74.3634 19.84C73.8568 18.7733 73.1367 17.9333 72.2034 17.32C71.2701 16.7067 70.1367 16.4 68.8034 16.4C67.2834 16.4 65.9767 16.7333 64.8834 17.4C63.8167 18.0667 63.0034 18.9867 62.4434 20.16C61.8834 21.3067 61.6034 22.6133 61.6034 24.08C61.6034 25.5467 61.9368 26.8533 62.6034 28C63.2701 29.1467 64.1901 30.0533 65.3634 30.72C66.5368 31.3867 67.8834 31.72 69.4034 31.72C70.2301 31.72 71.0701 31.5733 71.9234 31.28C72.8034 30.96 73.5101 30.6 74.0434 30.2C74.4434 29.9067 74.8701 29.76 75.3234 29.76C75.8034 29.7333 76.2168 29.8667 76.5634 30.16C77.0167 30.56 77.2568 31 77.2834 31.48C77.3101 31.96 77.0967 32.3733 76.6434 32.72C75.7367 33.44 74.6034 34.0267 73.2434 34.48C71.9101 34.9333 70.6301 35.16 69.4034 35.16Z" fill="#282626"/>
<path d="M102.447 35.04C101.86 35.04 101.367 34.8533 100.967 34.48C100.594 34.08 100.407 33.5867 100.407 33V23.16C100.407 21.64 100.127 20.4 99.5672 19.44C99.0072 18.48 98.2472 17.7733 97.2872 17.32C96.3538 16.84 95.2738 16.6 94.0472 16.6C92.9272 16.6 91.9138 16.8267 91.0072 17.28C90.1005 17.7333 89.3805 18.3467 88.8472 19.12C88.3138 19.8667 88.0472 20.7333 88.0472 21.72H85.5272C85.5272 20.04 85.9272 18.5467 86.7272 17.24C87.5538 15.9067 88.6738 14.8533 90.0872 14.08C91.5005 13.3067 93.0872 12.92 94.8472 12.92C96.6872 12.92 98.3272 13.32 99.7672 14.12C101.234 14.8933 102.381 16.04 103.207 17.56C104.061 19.08 104.487 20.9467 104.487 23.16V33C104.487 33.5867 104.287 34.08 103.887 34.48C103.514 34.8533 103.034 35.04 102.447 35.04ZM86.0072 35.04C85.4205 35.04 84.9272 34.8533 84.5272 34.48C84.1538 34.08 83.9672 33.5867 83.9672 33V15.16C83.9672 14.5467 84.1538 14.0533 84.5272 13.68C84.9272 13.3067 85.4205 13.12 86.0072 13.12C86.6205 13.12 87.1138 13.3067 87.4872 13.68C87.8605 14.0533 88.0472 14.5467 88.0472 15.16V33C88.0472 33.5867 87.8605 34.08 87.4872 34.48C87.1138 34.8533 86.6205 35.04 86.0072 35.04Z" fill="#282626"/>
<path d="M121.153 35.16C119.073 35.16 117.193 34.68 115.513 33.72C113.859 32.7333 112.539 31.4 111.553 29.72C110.593 28.04 110.113 26.1467 110.113 24.04C110.113 21.9333 110.553 20.0533 111.433 18.4C112.339 16.72 113.566 15.4 115.113 14.44C116.659 13.4533 118.406 12.96 120.353 12.96C121.926 12.96 123.379 13.2933 124.713 13.96C126.046 14.6 127.166 15.48 128.073 16.6V5.80001C128.073 5.18668 128.259 4.69334 128.633 4.32001C129.033 3.94668 129.526 3.76001 130.113 3.76001C130.726 3.76001 131.219 3.94668 131.593 4.32001C131.966 4.69334 132.153 5.18668 132.153 5.80001V24.04C132.153 26.1467 131.659 28.04 130.673 29.72C129.713 31.4 128.406 32.7333 126.753 33.72C125.099 34.68 123.233 35.16 121.153 35.16ZM121.153 31.56C122.513 31.56 123.726 31.24 124.793 30.6C125.859 29.9333 126.699 29.0267 127.313 27.88C127.926 26.7333 128.233 25.4533 128.233 24.04C128.233 22.6 127.926 21.32 127.313 20.2C126.699 19.08 125.859 18.2 124.793 17.56C123.726 16.8933 122.513 16.56 121.153 16.56C119.819 16.56 118.606 16.8933 117.513 17.56C116.446 18.2 115.593 19.08 114.953 20.2C114.339 21.32 114.033 22.6 114.033 24.04C114.033 25.4533 114.339 26.7333 114.953 27.88C115.593 29.0267 116.446 29.9333 117.513 30.6C118.606 31.24 119.819 31.56 121.153 31.56Z" fill="#282626"/>
<path d="M144.558 35C143.384 35 142.344 34.68 141.438 34.04C140.531 33.4 139.824 32.5333 139.318 31.44C138.811 30.32 138.558 29.04 138.558 27.6V5.76001C138.558 5.17334 138.744 4.69334 139.118 4.32001C139.491 3.94668 139.971 3.76001 140.558 3.76001C141.144 3.76001 141.624 3.94668 141.998 4.32001C142.371 4.69334 142.558 5.17334 142.558 5.76001V27.6C142.558 28.5867 142.744 29.4 143.118 30.04C143.491 30.68 143.971 31 144.558 31H145.558C146.091 31 146.518 31.1867 146.838 31.56C147.184 31.9333 147.358 32.4133 147.358 33C147.358 33.5867 147.104 34.0667 146.598 34.44C146.091 34.8133 145.438 35 144.638 35H144.558Z" fill="#282626"/>
<path d="M155.27 44.6C155.003 44.6 154.683 44.52 154.31 44.36C153.137 43.8267 152.817 42.9867 153.35 41.84L165.55 14.28C166.083 13.16 166.923 12.84 168.07 13.32C169.27 13.8267 169.603 14.6667 169.07 15.84L156.83 43.36C156.51 44.1867 155.99 44.6 155.27 44.6ZM159.99 34.12C159.483 34.3333 159.003 34.36 158.55 34.2C158.123 34.0133 157.777 33.6667 157.51 33.16L148.35 15.76C148.083 15.2533 148.043 14.7733 148.23 14.32C148.443 13.84 148.803 13.4933 149.31 13.28C149.817 13.0667 150.297 13.0533 150.75 13.24C151.203 13.4 151.55 13.7333 151.79 14.24L160.55 31.64C160.817 32.1467 160.91 32.64 160.83 33.12C160.777 33.5733 160.497 33.9067 159.99 34.12Z" fill="#282626"/>
<path d="M187.111 35C186.525 35 186.031 34.8 185.631 34.4C185.231 34 185.031 33.5067 185.031 32.92V5.84001C185.031 5.22668 185.231 4.73334 185.631 4.36001C186.031 3.96001 186.525 3.76001 187.111 3.76001C187.725 3.76001 188.218 3.96001 188.591 4.36001C188.991 4.73334 189.191 5.22668 189.191 5.84001V17.32H207.751V5.84001C207.751 5.22668 207.951 4.73334 208.351 4.36001C208.751 3.96001 209.245 3.76001 209.831 3.76001C210.445 3.76001 210.938 3.96001 211.311 4.36001C211.685 4.73334 211.871 5.22668 211.871 5.84001V32.92C211.871 33.5067 211.685 34 211.311 34.4C210.938 34.8 210.445 35 209.831 35C209.245 35 208.751 34.8 208.351 34.4C207.951 34 207.751 33.5067 207.751 32.92V21H189.191V32.92C189.191 33.5067 188.991 34 188.591 34.4C188.218 34.8 187.725 35 187.111 35Z" fill="#282626"/>
<path d="M229.395 35.16C227.235 35.16 225.328 34.6933 223.675 33.76C222.022 32.8 220.715 31.4933 219.755 29.84C218.822 28.16 218.355 26.24 218.355 24.08C218.355 21.8933 218.822 19.9733 219.755 18.32C220.715 16.64 222.022 15.3333 223.675 14.4C225.328 13.44 227.235 12.96 229.395 12.96C231.528 12.96 233.422 13.44 235.075 14.4C236.728 15.3333 238.022 16.64 238.955 18.32C239.915 19.9733 240.395 21.8933 240.395 24.08C240.395 26.24 239.928 28.16 238.995 29.84C238.062 31.4933 236.768 32.8 235.115 33.76C233.462 34.6933 231.555 35.16 229.395 35.16ZM229.395 31.56C230.782 31.56 232.008 31.24 233.075 30.6C234.142 29.96 234.968 29.08 235.555 27.96C236.168 26.84 236.475 25.5467 236.475 24.08C236.475 22.6133 236.168 21.32 235.555 20.2C234.968 19.0533 234.142 18.16 233.075 17.52C232.008 16.88 230.782 16.56 229.395 16.56C228.008 16.56 226.782 16.88 225.715 17.52C224.648 18.16 223.808 19.0533 223.195 20.2C222.582 21.32 222.275 22.6133 222.275 24.08C222.275 25.5467 222.582 26.84 223.195 27.96C223.808 29.08 224.648 29.96 225.715 30.6C226.782 31.24 228.008 31.56 229.395 31.56Z" fill="#282626"/>
<path d="M255.667 35.2C253.827 35.2 252.174 34.8133 250.707 34.04C249.267 33.24 248.12 32.08 247.267 30.56C246.441 29.04 246.027 27.1733 246.027 24.96V15.12C246.027 14.5333 246.214 14.0533 246.587 13.68C246.987 13.28 247.48 13.08 248.067 13.08C248.654 13.08 249.134 13.28 249.507 13.68C249.907 14.0533 250.107 14.5333 250.107 15.12V24.96C250.107 26.4533 250.387 27.6933 250.947 28.68C251.507 29.64 252.267 30.36 253.227 30.84C254.187 31.2933 255.267 31.52 256.467 31.52C257.614 31.52 258.627 31.2933 259.507 30.84C260.414 30.3867 261.134 29.7733 261.667 29C262.2 28.2267 262.467 27.36 262.467 26.4H264.987C264.987 28.0533 264.574 29.5467 263.747 30.88C262.947 32.2133 261.84 33.2667 260.427 34.04C259.04 34.8133 257.454 35.2 255.667 35.2ZM264.507 35C263.921 35 263.427 34.8133 263.027 34.44C262.654 34.04 262.467 33.5467 262.467 32.96V15.12C262.467 14.5067 262.654 14.0133 263.027 13.64C263.427 13.2667 263.921 13.08 264.507 13.08C265.121 13.08 265.614 13.2667 265.987 13.64C266.36 14.0133 266.547 14.5067 266.547 15.12V32.96C266.547 33.5467 266.36 34.04 265.987 34.44C265.614 34.8133 265.121 35 264.507 35Z" fill="#282626"/>
<path d="M281.693 35.16C279.826 35.16 278.093 34.88 276.493 34.32C274.919 33.7333 273.693 33 272.813 32.12C272.413 31.6933 272.239 31.2133 272.293 30.68C272.373 30.12 272.639 29.6667 273.093 29.32C273.626 28.8933 274.146 28.72 274.653 28.8C275.186 28.8533 275.639 29.08 276.013 29.48C276.466 29.9867 277.186 30.4667 278.173 30.92C279.186 31.3467 280.306 31.56 281.533 31.56C283.079 31.56 284.253 31.3067 285.053 30.8C285.879 30.2933 286.306 29.64 286.333 28.84C286.359 28.04 285.973 27.3467 285.173 26.76C284.399 26.1733 282.973 25.6933 280.893 25.32C278.199 24.7867 276.239 23.9867 275.013 22.92C273.813 21.8533 273.213 20.5467 273.213 19C273.213 17.64 273.613 16.52 274.413 15.64C275.213 14.7333 276.239 14.0667 277.493 13.64C278.746 13.1867 280.053 12.96 281.413 12.96C283.173 12.96 284.733 13.24 286.093 13.8C287.453 14.36 288.533 15.1333 289.333 16.12C289.706 16.5467 289.879 17 289.853 17.48C289.826 17.9333 289.599 18.32 289.173 18.64C288.746 18.9333 288.239 19.0267 287.653 18.92C287.066 18.8133 286.573 18.5733 286.173 18.2C285.506 17.56 284.786 17.12 284.013 16.88C283.239 16.64 282.346 16.52 281.333 16.52C280.159 16.52 279.159 16.72 278.333 17.12C277.533 17.52 277.133 18.1067 277.133 18.88C277.133 19.36 277.253 19.8 277.493 20.2C277.759 20.5733 278.266 20.92 279.013 21.24C279.759 21.5333 280.853 21.8267 282.293 22.12C284.293 22.52 285.866 23.0267 287.013 23.64C288.186 24.2533 289.026 24.9733 289.533 25.8C290.039 26.6 290.293 27.5333 290.293 28.6C290.293 29.8267 289.959 30.9333 289.293 31.92C288.653 32.9067 287.693 33.6933 286.413 34.28C285.159 34.8667 283.586 35.16 281.693 35.16Z" fill="#282626"/>
<path d="M305.732 35.16C303.518 35.16 301.545 34.6933 299.812 33.76C298.105 32.8 296.758 31.4933 295.772 29.84C294.812 28.16 294.332 26.24 294.332 24.08C294.332 21.8933 294.785 19.9733 295.692 18.32C296.625 16.64 297.905 15.3333 299.532 14.4C301.158 13.44 303.025 12.96 305.132 12.96C307.212 12.96 308.998 13.4267 310.492 14.36C311.985 15.2667 313.118 16.5333 313.892 18.16C314.692 19.76 315.092 21.6133 315.092 23.72C315.092 24.2267 314.918 24.6533 314.572 25C314.225 25.32 313.785 25.48 313.252 25.48H297.132V22.28H313.132L311.492 23.4C311.465 22.0667 311.198 20.88 310.692 19.84C310.185 18.7733 309.465 17.9333 308.532 17.32C307.598 16.7067 306.465 16.4 305.132 16.4C303.612 16.4 302.305 16.7333 301.212 17.4C300.145 18.0667 299.332 18.9867 298.772 20.16C298.212 21.3067 297.932 22.6133 297.932 24.08C297.932 25.5467 298.265 26.8533 298.932 28C299.598 29.1467 300.518 30.0533 301.692 30.72C302.865 31.3867 304.212 31.72 305.732 31.72C306.558 31.72 307.398 31.5733 308.252 31.28C309.132 30.96 309.838 30.6 310.372 30.2C310.772 29.9067 311.198 29.76 311.652 29.76C312.132 29.7333 312.545 29.8667 312.892 30.16C313.345 30.56 313.585 31 313.612 31.48C313.638 31.96 313.425 32.3733 312.972 32.72C312.065 33.44 310.932 34.0267 309.572 34.48C308.238 34.9333 306.958 35.16 305.732 35.16Z" fill="#282626"/>
<g clip-path="url(#clip0_501_150)">
<path d="M338.338 26.6709C337.678 26.1939 337.292 25.7107 337.157 25.193C336.657 23.2602 335.043 21.8494 333.231 21.8494C331.42 21.8494 329.745 23.2602 329.245 25.1939C329.11 25.7098 328.725 26.1939 328.064 26.6717C327.26 27.2542 326.892 28.1551 327.104 29.0238C327.359 30.0689 328.519 30.9984 330.107 30.9984C330.778 30.9984 331.415 30.8262 331.949 30.501C332.304 30.2837 332.786 30.1685 333.23 30.1685C333.673 30.1685 334.094 30.2829 334.453 30.5001C334.989 30.8272 335.622 31 336.287 31C337.874 31 339.042 30.0753 339.298 29.024C339.51 28.1551 339.141 27.2532 338.338 26.6709Z" fill="#FF8A00"/>
<path d="M328.631 21.8493C328.631 20.7988 327.801 19.1257 326.816 19.1257C325.831 19.1257 325 20.7988 325 21.8493C325 22.8503 325.815 23.665 326.816 23.665C327.817 23.665 328.631 22.8503 328.631 21.8493Z" fill="#FF8A00"/>
<path d="M339.586 19.1257C338.602 19.1257 337.771 20.7988 337.771 21.8493C337.771 22.8503 338.585 23.665 339.586 23.665C340.587 23.665 341.402 22.8503 341.402 21.8493C341.402 20.7988 340.571 19.1257 339.586 19.1257Z" fill="#FF8A00"/>
<path d="M334.139 18.2177C334.139 19.2188 334.954 20.0336 335.955 20.0336C336.956 20.0336 337.771 19.2188 337.771 18.2177C337.771 17.1671 336.94 15.4943 335.955 15.4943C334.97 15.4943 334.139 17.1671 334.139 18.2177Z" fill="#FF8A00"/>
<path d="M330.447 20.0336C331.448 20.0336 332.263 19.2188 332.263 18.2177C332.263 17.1671 331.432 15.4943 330.447 15.4943C329.462 15.4943 328.631 17.1671 328.631 18.2177C328.631 19.2188 329.446 20.0336 330.447 20.0336Z" fill="#FF8A00"/>
<path d="M352.924 11.1767C352.264 10.6996 351.878 10.1559 351.743 9.63818C351.244 7.70541 349.569 6.35516 347.757 6.35516C345.946 6.35516 344.331 7.70541 343.831 9.63912C343.697 10.1552 343.311 10.6996 342.65 11.1776C341.846 11.7602 341.478 12.6608 341.69 13.5297C341.945 14.5746 343.106 15.5041 344.693 15.5041C345.364 15.5041 346.002 15.3322 346.536 15.0067C346.89 14.7894 347.312 14.6742 347.755 14.6742C348.199 14.6742 348.68 14.7887 349.039 15.0058C349.575 15.3329 350.209 15.506 350.874 15.506C352.46 15.506 353.628 14.581 353.885 13.5297C354.097 12.6608 353.728 11.7592 352.924 11.1767Z" fill="#FF8A00"/>
<path d="M343.218 6.35507C343.218 5.30449 342.387 3.63141 341.402 3.63141C340.417 3.63141 339.586 5.30449 339.586 6.35507C339.586 7.35599 340.401 8.17077 341.402 8.17077C342.403 8.17077 343.218 7.35599 343.218 6.35507Z" fill="#FF8A00"/>
<path d="M354.173 3.63141C353.188 3.63141 352.357 5.30449 352.357 6.35507C352.357 7.35599 353.172 8.17077 354.173 8.17077C355.174 8.17077 355.989 7.35599 355.989 6.35507C355.989 5.30449 355.158 3.63141 354.173 3.63141Z" fill="#FF8A00"/>
<path d="M348.726 2.72366C348.726 3.72458 349.54 4.53936 350.541 4.53936C351.542 4.53936 352.357 3.72458 352.357 2.72366C352.357 1.67308 351.526 0 350.541 0C349.556 0 348.726 1.67308 348.726 2.72366Z" fill="#FF8A00"/>
<path d="M343.218 2.72366C343.218 3.72458 344.033 4.53936 345.034 4.53936C346.035 4.53936 346.849 3.72458 346.849 2.72366C346.849 1.67308 346.018 0 345.034 0C344.049 0 343.218 1.67308 343.218 2.72366Z" fill="#FF8A00"/>
</g>
<defs>
<clipPath id="clip0_501_150">
<rect width="31" height="31" fill="white" transform="translate(325)"/>
</clipPath>
</defs>
</svg>
