<svg width="16" height="16" fill="none" xmlns="http://www.w3.org/2000/svg"><path d="M7.533 12.867a.662.662 0 0 1-.192-.467.603.603 0 0 1 .176-.467l3.266-3.266h-7.45a.646.646 0 0 1-.475-.192A.642.642 0 0 1 2.667 8c0-.189.064-.347.192-.475a.643.643 0 0 1 .474-.192h7.45L7.517 4.067A.606.606 0 0 1 7.34 3.6a.659.659 0 0 1 .192-.467A.632.632 0 0 1 8 2.95c.189 0 .344.061.467.183l4.4 4.4a.454.454 0 0 1 .141.209.792.792 0 0 1 0 .508.577.577 0 0 1-.141.217l-4.4 4.4A.632.632 0 0 1 8 13.05a.632.632 0 0 1-.467-.183Z" fill="#FFAA05"/></svg>