<svg width="96" height="96" fill="none" xmlns="http://www.w3.org/2000/svg"><path d="M32.64 43.11c7.667 0 13.904-9.667 13.904-21.554C46.544 9.671 40.307 0 32.64 0c-7.666 0-13.903 9.67-13.903 21.556 0 11.887 6.237 21.554 13.903 21.554Zm41.243 20.968c-.285-.45-.559-.873-.705-1.236-3.11-7.688-11.632-16.75-25.44-16.976l-.53-.003c-13.596 0-22.056 8.583-25.44 16.619-.117.274-.374.631-.647 1.008-.322.442-.641.895-.914 1.386-2.859 5.137-4.317 10.922-4.101 16.286.225 5.695 2.29 10.27 5.802 12.879 1.42 1.053 2.951 1.584 4.558 1.584 3.313 0 6.347-2.156 9.862-4.653 2.235-1.59 4.544-3.232 7.109-4.461.287-.11 1.465-.277 3.39-.277 2.29 0 3.936.236 4.287.376 2.503 1.276 4.702 2.95 6.828 4.567C61.202 93.658 64.28 96 67.62 96c1.433 0 2.823-.437 4.133-1.297 7.23-4.745 8.608-17.762 3.072-29.016-.278-.565-.609-1.092-.941-1.61ZM62.207 43.11c7.664 0 13.903-9.667 13.903-21.554C76.11 9.671 69.87 0 62.207 0 54.537 0 48.3 9.67 48.3 21.556c0 11.887 6.237 21.554 13.906 21.554Zm22.835-11.068c-6.146 0-10.955 7.362-10.955 16.76 0 9.394 4.812 16.757 10.955 16.757C91.184 65.559 96 58.196 96 48.802c0-9.398-4.813-16.76-10.958-16.76Zm-63.13 16.76c0-9.398-4.812-16.76-10.955-16.76C4.813 32.042 0 39.404 0 48.802 0 58.196 4.813 65.56 10.957 65.56c6.143 0 10.955-7.363 10.955-16.757Z" fill="#F4A201"/></svg>