<svg width="200" height="32" fill="none" xmlns="http://www.w3.org/2000/svg"><path d="M38.823 27.022V8.974h9.32c2.133 0 3.737.53 4.813 1.587 1.075 1.041 1.613 2.45 1.613 4.224 0 1.758-.538 3.166-1.613 4.224-1.076 1.059-2.68 1.588-4.814 1.588h-3.789v6.425h-5.53Zm5.53-10.624H47.4c.649 0 1.127-.136 1.434-.41.307-.29.46-.69.46-1.203 0-.512-.153-.904-.46-1.177-.308-.29-.785-.435-1.434-.435h-3.047v3.225ZM56.6 27.022V8.974h8.884c2.134 0 3.781.512 4.942 1.536 1.16 1.024 1.74 2.44 1.74 4.25 0 1.194-.264 2.227-.793 3.097-.512.854-1.272 1.52-2.279 1.997-1.007.461-2.227.691-3.66.691l.178-.742h1.511c.751 0 1.425.222 2.023.666.597.426 1.092.99 1.485 1.69l2.79 4.863h-6.068l-3.097-5.683c-.137-.256-.359-.435-.666-.538a2.594 2.594 0 0 0-.948-.179h-.512v6.4H56.6Zm5.53-10.265h2.356c.785 0 1.382-.145 1.792-.436.41-.307.615-.768.615-1.382 0-.597-.205-1.041-.615-1.331-.41-.29-1.007-.435-1.792-.435H62.13v3.584Zm12.897 10.265V8.974h13.39v4.199h-8.115v2.585h7.501v4.199h-7.501v2.867h8.116v4.198h-13.39Zm19.898 0V13.43h-5.223V8.974h15.976v4.455h-5.223v13.593h-5.53Zm16.977 0V13.43h-5.223V8.974h15.976v4.455h-5.223v13.593h-5.53Z" fill="#FFAA05"/><path d="M129.311 27.022v-8.678l1.075 2.97-8.244-12.34h6.35l4.173 6.707h-1.05l4.199-6.707h6.171l-8.245 12.34 1.101-2.97v8.678h-5.53Zm13.721 0V8.974h7.015c1.861 0 3.294.444 4.301 1.331 1.024.888 1.537 2.134 1.537 3.738 0 1.57-.513 2.808-1.537 3.712-1.007.905-2.44 1.357-4.301 1.357h-5.428v7.91h-1.587Zm1.587-9.293h5.326c1.416 0 2.492-.315 3.226-.947.734-.648 1.101-1.561 1.101-2.739s-.367-2.09-1.101-2.74c-.734-.648-1.81-.972-3.226-.972h-5.326v7.398Zm11.349 9.293 7.86-18.048h1.434l7.988 18.048h-1.664l-2.253-5.197.743.384h-11.112l.87-.384-2.202 5.197h-1.664Zm8.552-16.128-4.379 10.266-.588-.307h9.934l-.436.307-4.48-10.266h-.051Zm15.305 16.128-6.247-18.048h1.664l5.786 16.922h-.845L186.2 8.974h1.331l5.735 16.922h-.768l5.915-16.922H200l-6.324 18.048h-1.511l-5.555-16.435h.512l-5.838 16.435h-1.459ZM8.594 31.467c-.393 0-.783.063-1.156.187A6.744 6.744 0 0 1 5.305 32a2.64 2.64 0 0 1-1.865-4.507l.67-.666a6.25 6.25 0 0 0 1.644-2.904 3.413 3.413 0 0 1 5.416-1.867 3.413 3.413 0 0 1 1.212 1.864 6.25 6.25 0 0 0 1.646 2.907l.667.666a2.638 2.638 0 0 1 0 3.734 2.64 2.64 0 0 1-1.867.773 6.744 6.744 0 0 1-2.133-.346 3.655 3.655 0 0 0-1.154-.187h-.947ZM2.134 25.6c1.178 0 2.133-1.194 2.133-2.667 0-1.472-.955-2.666-2.133-2.666C.955 20.267 0 21.46 0 22.933 0 24.406.955 25.6 2.134 25.6ZM6.4 20.267c1.18 0 2.134-1.194 2.134-2.667 0-1.473-.955-2.667-2.133-2.667-1.179 0-2.134 1.194-2.134 2.667 0 1.473.955 2.667 2.134 2.667Zm5.335 0c1.178 0 2.133-1.194 2.133-2.667 0-1.473-.955-2.667-2.133-2.667-1.179 0-2.134 1.194-2.134 2.667 0 1.473.955 2.667 2.134 2.667Zm4.267 5.333c1.178 0 2.134-1.194 2.134-2.667 0-1.472-.956-2.666-2.134-2.666s-2.134 1.194-2.134 2.666c0 1.473.956 2.667 2.134 2.667Zm6.46-9.067c-.392 0-.783.064-1.155.188a6.748 6.748 0 0 1-2.131.346 2.64 2.64 0 0 1-1.867-4.507l.67-.667a6.249 6.249 0 0 0 1.643-2.903 3.413 3.413 0 0 1 5.417-1.867 3.414 3.414 0 0 1 1.211 1.864 6.25 6.25 0 0 0 1.647 2.906l.667.667a2.638 2.638 0 0 1-.857 4.306 2.64 2.64 0 0 1-1.01.2 6.748 6.748 0 0 1-2.131-.345 3.656 3.656 0 0 0-1.156-.188h-.948Zm-6.46-5.866c1.178 0 2.134-1.194 2.134-2.667 0-1.473-.956-2.667-2.134-2.667S13.868 6.527 13.868 8c0 1.473.956 2.667 2.134 2.667Zm4.268-5.334c1.178 0 2.133-1.194 2.133-2.666 0-1.473-.955-2.667-2.134-2.667-1.178 0-2.133 1.194-2.133 2.667 0 1.472.955 2.666 2.133 2.666Zm5.333 0c1.178 0 2.134-1.194 2.134-2.666 0-1.473-.955-2.667-2.134-2.667-1.178 0-2.133 1.194-2.133 2.667 0 1.472.955 2.666 2.133 2.666Zm4.267 5.334c1.179 0 2.134-1.194 2.134-2.667 0-1.473-.955-2.667-2.134-2.667-1.178 0-2.133 1.194-2.133 2.667 0 1.473.955 2.667 2.133 2.667Z" fill="#FFAA05"/></svg>