<svg width="360" height="56" fill="none" xmlns="http://www.w3.org/2000/svg"><path d="M69.881 47.289V15.705h16.775c3.84 0 6.729.926 8.665 2.778 1.935 1.821 2.903 4.285 2.903 7.392 0 3.076-.968 5.54-2.903 7.392-1.936 1.851-4.824 2.777-8.665 2.777h-6.82V47.29H69.88Zm9.955-18.592h5.484c1.168 0 2.028-.239 2.58-.717.554-.508.83-1.21.83-2.105 0-.896-.276-1.583-.83-2.061-.552-.508-1.413-.762-2.58-.762h-5.484v5.645Zm22.044 18.592V15.705h15.992c3.84 0 6.805.896 8.894 2.688 2.09 1.792 3.134 4.27 3.134 7.437 0 2.09-.476 3.897-1.428 5.42-.922 1.494-2.289 2.659-4.102 3.495-1.813.806-4.009 1.21-6.59 1.21l.322-1.3h2.719c1.352 0 2.566.389 3.641 1.165 1.076.747 1.967 1.732 2.673 2.957l5.024 8.512h-10.923l-5.576-9.946c-.246-.448-.645-.761-1.198-.94a4.787 4.787 0 0 0-1.706-.314h-.921v11.2h-9.955Zm9.955-17.965h4.24c1.413 0 2.488-.254 3.226-.762.737-.537 1.106-1.344 1.106-2.419 0-1.045-.369-1.822-1.106-2.33-.738-.507-1.813-.76-3.226-.76h-4.24v6.271Zm23.214 17.965V15.705h24.103v7.347h-14.609v4.525h13.503v7.347h-13.503v5.018h14.609v7.347h-24.103Zm35.815 0V23.5h-9.401v-7.795h28.757V23.5h-9.401v23.79h-9.955Zm30.559 0V23.5h-9.401v-7.795h28.757V23.5h-9.401v23.79h-9.955Z" fill="#000"/><path d="M232.76 47.289V32.102l1.936 5.197-14.84-21.594h11.429l7.512 11.737h-1.889l7.558-11.737h11.106l-14.839 21.593 1.981-5.196v15.187h-9.954Zm24.697 0V15.705h12.628c3.349 0 5.929.776 7.742 2.33 1.844 1.553 2.765 3.733 2.765 6.54 0 2.748-.921 4.913-2.765 6.496-1.813 1.583-4.393 2.375-7.742 2.375h-9.77v13.843h-2.858Zm2.858-16.263h9.585c2.55 0 4.486-.552 5.807-1.657 1.321-1.135 1.982-2.733 1.982-4.794 0-2.06-.661-3.658-1.982-4.793-1.321-1.135-3.257-1.703-5.807-1.703h-9.585v12.947Zm20.428 16.263 14.148-31.584h2.581l14.379 31.584h-2.996l-4.056-9.095 1.337.672h-20.001l1.567-.672-3.964 9.095h-2.995Zm15.392-28.224-7.88 17.965-1.06-.538h17.881l-.783.538-8.065-17.965h-.093Zm27.549 28.224L312.44 15.705h2.995l10.416 29.613h-1.521l10.83-29.613h2.396l10.323 29.613h-1.382l10.646-29.613H360l-11.383 31.584h-2.719l-10.001-28.762h.922L326.311 47.29h-2.627ZM15.47 55.067c-.708 0-1.41.11-2.081.328a12.458 12.458 0 0 1-3.84.605 4.822 4.822 0 0 1-3.358-1.355A4.556 4.556 0 0 1 4.8 51.38c0-.607.122-1.208.361-1.768.24-.56.59-1.07 1.03-1.499l1.206-1.166a10.863 10.863 0 0 0 2.959-5.081 5.961 5.961 0 0 1 2.18-3.266 6.258 6.258 0 0 1 3.785-1.267 6.26 6.26 0 0 1 3.785 1.266 5.961 5.961 0 0 1 2.18 3.262 10.865 10.865 0 0 0 2.964 5.086l1.2 1.166c.442.43.792.938 1.03 1.499.24.56.362 1.161.362 1.768 0 1.225-.5 2.4-1.392 3.267A4.822 4.822 0 0 1 23.091 56c-1.305 0-2.602-.204-3.84-.605a6.748 6.748 0 0 0-2.076-.328h-1.706ZM3.84 44.8c2.122 0 3.841-2.09 3.841-4.667s-1.72-4.666-3.84-4.666C1.718 35.467 0 37.556 0 40.133 0 42.711 1.72 44.8 3.84 44.8Zm7.681-9.333c2.121 0 3.84-2.09 3.84-4.667s-1.719-4.667-3.84-4.667c-2.12 0-3.84 2.09-3.84 4.667s1.72 4.667 3.84 4.667Zm9.602 0c2.12 0 3.84-2.09 3.84-4.667s-1.72-4.667-3.84-4.667c-2.121 0-3.84 2.09-3.84 4.667s1.719 4.667 3.84 4.667Zm7.681 9.333c2.12 0 3.84-2.09 3.84-4.667s-1.72-4.666-3.84-4.666c-2.121 0-3.84 2.089-3.84 4.666 0 2.578 1.719 4.667 3.84 4.667Zm11.628-15.867c-.707 0-1.41.111-2.08.329-1.237.4-2.532.605-3.836.605a4.82 4.82 0 0 1-3.36-1.354 4.555 4.555 0 0 1-1.392-3.266c0-.607.123-1.208.361-1.768.24-.56.59-1.07 1.03-1.499l1.206-1.167a10.864 10.864 0 0 0 2.959-5.08 5.961 5.961 0 0 1 2.18-3.266 6.259 6.259 0 0 1 3.785-1.267c1.372 0 2.704.445 3.785 1.265a5.961 5.961 0 0 1 2.18 3.263 10.863 10.863 0 0 0 2.964 5.085l1.2 1.167c.442.429.792.938 1.03 1.499a4.505 4.505 0 0 1 0 3.536 4.613 4.613 0 0 1-1.03 1.498c-.44.43-.965.77-1.541 1.002a4.871 4.871 0 0 1-1.82.352 12.47 12.47 0 0 1-3.835-.605 6.749 6.749 0 0 0-2.08-.329h-1.706ZM28.804 18.667c2.12 0 3.84-2.09 3.84-4.667s-1.72-4.667-3.84-4.667c-2.121 0-3.84 2.09-3.84 4.667s1.719 4.667 3.84 4.667Zm7.68-9.334c2.121 0 3.841-2.089 3.841-4.666 0-2.578-1.72-4.667-3.84-4.667-2.121 0-3.841 2.09-3.841 4.667s1.72 4.666 3.84 4.666Zm9.602 0c2.12 0 3.84-2.089 3.84-4.666 0-2.578-1.72-4.667-3.84-4.667-2.121 0-3.84 2.09-3.84 4.667s1.719 4.666 3.84 4.666Zm7.681 9.334c2.12 0 3.84-2.09 3.84-4.667s-1.72-4.667-3.84-4.667c-2.121 0-3.84 2.09-3.84 4.667s1.719 4.667 3.84 4.667Z" fill="#000"/></svg>