<svg width="580" height="580" fill="none" xmlns="http://www.w3.org/2000/svg"><g clip-path="url(#a)"><path d="M207.509 246.256c37.735 15.859 85.737-12.431 107.02-63.071 21.281-50.638 7.903-104.737-29.83-120.596-37.724-15.854-85.735 12.445-107.016 63.083-21.283 50.641-7.897 104.73 29.826 120.584Zm165.417 174.625c-.6-2.501-1.188-4.87-1.256-6.722-1.536-39.181-27.249-95.417-94.793-124.934l-2.608-1.113c-66.904-28.117-123.9-9.046-154.943 18.19-1.067.929-2.971 1.917-4.987 2.96-2.377 1.217-4.756 2.484-6.978 4.013-23.268 15.975-40.799 37.604-49.345 60.902-9.088 24.73-7.12 48.487 5.495 66.87 5.099 7.422 11.686 12.85 19.593 16.174 16.305 6.852 35.093 3.942 56.862.576 13.848-2.156 28.148-4.376 42.968-4.308 1.61.129 7.705 1.852 17.182 5.835 11.271 4.737 18.943 9.141 20.421 10.465 10.033 10.615 17.854 22.295 25.424 33.578 11.598 17.314 22.551 33.657 38.984 40.563 7.053 2.964 14.671 3.976 22.66 3.022 44.075-5.261 74.16-57.872 67.071-117.268-.356-2.98-1.041-5.911-1.75-8.803Zm-19.917-113.476c37.717 15.851 85.726-12.435 107.009-63.076 21.281-50.637 7.897-104.74-29.82-120.591-37.738-15.86-85.745 12.44-107.026 63.079-21.283 50.641-7.901 104.728 29.837 120.588Zm132.19.072c-30.243-12.71-67.093 8.707-83.92 48.747-16.82 40.022-6.32 81.344 23.908 94.047 30.226 12.703 67.107-8.705 83.927-48.727 16.827-40.039 6.326-81.358-23.915-94.067Zm-340.668-59.155c16.828-40.04 6.326-81.358-23.903-94.063-30.231-12.705-67.1 8.706-83.927 48.745-16.82 40.022-6.316 81.345 23.915 94.05 30.23 12.705 67.095-8.71 83.915-48.732Z" fill="#F4A201"/></g><defs><clipPath id="a"><path fill="#fff" d="M0 0h580v580H0z"/></clipPath></defs></svg>